<mxfile host="Electron" modified="2024-07-03T08:19:02.715Z" agent="Mozilla/5.0 (Windows NT 10.0; Win64; x64) AppleWebKit/537.36 (KHTML, like Gecko) draw.io/23.1.5 Chrome/120.0.6099.109 Electron/28.1.0 Safari/537.36" etag="jE2J1gR0Nrezz_tViXTH" version="23.1.5" type="device">
  <diagram name="第 1 页" id="37bvYDUD-9f57kmLAkVG">
    <mxGraphModel dx="2074" dy="1197" grid="1" gridSize="10" guides="1" tooltips="1" connect="1" arrows="1" fold="1" page="1" pageScale="1" pageWidth="1169" pageHeight="827" math="0" shadow="0">
      <root>
        <mxCell id="0" />
        <mxCell id="1" parent="0" />
        <mxCell id="AIBIiRVGQQcifbkvbrgu-1" value="" style="shape=image;verticalLabelPosition=bottom;labelBackgroundColor=default;verticalAlign=top;aspect=fixed;imageAspect=0;image=data:image/png,iVBORw0KGgoAAAANSUhEUgAAAoAAAAHgCAYAAAA10dzkAAAAAXNSR0IArs4c6QAAAARnQU1BAACxjwv8YQUAAHS3SURBVHhe7d0HeFTV1gbgld47pJHQe+9ViiCoKE2vYAUUFRVU7IL6g1jwchHs2FBURBQUCwgI0nvvvYaSEEJI78n8Z605J5mECZn0MzPf+zznzsw5QwiTuc6Xtfde28FgMMwlojrKAQAAAAC27xwHwDXKnT7GxwAAAABg49Y6qncAAAAAwE4gAAIAAADYGQRAAAAAADuDAAgAAABgZxAAAQAAAOwMAiAAAACAnUEABAAAALAzCIAAAAAAdgYBEAAAAMDOIAACAAAA2BkEQAAAAAA7gwAIAAAAYGcQAAEAAADsDAIgAAAAgJ1BAAQAAACwMwiAAAAAAHYGARAAAADAziAAAgAAANgZBEAAAAAAO4MACAAAAGBnEAABAAAA7AwCIAAAAICdQQAEAAAAsDMIgAAAAAB2BgEQAAAAwM4gAAIAAADYGQRAAAAAADuDAAgAAABgZxAAAQAAAOwMAiAAAACAnUEABAAAALAzCIAAAAAAdgYBEAAAAMDOIAACAAAA2BkEQAAAAAA7gwAIYOUMBoN6r4C5cwAAABoEQAAr5+DgoN4rYO4cQiFUJbzfAPQNARDAhmgfuuY+fM2FQoDKgl9CAPQNARDAhmgfutptcR+4NwqKABXB3HsMv4QA6AcCIICNKfqBy49ND+286S0z/XOm9wFKYu79Yu49BgD6gQAIYKXMBTa+1UKfhh+bHhp+jnYw02vafe2a6S3u2+f9orTrfPD7RbuvXdOYOwcA1Q8BEMBKmQtsRW/NfejyOT74OdqhnTN9vvacoremcN7IXs7zfe2Wz2kH026LMndd+zoAUH0clP8jrlFu+xgfAoCt0D6kzX3YFj1v7sPZ9BzAjd4X2nvNHO3ajZ4DAFVuLSqAADZA+3A2vdU+bPm26FH0PD9fO0yfY/r1cGvft9p7guXl5an3jEzfL6YH066Z/nkAqH6oAALYGP7gLRrgSmL64WzpnwEoit9H2vuv6C0A6AoqgADWSAtp5m61D1vtviUHP1c7+DHDLW5Le6u9f0zfRxo+BwD6gQoggA0y/SC2VGmfD2AJc8FQuwWAaoMKIIA10wKb6a3phyvfWnIw7WsAVBR+bxV9P5reAkD1QQAEsGLmPli1+6ahULst7gCoDPze4vej9h7Dew1APzAEDGADin7QaiEQAADAjLUIgAA2qDSVltI8F6AsTH8hwS8nALqAOYAAtog/ZC05EP6gKvD7THvPAYA+oAIIAAAAYF9QAQQAAACwNwiAAAAAAHYGQ8DlwPthXrp0iXx8fDC3BQAAwErwvNTk5GQKDw8nR0e7rIVhFXB5XLhwgSIjI9VHAAAAYE3Onz9PERER6iO7ggBYHomJieTv7y9vIF9fX/UsAAAA6FlSUpIUcBISEsjPz089a1cQAMuD30D8xuEgiAAIAABgHfD5jVXAAAAAAHYHARAAAADAziAAAgAAANgZBEAAAAAAO4MACAAAAGBnEAABAAAA7AwCIAAAAICdQQAEAAAAsDMIgAAAAAB2xmYD4OzZs6l169bS4ZuPbt260bJly9SrRGPHjqUGDRqQh4cH1axZk4YMGUJHjx5VrwIAAADYLpsNgLy583vvvUe7du2inTt3Ut++fSXkHTp0SK536NCBvv32Wzpy5AitWLGCDAYDDRgwgHJzc+U6AAAAgK2yq72AAwMD6X//+x+NGTNGPVNg//791KZNGzp58qRUBi2BvQQBAACsDz6/7WQvYK7qLViwgFJTU2UouCg+z9XAevXqUWRkpHoWikpMz6ZLCenqIwAAALBWNh0ADxw4QN7e3uTm5kZPPPEELV68mJo3b65eJfrss8/kOh88P3DlypXk6uqqXr1eZmam/NZgetiTT1afoDHf7VQfAQAAgLWy6QDYpEkT2rt3L23bto2efPJJGjVqFB0+fFi9SvTAAw/Qnj17aN26ddS4cWMaPnw4ZWRkqFevN23aNCkZa4e9VQuvpmTRqdgUys0zqGcAAADAGtnVHMBbbrlF5vd98cUX6pkCWVlZFBAQQF9//TXdd9996tnCuALIh4YrgBwC7WUOwdgfdtKKQ5dpw8s3U2Sgp3oWAADAuvDnN+YA2pG8vLxCAc4UrwLmo7jrjIeS+Y1ietiTtCzjCulzV9PkFgAAAKyTzQbAiRMn0vr16+ns2bMyF5Afr127VoZ9T58+LcO53CImKiqKNm/eTPfcc4/0BBw4cKD6FaColMwcuT1zNVVuAQAAwDrZbACMjY2lkSNHyjzAfv360Y4dO6TfX//+/cnd3Z02bNggYa9hw4Y0YsQI8vHxkSAYHBysfgUoKi3TWAE8G4cACAAAYM3sag5gRbO3OQQ93ltNFxPS6ZZmwfT1qE7qWQAAAOuCOYB2NgcQyictK4ccHIjOoAIIAABg1RAAwWKpWblUr4YXnY9PRysYAAAAK4YACBbJzs2jrJw8ahHuR1nKfewIAgAAYL0QAMEi2gKQFuHGuRJDPt1ELy7cJ/cBAADAuiAAgkVSsowtYJqG+tCLAxpT7UBP2n3umpwDAAAA64IACBZJU3sAers50/i+jahXoxqUkW2sCgIAAIB1QQAEi/ACEObp6iy3bi5OlJGTJ/cBAADAuiAAgkVSTSqAzJ0DICqAAAAAVgkBECyiBUBPNye59VACYLoSAHn/ZAAAALAuCIBgkVR1EUhBBdBRCX8kLWEAAADAuiAAgkVSM3PJ0YHIzdn4luEhYJaRjQAIAABgbRAAwSK8DZyXqzM58F5wCq4AskzMAwQAALA6CIBgkZTMXPJSh3+ZuzMqgAAAANYKARAswn0AtQUgzN3VeJ8XggAAAIB1QQAEi3AfQG0BCCuoACIAAgAAWBsEQLAIt4HxVKt+TJsDiAAIAABgfRAAwSLaIhBN/ipg7AYCAABgdRAAwSIpmUoANB0Czm8DgwogAACAtUEABIukZfEq4IIhYN4JhCEAAgAAWB8EQLAIzwE0HQLWGkIjAAIAAFgfBECwCO8E4mkyBOzo6ECuSghEH0AAAADrgwAIFuG9gL1MVgEzdwmAqAACAABYGwRAKJHBYDAOAZtUABkvBEEFEAAAwPogAEKJMnPyKM9AhRaBMAmAOagAAgAAWBsEQChRUnq23Hq7ucithlcCp2chAAIAAFgbBEAoUUxShtyG+bnLrYZ3A8lEBRAAAMDqIABCiS4lGANgaJEA6IY5gAAAAFYJARBKFJ2YLi1fgrxc1TNGxkUgqAACAABYGwRAKFFMYoYM/zo4OKhnjNAGBgAAwDohAEKJLikBMNS38PAv83B1onQEQAAAAKuDAAgliklMp3B/D/VRAXdnzAEEAACwRgiAUKzsXGO440UgRVcAM14FjCFgAAAA64MACGYlpmVTu6kracOJK3Q5qbgA6CRNogEAAMC62GwAnD17NrVu3Zp8fX3l6NatGy1btkyuxcfH09NPP01NmjQhDw8Pql27Nj3zzDOUmJgo14HoUHQipWTm0Hebz1FOnkEJgNcPARvbwKACCAAAYG1sNgBGRETQe++9R7t27aKdO3dS3759aciQIXTo0CG6dOmSHDNmzKCDBw/S3Llzafny5TRmzBj1T8PxmGS5XXMsVm7D/DEEDAAAYCtsNgAOGjSIBg4cSI0aNaLGjRvTO++8Q97e3rR161Zq2bIl/frrr/KcBg0aSDjk63/99Rfl5OSoX8G+HbucTM6ODpTLmwArzFUAZSs4BEAAAACrYxdzAHNzc2nBggWUmpoqQ8Hm8PAvDxU7OzurZ66XmZlJSUlJhQ5bdTQmmQa0CCE3Z0c5AjwL7wPMjI2g88hgMIZEAAAAsA42HQAPHDggVT83Nzd64oknaPHixdS8eXP1aoG4uDh666236PHHH1fPmDdt2jTy8/PLPyIjI9UrtiUvzyBDwG0i/KlbgyBpAVO0CTTjIWCGhSAAAADWxaYDIC/y2Lt3L23bto2efPJJGjVqFB0+fFi9asRVvDvuuEOC4ZQpU9Sz5k2cOFEqhdpx/vx59YptuZiQTqlZudQ41IdeurUJvXFnM/VKYdwHkGWiFyAAAIBVsekA6OrqSg0bNqQOHTpI9a5Nmzb04YcfqleJkpOT6bbbbiMfHx+pDrq4XD/MaYoridqqYu2wRcfUBSBNlQDYItyP+jYNkcdF8RAwy8jBPEAAAABrYhdzADV5eXkyj49x5W/AgAESEv/8809yd79+lau94gUgvu7OZrd/M6UFwPQsBEAAAABrYrMBkIdr169fT2fPnpW5gPx47dq19MADD+SHP14UMmfOHHkcExMjBy8YsXe8AKRpqK/ZeX+mtDmAqAACAABYF5sNgLGxsTRy5EiZB9ivXz/asWMHrVixgvr370+7d++WeYEcDHmIOCwsLP+w1Xl9pXEsJokah3qrj4qXPwSMOYAAAABWxWYDIFf2uPrHQ74cBletWiXhj/Xp00dal5g76tatK8+xV1k5eXT6Sio1CS15fmNBAEQFEAAAwJrY1RxAKNnpuBTZ+o0XgJQkfwgYARAAAMCqIABCIdoK4MbBJQdATxdj0+zE9Gy5BQAAAOuAAAiF8AKQMD938jOz80dR/Jy6QZ60/Uy8egYAAACsAQIgFMIVwCYWDP9qejeuSeuOX5H5kwAAAGAdEAChEAmAIZYHwD5NgunCtXQ6dSVVPQMAAAB6hwAI+VIyc2QbuNJUALvUDyRXZ0epAgIAAIB1QACEfFeSjbukhPl5yK0lPF2dqUu9QFp99LJ6BgAAAPQOARDyJaRlya2/BQtATN3dPoI2nbxKW09fVc8AAACAniEAQr4EtZ1LaQPg4Dbh1K62P0358xDl5GJXEAAAAL1DAIR8iWnGABjg6Sq3lnJ0dKApg1pIC5nVR2PVswAAAKBXCIA2JDfPQNnlqMBdS8siN2fH/C3eSqNNpL9UDrVG0gAAAKBfCIA2ZPryo/TUj7vVR6WXkJZd6uFfU/VreNHpOLSDAQAA0DsEQBsSFZ9G566WPYDxlm7+HqUb/jVVv6Y3nb6Soj4CAAAAvUIAtCHcxy8pPUd9VHo8BFyuCmBNYwUQu4IAAADoGwKgDUnLyqWkDONCjrKoiCHg5IwciksxtpMBAAAAfUIAtCGpmTkSAsu6EITbwJR3CJhhGBgAAEDfEABtCA8BsyS1n19pJZZzCLhOkCc5OigBEAtBAAAAdA0B0IZw9Y8lZZRtHuA1GQIuewXQzdmJIgI8UQEEAADQOQRAG1KeCiD3EOT5g+WpADJeCHIGFUAAAABdQwC0ETzvLyvHOPevLAtBkpU/w4t3/T3KFwAb1PSmk7GoAAIAAOgZAqCNSMs0Dv8y7udXWjz8y8ozBMwah3jTufg0ysgu+H4AAABAXxAAbURKVsG8v7L0AkxIM7ZuKe8QcJNQX6kknriMKiAAAIBeIQDaCG4BoynLEDC3gGHlDYCNgo2tYI5dxp7AAAAAeoUAaCMKBcAyDAEnakPA5egDyLzcnCky0IOOIwACAADoFgKgjUhV5wD6ebiUcQ5gFrk5O5KHq5N6puyahPjS0RgEQAAAAL1CALQRWguYMD/3MvUBLO82cKaahHrTcQRAAAAA3UIAtBFp6iIQCYBlGQJW/kx5h381vBAkJikjf1gZAAAA9AUB0EbwHEBnRweq4e1WpkUgPATsV1EVwBAfucVCEAAAAH1CALQRqVm5sgCjrHMAeQg4oIICYL0aXsY9gbElHAAAgC4hANoIrgB6uTqRrxIAy9QHsAKHgF2dHSnU150uXEtXzwAAAICeIADaCF4EolUAyzIEnJiWVWGLQFhEgCedv5amPgIAAAA9QQC0EbwVHAdAXw9n2RO4tFux8VZw5d0GzlREoAcqgAAAADplswFw9uzZ1Lp1a/L19ZWjW7dutGzZMvUq0Zdffkl9+vSRaw4ODpSQkKBesU68FZyXmxP5uhureEVXAhsMBvpj70WzwTA3zyBVwwqvAMajAggAAKBHNhsAIyIi6L333qNdu3bRzp07qW/fvjRkyBA6dOiQXE9LS6PbbruNJk2aJI+tnXEOIFcA1QBYZBh4y+mr9OyCvbTxRJx6pkCy8lzev9df/bMVITLAg2KTM0tdiQQAAIDKZ7MBcNCgQTRw4EBq1KgRNW7cmN555x3y9vamrVu3yvUJEybQq6++Sl27dpXH1o6HgL3VOYCMh3RNLd59UW6vpmbKrSntuRXVBoZFBnrK7cUEDAMDAADojV3MAczNzaUFCxZQamqqDAWXVWZmJiUlJRU69IIXgXi6OVG4v4cM5b68aD+djDX24eMq3LKDMXI/PvX6BSIJaVlyG1CRcwADPOQWw8AAAAD6Y9MB8MCBA1L1c3NzoyeeeIIWL15MzZs3V6+W3rRp08jPzy//iIyMVK9Uv1SZA+gsVcDfn+pBDsq5SYsPyrVVRy5LQORr3PC5KG4BwypyDiC3geHG1FgIAgAAoD82HQCbNGlCe/fupW3bttGTTz5Jo0aNosOHD6tXS2/ixImUmJiYf5w/f169Uv1SeQjY1Vnu163hRYPahNPZuFR5vPpoLLUI96XGId4Un3p9ANS2bKuoPoDM2cmRwvzd0QoGAABAh2w6ALq6ulLDhg2pQ4cOUr1r06YNffjhh+rV0uNKoraqWDv0gheBeLoZAyCr5W9chJGZk0sX4tOpYbA3BXq5mg2AXBXk5s3uLhX7dogM8KTTV1Jpy6mr0poGAAAA9MEu5gBq8vLyZB6freE2LunZvAjEST1DUn1jlxMz6cK1NJmTV1wA1LaB43Y4FYn/zpWHL9N9X22VYWgAAADQB5sNgDxcu379ejp79qzMBeTHa9eupQceeECux8TEyPDwyZMn5TE/hx/Hx8fLY2uSlmXc+o3nAGp4MQg7F59KMUkZ0pcvQAmA5uYA8t7BFTn8q3mgSx16pl8j2RfYXPAEAACA6mGzATA2NpZGjhwp8wD79etHO3bsoBUrVlD//v3l+ueff07t2rWjxx57TB736tVLHv/555/y2Jrw/D/GfQA14X7GALjr3DXKMxircYGexQ8BV2QLGE2bSH96vn9jWXzCQ9QAAACgDzYbAOfMmSPVPx7y5TC4atWq/PDHpkyZIrtjFD1Gjx6tPsN6aBVAD9eCIWC+z8O6288YK5paBTA5I+e6+XjaEHBl8XF3kVXIAAAAoA92NQfQVvH8P+ZpEgAZDwPviUogntoX7u9OQUoAZFrfPw23gamMIWANb1HHwRMAAAD0AQHQBmjbrXm4XB8AORyG+LiTm7OTVABZfJEAmKg8rsgegEVhCBgAAEBfEABtQHqWcUjXdAiYhfsZVwJru3LwHEBWdB4gbwVXGXMANbw4BUPAAAAA+oEAaAO0IWBzFUCmBcD8CqBJAOQWMkkZPAew8oaAfdwRAAEAAPQEAdAGmFsEwgoCoKfc+ipBjLdnu2YSAJOV8GcwEPl5VGIF0BUBEAAAQE8QAG2ANgfQ3bloACw8BMyNnrkKGJ9q3PqNXVXDIDeJrizeSvDEHEAAAAD9QAC0AelZueTm7EiO3HHZRL0a3rIyuEW4n3rGOA/QtBl0XLJxZ5Qa3m5yWxl4EUgKVgEDAADoBgKgDUjPzrtu+JdxVe/AlFupVURBAAzwcsmv+jHtfg3vSqwAKgEwGRVAAAAA3UAAtAG8CKToAhCNU5GqIIfCQxcT6ZuNZ6RyGJeSSS5ODpU6B1AbAuZG2wAAAFD9dBcAT506Ra+//jrdd999soMHW7ZsGR06dEjuw/V4DmBxAbCoTnUDpQ/g1CWHad3xWCUAZlGQl5vMD6wsXAHk7ei01coAAABQvXQVANetW0etWrWibdu20W+//UYpKSlyft++fTR58mS5D9fjSp67hQHw4R71aM8b/SUwXriWLhXAoEoc/mUcABlWAgMAAOiDrgLgq6++Sm+//TatXLmSXF0LQknfvn1p69at6iMoiitrRbeBuxGu9vEK4UsJGXRVCYCVuQCEcSNohoUgAAAA+qCrAHjgwAEaNmyY+qhAcHAwxcXFqY+gKJkDWIoAyLhH4KUErgBmVVkFMDUTQ8AAAAB6oKsA6O/vT9HR0eqjAnv27KFatWqpj6Co0gwBa2pxAExMlwpgzUquAGoBMDmzoP8gAAAAVB9dBcB7772XXnnlFYqJiZFhyry8PNq0aRO9+OKLNHLkSPVZUBQHQEsXgWiqtALojiFgAAAAPdFVAHz33XepadOmFBkZKQtAmjdvTr169aLu3bvLymAw70ZtYIrDAZDDHy/MqOw5gPlDwOqWdQAAAFC9dBUAeeHHV199Ja1glixZQvPmzaOjR4/SDz/8QE5OpQs49kTawJRyDiAPAWuCKjkA8i4lvAcxKoAAAAD6oKsAqKlduzYNHDiQhg8fTo0aNVLPQnG4AliWOYCaytwFhPFwPg8Dp2ARCAAAgC7oKgA+8sgjNzzAvLLMAQzx4+bPxvuVPQTMvFw5AGIRCAAAgB7oKgBeu3at0ME7gaxevVqaQickJKjPgqKMbWBK96N0c3bKX/3L28NVNh+uAGIIGAAAQBd0FQAXL15c6OB5gKdPn6YRI0ZQ165d1WdBUaXZCs4ULwTx93QhF6fKfxtwM2gMAQMAAOiDrgKgOY6OjvT888/TrFmz1DNgKjs3TzkM5OFqXGlbGjwPsCqGfxmvBMYQMAAAgD7oPgAyXhWck4PhQ3N4+JeVpQL4QJfaNLZXffVR5eJFINgJBAAAQB90FQC50md6PPfcc9IcmoeA+YDrZWSpAbCUcwBZ94Y16J6OkeqjyuXt6kzJmQjxAAAAeqCrAMhbvpke+/fvl/Pvv/8+ffDBB3IfCtMqgKVtA1PVpA1MBoaAAQAA9EBXAXDNmjWFjn///ZcWLFhAjz/+ODk7l36Omz0ozxBwVQrwdKFraQiAAAAAemAVcwCheNwDkJV2J5CqFujlpgTALMrNM6hnAAAAoLpUewBs164dtW/f3qIDrmctFUDuNWhQsl+CEgIBAACgejkYDIY1ym0f48Oq9+abb6r3SjZ58mT1nj4kJSWRn58fJSYmkq+vr3q2aq0+epkembuTtk/qR8G+7upZ/dlxNp7u+XwLrXyuFzUK8VHPAgAAVD09fH5Xs7XVHgCtmR7eQEv3R9O4+btp/5QB5Ovuop7Vn1NXUqjf++toweNdqWv9IPUsAABA1UMApLWYA2jl0rKMrVX0PgQcpG43F5+KIWAAAIDqpqsAmJubSzNmzKDOnTtTaGgoBQYGFjrgerwNnIuTQ5Vs51YeXJ10cnSgqwiAAAAA1U5XqYHnA86cOVOaPnNZlptB33XXXbId3JQpU9RnWWb27NnUunVrKe3y0a1bN1q2bJl6VQlOGRk0btw4CgoKIm9vb7r77rvp8uXL6lXrwYtA9N4DkDkq4S/A05XiUxAAAQAAqpuuAuCPP/5IX331Fb3wwgvS9+++++6jr7/+mv7v//6Ptm7dqj7LMhEREfTee+/Rrl27aOfOndS3b18aMmQIHTp0SK7zLiN//fUXLVy4kNatW0eXLl2SsGlt0rPydD/8q+Fh4PjUTPURAAAAVBddBcCYmBhq1aqV3OeqHFcB2Z133klLly6V+5YaNGgQDRw4kBo1akSNGzemd955R74mB0n+unPmzJFqIwfDDh060LfffkubN28uddCsblwB1HsPQA23gsEQMAAAQPXTVQDkql10dLTcb9CgAf3zzz9yf8eOHeTm5ib3y4LnFvKOIqmpqTIUzFXB7OxsuuWWW9RnEDVt2pRq165NW7ZsUc9YB54DaC0VwEBvrgAiAAIAAFQ3XQXAYcOGyfZv7Omnn6Y33nhDKngjR46kRx55RM6XxoEDB6Tqx+HxiSeeoMWLF1Pz5s2l0ujq6kr+/v7qM41CQkLkWnEyMzNl6bjpUd14JxBrmAPIjEPACIAAAADVTVcBkOfsTZo0Se7zQpANGzbQk08+SYsWLZJrpdWkSRPau3cvbdu2Tb7OqFGj6PDhw+rV0ps2bZr0DdKOyMhI9Ur1SUjPIl8P/fb/M4UhYAAAAH3QVQDklbmmunbtKiuBeT5fWXCVr2HDhjLHj8NbmzZt6MMPP5QWM1lZWZSQkKA+04hXAfO14kycOFHmD2rH+fPn1SvV50pyJgX7lH14vCpxBfCaEgANvCccAAAAVBtdBcDg4GCp0q1cuZLy8vLUsxWHvyYP43IgdHFxyR9uZseOHaOoqCiZI1gcHkrW2spoR2XisBSbXDgUF3UlJZNqWkkADPRyo5w8AyWlG5tXAwAAQPXQVQD87rvvKC0tTdq11KpViyZMmCAtXMqCq3Xr16+ns2fPylxAfrx27Vp64IEHZPh2zJgxUl1cs2aNLAp5+OGHJfxx1VEvpi07Qq8s2q8+uh5X0mKTlADobS0B0LgbyFW0ggEAAKhWulsEwn35eCj23Xfflfl6HMi4jcvUqVPVZ1kmNjZWFo/wPMB+/frJSuIVK1ZQ//795fqsWbOkvQw3gO7Vq5cM/f72229yTS+upmTdcNFEcmYOZebkWU0FMMgb28EBAADoga4CoMbHx0cqctwGZv/+/eTl5SW7hJQG9/nj6h8P+XIYXLVqVX74Y+7u7vTpp59SfHy8tIfh8Hej+X/VIS0rl1KVozg8/49ZzxCwVgFEAAQAAKhOugyAvBjkl19+oaFDh1L79u0lpL300kvqVfuRlpUjbV6KY20BkLeCc3QwVjYBAACg+ugqAPIQLS8C4X583LaFb7kKeO7cuTK1gbF2XAHkEFgcLQBayypgJyX98UIQ7fsGAACA6qG7OYDp6en0/fffS0PmL774Qubn2StjALxxBdDdxZG83ZzVM/rH1corKTde2QwAAACVS1cBkBd/8NAvrwLmNi32jqt/vMgjN8983zytBYyDg4N6Rv9qeLtSXDKGgAEAAKqTrgIgL/6AAtoCkPRs81VArgBaSwsYjbECiCFgAACA6qTLRSBAlJObR1k5xmbYxc0DlABoJfP/NBIAMQcQAACgWiEA6lSaSdWvuJXAVhkAvREAAQAAqhsCoE6Zhr7iFoLIHEBvd/WRdeDAykPaqZnYDg4AAKC6IADqlGlAMhcAeWHIVSvaB1ijzVlEFRAAAKD66CoA8o4cb7zxBnXv3p0aNmxI9evXL3TYE9PQZ24ImPfT5cXB1jgHkGEhCAAAQPXRVQB89NFHZQu3nj170vjx4+nZZ58tdNgT0wBobhFIUnq23Pp7Wle7nBpqBTAOFUAAAIBqo6sAuGzZMlq4cCH997//pQkTJth5ACwIfebawKRkGs95uVpPE2jm5+FCLk4OqAACAABUI10FwICAAAoMDFQf2bfCFcDrA6A2R9CadgFhjo4OUgXEHEAAAIDqo6sA+NZbb9H//d//UVpamnrGfmmhz9XJ0WwATFEDoJebk9xaE54HGIcKIAAAQLXRVQB8//33acWKFRQSEkKtWrWi9u3bFzrsCQ8Bc/jz9XCmdDNzALUKoJeVVQAZKoAAAADVS1cBcOjQofTCCy/Qiy++SP/5z39kT2DTw55w1c/D1UmO4oaAnR0dyM1ZVz9Ci6AZNAAAQPVyMBgMa5TbPsaHUBpJSUnk5+dHiYmJ5Ovrq56tGDP/OUaLdl0gH3cX6tYgiKYMbqFeMZq99pRynKT9U25Vz1iPWSuP04/bztHO1/urZwAAAKpOZX5+W4m1uiwf7dq1i+bNmyfHnj171LP2xbQCaK4PIA8RW9sCEE2jEG+KS8mi+NQs9QwAAABUJV0FwNjYWOrbty916tSJnnnmGTk6dOhA/fr1oytXrqjPsg+pSujj+X2ePARstg1MjlXO/2ONQ3zk9sTlZLkFAACAqqWrAPj0009TcnIyHTp0iOLj4+U4ePCglGo5DNoTXvjh4eJkDIDqgg9TPAfQWgNg3SAvmb94PDZFPQMAAABVSVcBcPny5fTZZ59Rs2bN1DNEzZs3p08//VSaRNsTrQLo4epczCKQXKsdAnZ1dqS6NbzoJCqAAAAA1UJXATAvL49cXK7f2ozP8TV7wvP+eP6fp8uNhoCtrwegpnGINx2/jAogAABAddBVAOT5f7zl26VLl9QzRBcvXqTnnntO5gHak9QsJeDlLwKxrSFg1jDYh07EogIIAABQHXQVAD/55BOZ71e3bl1q0KCBHPXq1ZNzH3/8sfos+8AVQE9XZ6nyFbcTiLXtA2yKK4BYCQwAAFA9dBUAIyMjaffu3bR06VKaMGGCHH///beci4iIUJ9lH7gCyAtAOASabwNjnCNorbASGAAAoProKgAyBwcH6t+/v6wI5uOWW25Rr9gXYwXQSVYCF7cTiLcVzwHklcD8b9sVdU09AwAAAFWl2gPgRx99RBkZGfn3b3TYE17ly9U/DoHp2bmUl2dQrxhZcx9AxiuBezaqQSsPX1bPAAAAQFWp9q3geI7fzp07KSgoSO4XhyuDp0+fVh/pQ2VtJcNhr/6kv+m9u1rJIpBnF+ylw1NvlUDIcnLzqOFry2j6f1rT8I6Rcs4aLdx5nl7+dT9tm9SPgn3c1bMAAACVC1vB6WAruDNnzkj40+4Xd+gt/FUmrvgxTzeuABpDn+kwMFcHmbX2AdT0axZCDsrtv0dijScAAACgSuhqDuDUqVMpLS1NfVQgPT1drtkLLexxD0AeAmamC0FS1LYw1jwEzAK9XKlj3UAMAwMAAFQxXQXAN998k1JSrm8OzKGQr9mLNDXgeboZ+wCywhVANQCq16xZxzoBdCwGK4EBAACqkq4CoMFgkLl+Re3bt48CAwPVR7aPh33H3FSPIgM88yuA3BZGkx8ArbwCyPjfoA15AwAAQNXQRQAMCAiQgMfhr3HjxnJfO3iSJreFGT58uPpsy0ybNo06depEPj4+FBwcTEOHDqVjx46pV41OnTpFw4YNo5o1a8okUP47Ll+u/uHImj5u9MadzSky0JPC/DzIRwlJczedlYDMbGUOIOOAq1U8AQAAoGroIgB+8MEHNHPmTAk4PNQ7a9as/OPzzz+njRs30qeffqo+2zLr1q2jcePG0datW2nlypWUnZ1NAwYMoNTUVLnOt/yYQ+fq1atp06ZNlJWVRYMGDdLVvsN+Hi707l2t6M99l2jhzgtyjlvAMFuoAHIAzMjOo9wibW4AAACg8lR7GxhTHNp69OhBzs4VH2yuXLkilUD+O3r16kX//PMP3X777XTt2rX8JeC8HJyrkXzNkgbUVbmM/NHvdlJcSib9Pq4H/brrAr2wcB8de/s2cnO27nmAHGyf+WkPHXzzVpuoaAIAgP6hDYwO2sCY4qrcv//+qz4qsGLFClq2bJn6qGz4h8y0uYSZmZlS/XNzc5PHzN3dnRwdHaXiqDdNQ33ocpKxYTbPB3RxUr53Kw9/TFvIgmFgAACAqqOrAPjqq69Sbu71CwJ4aJivlRUP6fK+wlxdbNmypZzr2rUreXl50SuvvCKrjDl8vvjii/L3R0dHy3OK4tDIvzWYHlUlxM+dYpMzpUm0te8CYkpb5Wxuv2MAAACoHLoKgCdOnKDmzZurjwo0bdqUTp48qT4qPZ4LePDgQVqwYIF6hmThx8KFC+mvv/4ib29vKQUnJCRQ+/btpQpoDi8s4edpR2Rk1e3CEerrLvPk4lIzZRWwl9og2tppja61hS0AAABQ+XQVADlUmdvxg8MfV+vKYvz48bRkyRJas2YNRUREqGeNeBEIrwSOjY2luLg4+uGHH+jixYtUv3599RmFTZw4UYaSteP8+fPqlcoX4mscqr6cyAEwl7zcrH/4l2lDwOnZGAIGAACoKroKgEOGDJGhWg5lGg5/L7zwAg0ePFg9YxkeNubwt3jxYlnle6N9hmvUqEH+/v7yPA6Dxf1dPF+QJ4uaHlWFK4CM5wFKBdDGhoBNG10DAABA5dJVAJw+fbpU+njIlwMbH82aNZO9gmfMmKE+yzI87Dtv3jyaP3++9AKMiYmRg7eV03z77bfSJoYDJz/3nnvuoeeee46aNGmiPkM/grzdyMnRgWKUAHj+Wlp+ILR2GAIGAACoerobAt68eTMtXbqUnnrqKan88apgrsxxha40Zs+eLcO0ffr0obCwsPzj559/Vp9B0hiaG0RzyOS9hl977bVSB82qwuGvphICuQLIW6c1CfVRr1i3/L2OMQQMAABQZXTVB9DaVHUfoSGfbqIgL1dafTSWZj/Qnm5vFaZesV48VN9g0t/01tCW9ECXOupZAACAylPVn986pK8+gIwrfpMmTaJHH32UHnnkkUKHvQv1daOtp6/K/cY2UgHkXow8DJyGIWAAAIAqo6sAyNvA8cpcDoG8Kpd36TA97F2Ir7sslnB1dqQ6gZ7qWevHC0GwCAQAAKDq6CoA8r6/c+fOpW3bttHvv/8uK3hND3vHAZA1CvYmZyfdFW/LjFvBpGEOIAAAQJXRVYrIysqi7t27q4+gKC0ANgmxjeFfjQeGgAEAAKqUrgIgz/vjti1gntb6xVbm/2l4JTCGgAEAAKqOrgJgRkYGzZw5k3r37k1PP/00Pf/884UOe1crwENum4XZ1oolDoBoAwMAAFB1dBUA9+/fT23btpW9eHnv3j179uQfe/fuVZ9lv+rV8KJfxnajng1rqGdsAwdANIIGAACoOugDWA7oI1Qxnvt5L128lk6/PNFNPQMAAFB58Pmtwz6AYH+kDQyGgAEAAKqMriqAN998szQGLg5vCacn+A2iYryz9DD9ezSWVr+AQjQAAFQ+fH7rrALI8//atGmTfzRv3lxaw+zevZtatWqlPgtsDdrAAAAAVC2rmAM4ZcoUSklJoRkzZqhn9AG/QVSMz9edos/WnKT9U25VzwAAAFQefH5byRzABx98kL755hv1Edga3gkkPRsVQAAAgKpiFQFwy5Yt5O5ubIIMtoeHgLNzDZSVk6eeAQAAgMqkqwB41113FTqGDRtGXbt2pYcffpjGjh2rPgtsDfcBZOnYDQQAAKBK6CoA8ni86REYGEh9+vShv//+myZPnqw+C2yNFgDRCgYAAKBqVPsikI8++ogef/xxGeKNioqiiIgI2QnEGmASacXYfiaehn+xhVY935saBnurZwEAACoHPr91sAiE9/jlHwSrV68excXFyX2wHxgCBgAAqFrVHgDDw8Pp119/pXPnzpHBYKALFy5IJdDcAbaJdwJhaVkYAgYAAKgK1R4AX3/9dZowYQLVr19fdgHp1KmTVAJNj7p168ot2CYvV2e5TUMFEAAAoEpUewDk+X887Ltv3z6pAK5cuVJ2/jA99uzZI7dgm7QKYCoqgAAAAFVCVzuBfPfdd3TvvfeSm5ubekbfMIm0YuTmGajX9DUU4utGCx7vRq7O1rEICAAArBM+v3W2E8ioUaOsJvxBxXFydKCP729HBy4m0vTlR9WzAAAAUFlQagFdaF87gEZ1q0t/7rukngEAAIDKggAIulE7yJOupWXJXNCc3DysCgYAAKgkCICgG4FerrIncFJGDs3ZeIbu+XyLegUAAAAqkq4C4NSpUyktLU19VCA9PV2ugW3jAMjiU7Po1JUUOhuXKo8BAACgYukqAL755puUkpKiPirAoZCvgW0L8jIuAIpPzaTY5ExKzcqljGz0BgQAAKhougqAPPeLm0EXxT0CAwMD1Udgq7QK4NWULLqiBEDG1UAAAACoWLoIgAEBARLwOPw1btxY7msH9+np378/DR8+XH022KoATxe55dCHAAgAAFB5dNEImhtAc/XvkUceoQ8++EBCn8bV1VW2guvWrZt6Rj/QSLLitZ36Dz16Uz2ateqENIj+/pHO1KtxTfUqAABA+eHzm9bqaieQdevWUY8ePcjZ2bg3rN7hDVTx+r6/llrX8qPf9xr7AX4woi0NbVdL7gMAAFQEfH7rbCcQHx8fOnLkiPqI6I8//qChQ4fSpEmTKCsLQ4H2IMjLlY7GJKuPiK5iCBgAAKDC6SoAjh07lo4fPy73T58+TSNGjCBPT09auHAhvfzyy3LeUtOmTaNOnTpJqAwODpYgeezYMfWqUUxMDD300EMUGhpKXl5e1L59e/r111/Vq1AdeCEIt4Bhzo4OdA0BEAAAoMLpKgBy+Gvbtq3c59DXu3dvmj9/Ps2dO7fUwYyHk8eNG0dbt26llStXUnZ2Ng0YMIBSUwt6y40cOVJC4Z9//kkHDhygu+66Sxab7NmzR30GVLVALzdpBs0a1PRGBRAAAKAS6K4NTF5entxftWoVDRw4UO5HRkZSXFyc3LfU8uXLafTo0dSiRQtq06aNhMioqCjatWuX+gyizZs309NPP02dO3em+vXr0+uvv07+/v6FngNVi4eAma+7M4X6uUtPQAAAAKhYugqAHTt2pLfffpt++OEHqeDdcccdcv7MmTMUEhIi98uKJ3oy036C3bt3p59//pni4+MleC5YsIAyMjKoTx/za2IyMzNl4qjpARVL6wVY08dNwiDawAAAAFQ8XQVAbgGze/duGj9+PL322mvUsGFDOb9o0SIJa2XF4W7ChAmywrhly5bqWaJffvlFhoaDgoLIzc1N5iAuXrw4/+8tiucV8qoh7eDKJFSsIG9jAAz2cacABEAAAIBKoasA2Lp1a5mLx9W6yZMnq2eJ/ve//0mvwLLiuYAHDx6UCp+pN954gxISEmS4eefOnfT888/LHED+HsyZOHGifG/acf78efUKVBTTCiDfRwAEAACoeLoKgBqegzdv3jw5uCLo7u5OLi7GXSJKi6uJS5YsoTVr1lBERIR6lujUqVP0ySef0DfffEP9+vWTeYIcOnkY+tNPP1WfVRhXCblfkOkBFavoEHBCerY0hAYAAICKo6sAGBsbSzfffLO0b3nmmWfk4EDGAe3KlSvqsyzDC0o4/PGQ7urVq6levXrqFaO0tDS5dXQs/BI4OTnlL0SBqhfk5Sa3HAB5CFj5MdK1NFQBAQAAKpKuAiCvyE1JSaFDhw7Jwgw+eOiWF1twGCwNHvblCiK3keFegNzzj4/09HS53rRpU5nrx/P+tm/fLhXB999/X1rGcM9AqB5cAfRxd5YWMNqKYPQCBAAAqFi62gqOF1bwfDyuAJrigMY9/Hi+nqUcHBzUe4V9++230h6GnThxgl599VXauHGjBE8OhC+++KI0h7YEB1M730qmUiRlZJOPmzOdiUulvu+vowWPd6Wu9YPUqwAAAOWDz2+dbQXHQ6/m5vrxudIOy/IQsLlDC3+sUaNG0mD68uXL0iB63759Foc/qDy+7i4S4LX5gFgIAgAAULF0FQD79u1Lzz77LF26dEk9Q3Tx4kV67rnnZB4g2Bc/DxdydXKk2KQM9QwAAABUBF0FQF6Vy2XZunXrUoMGDeTgxRt87uOPP1afBfaCq4C8G0h0IgIgAABARdJVAOTGytz2ZenSpdK4mY+///5bzpm2cAH7EaYEwEsIgAAAABVKV4tArA0mkVa+537eS+fj02jRk2XfCQYAAMAUPr91sgiE+/Q1b95cfiBF8Q+nRYsWtGHDBvUM2BOuAGIIGAAAoGLpIgDyHsCPPfaY2RTOCZ179c2cOVM9A/YkzN+DYpIysBsIAABABdJFAOT2K7fddpv66HrcA5C3hwP7E+7nLuHvSnKmegYAAADKSxcBkPvw3WivX2dn51JvBQe2IczPQ24vJRp3cAEAAIDy00UArFWrlmz5Vpz9+/dTWFiY+gjsSbi/u9xGJ2AeIAAAQEXRRQAcOHAgvfHGG5SRcf2HPO/dO3nyZLrzzjvVM2BPuBm0h4sTRaMCCAAAUGF0EQBff/11io+Pp8aNG9P06dPpjz/+kOO///0vNWnSRK699tpr6rPBnnAz6DB/d7qECiAAAECF0UUADAkJoc2bN1PLli1p4sSJNGzYMDkmTZok5zZu3CjPAfsU7ueBCuANbD8TT0M+3YSV0gAAYDFdBEBWp04d2fUjLi6Otm3bRlu3bpX7fI63gwP7hd1Abmzp/ku073wCpWTkqGcAAABuTDcBUBMQEECdOnWizp07y32AyEBPOhuXSnmocJm17Uy83CZlZMstAABASXQXAAGKalfbnxLTs+l0XIp6BjQJaVl0NCZZ7vNrBAAAYAkEQNC9drUDyNGBaOfZa+oZ0PD8Pw0qgAAAYCkEQNA9bzdnahbmSzsQAK/DAdDH3VnuJ6VjDiAAAFgGARCsQsc6AbTrXEG1C4y2n42nPk2C5T4qgAAAYCkEQLAKHesG0tmradgT2ERWTh4diU6ScOzl6kRJmAMIAAAWQgAEq9CxrnFF+O4oDANrTsamUHaugVqE+5KvhwsloQ0MAABYCAEQrEKYn4dsCXfhGhpCaw5dSiQHB6KmYUoAdFcCICqAAABgIQRAsBpB3q4Ul4IhYM3h6CSqG+Qli2R8PZwxBxAAACyGAAhWo4a3G11FAMx3+FISNQ/zlfs+UgHEEDAAAFgGARCsBgfAuJQs9ZF9MxgMUgFsHm4MgL7uzpSMCiAAAFgIARCsRg0MAefjuZDJGTn5FUAsAgEAgNJAAASrYRwCRgWQcfWPFVQAsQgEAAAshwAIVoMXgVxJyZThT3sXdTVNev8F+7jJYywCAQCA0kAABKvBFUBufpySmUN5edUXAhPTs2nn2erdleRSYjqF+rmTA/eBUXAFsLpfFwAAsB4IgGA1OACymMQM6jLtX1q487w8rmo/bY+i+7/aRpk5ueqZqhedkEHh/h7qI+McQC6MJishEAAAoCQIgGA1eBEI23YmXraEm/HPMcrIrvoQFhWfRlm5eXQsJlk9U/lWH71M55W/VxOdlEFhfu7qI2MFkGEeIAAAWAIBEKyGVgHceCJObnlByPdbzsr9qnRR3Y3kwMVEua1sPOfxmZ/20pfrT6tnuALIQ8CmFUBnucU8QAAAsAQCIFgNPw8XcnJ0oE2n4igiwINGdIqkWStP0IpDMeozqsaFa8ZK3MGLxpW4le1SYobM79NW/vI8SF4ME262AoghYAAAKJnNBsBp06ZRp06dyMfHh4KDg2no0KF07Ngx9SrR2bNnZQK9uWPhwoXqs0BPHJXwF+TlKv3vmob60ut3NKc+TWrSE/N20WYlFFYFrsZdTEgn5VtRAmDVVACPq0PNR5QAmJtnoNjkDJnvF1ZkDiBDBRAAACxhswFw3bp1NG7cONq6dSutXLmSsrOzacCAAZSamirXIyMjKTo6utDx5ptvkre3N91+++3yHNAfbRi4eZgPebg60af3t5dQuO101azKjU/NoozsPOpSL0jmAHI1Lic3j+ZsPFNojl55ZCtfz/RrHbtsDIBpWbl09moqRSdmyGPTOYA+7uoQMOYAAgCABWw2AC5fvpxGjx5NLVq0oDZt2tDcuXMpKiqKdu3aJdednJwoNDS00LF48WIaPny4hEDQJ+4FyJqqO2BwVbBeDS86pwSjqsDVP3Zby1BZCLIn6ho9/dMeemvJYVq064JcK6/Fuy9Sv5nrpN0MO64EwLpBnnL/0KUkuqR+D6YB0MXJkTyVQIzdQAAAwBJ2MwcwMdE4XBcYGCi3RXEw3Lt3L40ZM0Y9c73MzExKSkoqdEDVqqlWAJupAZDVDfKiM1crpvpWEm0ByC3NQ2QYeMSXW+nfo7EU4OlSYdvU8Vw/rixuUYe1OQByxZHn/B26lCgVQB83Z/JR5/1peB5gQhp2SgEAgJLZRQDMy8ujCRMmUI8ePahly5bq2cLmzJlDzZo1o+7du6tnrsfzCv38/PIPHkaGqlXDx408XJyoTqCxIsbq1vCis3FVVwHkv5/D2DvDWtHbQ1vS6hd6U5tIf2lNUxFOXUmR23XHr8icvxOXU6hxqA81D/ejw5eSpA9imH9B9U/TJtKPVh2JxU4pAABQIrsIgDwX8ODBg7RgwQL1TGHp6ek0f/78G1b/2MSJE6WSqB3nz1dPI2J7xit/p/+ntQz9argCyMOlVVH9unAtnWoFeMhiofs616YHu9ahiABPqUzGVlAAPH0lVVY7rz8eJz0HM3PyqHGIN7UI95WFJxwQTVvAaPi14YUiVbU6GQAArJfNB8Dx48fTkiVLaM2aNRQREaGeLWzRokWUlpZGI0eOVM+Y5+bmRr6+voUOqFoNanrToDbh6iOjOur8uDNVUAXkCmAtk9W3mpo+bhVSAUzLypG/4/aWoXL71QZj778mIT4y7zA710AbTsQVagGj6dWoJoX6utPPO6PUMwAAAObZbADkYTAOf7ywY/Xq1VSvXj31yvV4+Hfw4MFUs2ZN9QxYEx4CZueqYB4gzwHkCmBREgBTMss9/MrVP3Z/l9rk6uxI87dF0bB2teTr87zH357qTs2V2051r5/L6uzkSP/pEEF/7LmUv1gFAADAHJsNgDzsO2/ePBna5V6AMTExcvBwr6mTJ0/S+vXr6dFHH1XPgLXxdnOW9jCVXQHkFjDchiUyoGD+oYYDGi/cKO8qXG3+X4twP/rs/vb065PdaNaItjLkzBqH+NDfz/aku5WgZ87DPepKT8BHv9tJqdgXGAAAimGzAXD27NkyT69Pnz4UFhaWf/z888/qM4y++eYbGRrmHoFgverV8KSTSnj6ddcFSkyr+F54XNmb9NsBqcrd3b6WerZAsI9xSLa8w8CnrqRKmORdT3ilcYc65letFydICcJfj+pIUUpQHfPdDkpGY2gAADDDpoeAzR3cG9DUu+++K/0BHR1tfjqkTasT5EVL90fTCwv30cJdJS/O4aHVB77eqj4qGa+uXX4oht4d1oqCfa+ff8ehjZU/AKZQg5rGIe2y4qHibx/uLD0D/zN7i/QnzMzJVa8CAADYwSIQsA89GgbJSlkOYrxS90a4ZczUJYdo08mrdNXC3n37LyRI4+WBrcLUM4XlB8By9gI8FcsBsPyNyDvXC6RfxnajQC9XelEJxdP+PqpeAQAAQAAEGzGsXQT981xvahnuW2IAfO33A+Tpatw67YCF+/lyZS9YDXnmeLk6SX/AslQAt5+Jlz/HFWreAo7b2lQErgT+9HhXerJPA1q85yKqgAAAkA8BEGwK9+S7cK341cC8MIIrf6/c1kT2z+W+epbgXT60fYjN4UUaXAUsbQDMyzPQI3N30Hebz1Ky8r2lZuWabfJcHne3j5A+if8eiVXPAACAvUMABJsSGeghFUCuppnDq3gZr6ZtGe5H+y9YXgHUhnmLw9djkzPUR5bhdi0pSvA7r4TW6ATjnzXd47ciNAz2pna1/Stsr2IAALB+CIBgU7gCyIGKK17maL0CeZi1VYSfxRVAiwKgd+krgLzPL+PQeinROHQdZmaXj/K6q10t2VoOq4IBAIAhAIJNiVCbNBc3D5ArgL7uzuTv6UIta/kpoSujxIUgXE2MS8m64RAwK8sQ8PHLxr5/3GCa9/jlHe5uNNewrDrWDZR9hY/GGAMnAADYNwRAsClcAWS8mMKcc3FpsnMIz9lrrQRAVtJCkKT0HMrKzbNoCLisFcDLyRlSneR+gryjR0XjYWBX5esevoR9ggEAAAEQbEyApwt5ujoVWwE8czU1f5Ut7yHs5uwozZdv5EqKcW5eSQGQt2i7mppl8bAyOxaTLFVLnrK4O+oahVbw/D+NixL+God606FLln9vAABguxAAwaZwZY8DVXErgc9JADRWCfm5vONGSfPiYtWqXklDwH2a1JTh2wU7otQzN8ZDsrx7Sb+mwfJ43/kECq/gFcCmOKAejkYFEAAAEADBBvFeveYqgGlZOXQ5KVN2DdFwKxge4r0Rnv/HSqoA8tDt8I6R9MeeS/J3lYTDKO8f3KeJMQBmKvdDfSt+AYiG9xc+HpNC2bl56hkAALBXCIBgc7gCyG1ViopS5wXWrWGsADJfCyqAPK+Pmzxzs+eSjOgUSSlK+Ft+MEY9Uzxt/h8vRtHCZaVWAMN9ZS4jbzcHAAD2DQEQbE6YvwdFJ17fj4+3gGOmO234uLtQkgUBsIaPqwwZlyQy0FO+/hELhlp5r94a3q5yaKuXK2sOIGsa6iO3u85dy++TmJGdS5tOxsl9AACwHwiAYHN4/9vkjBwZXjV1Ji6NfNyc5bqGW8Lwc2+EAyD3+LNULSWAFrcIxdS+C4nUJsJfgiX/GVYZPQA1HHYbBXvTa4sPUu//rZXXZ9nBaHrg623FzpkEAADbhAAINocrauxamnHunoaHXBuGeBeq5HEoKikAlrQNXFFczeMdPm6EK3D7LyRQm0h/eay1r6noXUCK4r2BJw1sKsPhHPrOKqGY8X7EAABgPxAAweYEehnDGge39Kzc/OoWN0HWhkE1vh7OFg0Bl7QAxJQlFUAOYAlp2dQ6wtiLkPv08RzDymgCbYqD7MBWYXLfGAKN3+e20wiAAAD2BAEQbE6QOsQbn5pFczefpcGfbKLMnFw6FZtCTUKKBEAzFUDTfYSjrqbJFm2lCYARgR7yd99oJfDe8wlyy0PAbGjbcFr1Qu9KaQJdFA8zOzs6SLNsbbHM9rMIgAAA9gQBEGxOkDoEfDUlS1qtcBhbsi9aVsA2CfWVaxqeA5iUnp0f+v7Ye5H6zVwn4W3hzvPUe8Ya4gHjvmqvPkvU8jcO5/L2bsXZfyGRagd6UoAaVjn4Veb8P1NOSvgzrpROl++R+yKeiUul2KTrF84AAIBtQgAEm+Pp6ixtW3hXDt7rl327+YzcFh0C5jmAOXkGysg2Lhg5cTmFTl9JpVkrj9O7fx+hO1qF0eZX+1FrtVJnCW1F74UbzAPkps/a/L/qwKuVT19JoejEdLqrfYSc24Z5gAAAdgMBEGwSr/S9mpJJMUrAYQcvJsn8Oq3ipuE5gEybB5iYbrz9asMZacz8f3c2Jw8L+v+ZCvF1lyFWbX4dVyAX7bpQaFUybwHHO3NUFw6AvPBDyb7UrrY/NajpRWuOxapXAQDA1iEAgk3iYWAOXtwPUFtY0aRI9Y9xBZBpzaA5ADZTglmIrxtNuKURBSthrrR4iDXM3z1/8clvuy/Qiwv30bDPNsnqYP67kjNzqJZaKawOPPycpM595BXIXAX8+0B0fgAGAADbhgAINokXgpy7miYLPIa1qyXnig7/Ml4EwhLV7eA4ANUO9KCNr/Slx3s1kHNlEeHvmT8HkIeiAzxdZNHFT9uiKEYdlq7sli83wgGQcUcc3n3kno4RlJNroN/3XJQm1teU7xkAAGwXAiDYJG4Fc+hSoty/uWkwdasfRDere+6a4r2AmVYB5KFgDoUu5VyNy9W9/CHglCwJXE3DfKX1irZLSWgZqosVRQuAIT7u5ObM7Wfc6ZZmIfTf5Ufp9g830MerT8p1AACwTQiAYJO4GbQ2xMl9+bgBcveGNeSxqYIAWFAB9PMwVgXLgxeCaAGQK4A8JzEywFParvDCC6688VzB6sJzAI23BcPQj/euT3WCvORcZe8MwhVGDpu8FR0AAFQ9BECwSabbvd0oaHm5OpOjEsa0RSDcEqYiAmC4n4c0ouaFH/GpmVKR5KobDwNfSsiQhsyuztX3fz/+N3ILHG0HEta+dgAte7anVEsvV3JLmPUnrtDstaek1Q7Yn8V7LsgvAHm8CgkAqgUCINikIHXrtpKClqOS/rzdjPsBcy/ApPQc8q2AABiizu+7ooRAXozCi1K4shaXkkWn41KVgFh91T/NvZ1r060tQtRHBXho+nJSpvqocnDfQfaZEgJ5i76vN5ymnNzCezeD7eH/j7295DA99/M++QXgkzWYagBQXRAAwSZpu4FYstCCAx9X/rgXIDeLrogKIK8iZrzgQxsC1ubd7TgTT6E6CICTBjaj21oat4UzxSufObjmVmJ15qwSAHloPiYpgwbMWk9vLz1Cq4+iDY2t4p93tvL/rRWHYujrjWfojTubyyr7WauO09xNZwrtvgMAVQMBEGySthuIJQGQW8FwBVBrgVIRAVBb4GFs+5JjnAOoBkAOPVW160dZ8PfO4Y/7KFaWM1fTqFuDIHqhf2Maf3ND6Yn4y84L6lWwJcsORNPN76+lkXO201tLjsiuOmNuqkfP9G1Eo7rVpSl/HaanftwtAREAqg4CINgkbQ6gRRVA3g4uIzt/HqDWHLo8OETy0PPR6CR5HOjpSjVNhqOrswVMSbQ5kxxUKwtXhOrV8KLxSgh48dYmdG/nSGlEHZtcuXMPoXKlZxUs6jl8KUmG9if8vJdualiDjsQk0ZXkTGmuznj6xZTBLejzBzvQysOXadJvB1AJBKhCCIBgk4K8jEOwoRZU2iqjAujg4CDDwIe1AOjtKh94kWrz5zB//VYAQ/yMr11lzQPkFcD8WtcN8lLPEA1uEy4NtF9etJ++23wWQcAK8e427d9aKXP8uKn4HR9voOnLj1GfJjXpq5Ed6a/xN9H8x7pQXSX4m7qtZSj9757WtHDXBfoFi4IAqgwCINgk3r7tyT4NqH/z6xc5FMUVP54DmJimVQDLHwAZD6VyU2WmzUnUhoH1XAGsoYRnDmOVVQE8c9W4AKRujYIVyP6ervTyrU2keffkPw/lLxIB68DDt7zbjafy/zue4zd+/m66s3U4HXzzVvrioY7k7uIk7/2OdQPVP1HYsHYRdFuLUFkYUplzTwGgAAIg2KxXbmtKDYO91UfF48bPXAHMHwJWdwcpL15MoVXRtCFp7gXIqrMJdEm4Usnb58VWUgDk4V9mWgFkj/asT3NGdZT7lb0KGSrW91vOSbX7m9GdaPKg5jSoTTjNuKd1qVodPaH8wnZW+QWAF4oAQOVDAAS7x3MAeScQHpZ0Uz6wuFpREXiXDebq5CitZlidIE+prlVnE2hL8PenbVlnCZ7vxcN3lgzdcgDkgOmlviamtL2XSzMXkNvHvP/PMfpj70X1DFQ13u+ah3LbRPrTwz3q0Yf3tpMdZkqjrfJnuQfla4sP0INfb8uvngNA5bDZADht2jTq1KkT+fj4UHBwMA0dOpSOHTumXi2wZcsW6tu3L3l5eZGvry/16tWL0tONOziAfaiphBFue8KNmyti/p8mVJ1Lx9U/nhPI7ukYSd893Llam0Bbgucv8hDwG78fLDFYTfnzEA38aIPM3zsSnayeLR6vAC46D0zDQZmHEXmxgCV46HHc/N2ydd23m86qZ6EqRSk/z0PKLwADzbQUKq337m5FQ9rWoqMxyTRn4xn1LABUBpsNgOvWraNx48bR1q1baeXKlZSdnU0DBgyg1NSCuUUc/m677TY5v337dtqxYweNHz+eHB1RGLUnzcP9lCBhoB1nrlXY/D+mVfkC1OFfxgHzpkbXb0mnNzxEvevcNfph6zlaeIP2LFzx+3X3Bbqvc21ycXKgHWfj1SvFOxWbQvWLCYBMArmFAXDxnov0z+HLso8xD0GilUjVW3YwWirnvNijvHgrQl4Z/FDXOtI+Ji3LuEUjAFQ8m006y5cvp9GjR1OLFi2oTZs2NHfuXIqKiqJdu3apzyB67rnn6JlnnqFXX31VntekSRMaPnw4ubkZKzdgH7gHnaMD0Z7z1yq0AhisDgFrC0CsCQ/FpqktPfaeTyh2Yr7W57B/82BqE+FP28/cOABym5Bjl5OpVYSfeuZ6Mv/QJAByhXHWyuPqo8J+3BZFvRrVpCd615dt93hXEahayw7GUO/GNc0O6ZfVXe1rUaryXjGdD8i/bEz7+widjMXPGKAi2E2pKzExUW4DA42r0GJjY2nbtm0yPNy9e3cKCQmh3r1708aNG+U62A9eMdwo2EeqgBU7BGwMgNoCEGuiLVIZ3b0upWTmFBustCHfZkqI7lQvkLYpAfBG8wAPXEyUMMnzvYrDwVmbA3hQef7czWfpw39PSJ9AU3xtnxJOH+hSm5qHG0M8n4OqwdXWt5Ycll8QBrcNV89WDF4x3Fl5P/Gq4O+3nKVU5T244UQcfbH+NM3bGqU+CwDKwy4CYF5eHk2YMIF69OhBLVu2lHOnT5+W2ylTptBjjz0mFcP27dtTv3796MSJE3KtqMzMTEpKSip0gG1oWctYkeIFIRWFK1nMGgMgD6m+NaQFvXRrE1m0sjvqmnqlMJ6oz6GZAyN/YPM8ylmrTtDNM9ZSQlqW+qwCe89fIw8XJ2oS4qOeuR4PAceqq4A/UoIfL5zp1bimzDHkMMoysnPlGv+9vLOEp6uzhPj9FxAASzJ9+VEa8cWWMvda5D/3gxLK+GfMPRt51e8drco//68o3iXGydGRpv51mF74ZR99s8k4J5C3DCzr9w4ABewiAPJcwIMHD9KCBQvUM8ZQyMaOHUsPP/wwtWvXjmbNmiXDwN98841cK4oXlvj5+eUfkZGR6hWwdq1q+cptRVYAeUiMw58e9v0tLT9PF3qoW135N/AQOc8H5FW+C5XDdF7W0ZgkahbmI4tcOtQJkCocBzPu47f19PXDwVwt4uFfZ6fi/9MT7GtclMNDfTy/j7eKe2doS5kXyB/+XB3kRSdrj12hV29vmv+1+OtyhRGKxz+7H7ack0otV9RYacPUPiVkv/HHIVnx+8f4HrLqV1vkVJG61A+iZc/2pE/ub0fLD8XIz5uDZlR8Gp1Gn0iAcrP5AMiLOpYsWUJr1qyhiIgI9SxRWJjxN9bmzY3bEmmaNWsmcwXNmThxogwla8f58+habyu0OWkVGQDZT491pQe71lEfWScOdn/tuyQVuJeU46b/rqHzyocw4yFgHv5l3D+xq/KhzfPBavl7mJ0PuDcqgdrdYPiX8ZZ5CWnZtOboFVlYwj3leEiwpRLSeU7YPCXAcIVw6TM30dB2tdQ/RdRa+RlyRTIzp2A7Mg439tRYmP+tPBeyOPxzTFFCIG/D98Gq4/TQnG008pvt6lXL/LQtSn6+H93bjlqEFz+Xs6Lc1jJMFhnx3/nusFaygn6N8osAAJSPzQZA/g8/h7/FixfT6tWrqV69euoVo7p161J4ePh1rWGOHz9OdeqY/8DmxSHcKsb0ANvQPMxPhjp5R4qK1CTUJ78HoLXq1iBI5kfyHq4bXr6ZvNyc6Lmf90rvxLNXU/MDIJv7cGfl6ERd6vN8wKvqWSNuLH0pMeOG8/+Y1gvwn8MxskJb68t4a/NQWqt88P+88zwNaRtOjYoMI7evHSDf55ZTxr+XG3sP+XQTvfLrfnlsD95eepjunr2Z8syEXv5vIi+a6aME9Fdua0K7lTC+9fRVqQRa2vORf+Z/KiFyRKdI+f9LVXl3WEv694XeUpnmXoH/HjEfAHle4sf/nqATWAwEUCKbDYA87Dtv3jyaP3++9AKMiYmRQ+vxx0MWL730En300Ue0aNEiOnnyJL3xxht09OhRGjNmjDwH7AcvBPnhkc6y+hAKG9A8hLZO7EeP3FRPKnEzh7eVOYHDPtushAqiZqEFAZCrM/z/ra71gqQti7a7CuMhPNa+ToDcFkebO7nz3LVC1cIBLUJlZSjvEnJ/l9rq2QItwn2pqRK4OeRwFezJebtkTiD3MbyaYh87i/BrzMPgPGRqisPfe8uOyusxqntd5WcaKtW0JU/3JGclyK06cll9pnnxqVk06OONNPiTTZSlhKzhHat2+gu/p7RfBIa1q0VblOD6664LdOpKigR+/vdxQ/AJC/bS+yuP0+M/7MqfLwoA5tlsAJw9e7YM0/bp00eGe7Xj559/Vp9BsjCEh3W5HQy3ivn333+lZ2CDBg3UZ4A96d6wRoVXAG0Bf/iazmPsVDeQPri3nYSt21uGSpWzKF4QwuFwp9oXkD+geRJ/v6bBJe6CogVA/vPtahcEwMYh3lQ3yFPmnpkbeuTv86FudehfJcxw+OO+jp8/2F6u/b73ktzaMq6w8txLXsj04aoThaqAX284IytoecFGnybBst0fh2j+2fHPauXhy7KAh4ftecUthyfTAMWrfXnuXUclvPPCoOqc18rV3/90iKBXf9tP/Weuo/u+2irNwId+tkmmCLxxZ3N5LSb/cUj9EwBgjoPyH+Y1ym0f40MoDV4FzItBOGhiOBigAAe+rtP+VQJimDT23Xgijh6cs43mP9pFgvaNcHBp/PoyylFu1790M9VWQp+Gt5zjai3PYTOHw0uXd/+l1Kwc+uS+9nRH6zB66sdddCo2lZZP6Ckh0Vbx0OwzP+2hLx7qQGN/2CWLJ+5sbWzP8p/Zm2V19ewHO8hjU99sPCPVQW8lOHKlz1QNb1dZXc0Vtxn3tJHgpQe8CvzNvw7J9AMvV2e5z2GWFwV1qBNI87dF0aTFB+if53opvzgUv+Ic7Bc+v2mtzS8CAYCqx0GLhwnnb4+SqtSH/x6XD2ueT1gSrk7V8HaTFdSRgR7qWSPu91dc+GO8avntoS1lL1oOf4xDCzef5uFCW7ZNCWn1a3rRrS1CpW2OVgXk4fD9FxOpY11jD9Si+jcPoTwlsPNq78VPdZeg99F97ZTXsC3d36UOuTg70j3Ka3i3jqZH8HDwtLta08hudelu5XvbP+VW+mVsNwl/jH/m3CLoy/XGdl8AcD0EQACoFE/0bkD+Hi40+OONtO98oiwisbQCF+LnLvP/ylKx45XBg9sUNCbmHUrY8cs2HgDPxFOXesaAPeGWRnQiNoWWHoimQ5cSJQS2NxlON8XzOte9fDN990hnalc7QMITv368J+/z/RvT98r5/ymhUO/VU9Pvj+eijrmpnsz/tHSBC4C9QQAEgErB1bjX7mhGGTm59NF9bS2q/mm479/rSmCsCFxJ9Pd0kT2IbRUP3Z5U/n1d6hkrYLwimtvx8A4q3MORA9GNWrZwi5WqXNVbFe7tHEmuTo6yVzUAXA8BEAAqDVeR9k0eIL3cSoN3ZrnRUG9pcGWoQU1vqxsCLs0qVt4Sj3Hw0zzXv7GEQt5OrbXyenIItCc+7i4y33TdcePqcwAoDAEQACoVb9NW3RrU9FICoPXsHnExIZ3aT10p1TtL7LuQQAGeLoXmTHK/xZub1KSrqVkltt6xVVwF3a28hty/EAAKQwAEAJunVQB5dXJZ8BZ25nY2sVR6Vi59vu6U2f2Rzdmh/F3cb49XT1uC+/u1irh+zuSEWxor54g6F7MAxNZxAOTV5JvV5uAAUAABEABsHgfANCWExSSVbUHAy4v20f1fbaXlB2OUIzp/yNVSM1cek1YrzyzYa3ZrOm5fk5hWUKXaE2Ws/O08V3Lo5FC7/0ICtVG3MzTFPRPXvXgz9WsWrJ6xL7zApX4NL90OA/OWilP/OkyfrT1Jp218lTroDwIgANi8BsHecsv9AEuLP5h5BTGHiSfm7VKO3fTsgj0WVxM5LM7ZeIYGtgqlDSeuSCXQFH+dR+buoLHzdqpnlACo/BlelMHDl7zDRXG4zQsPF8elZFFrdbVzUdxHUe8reCsTt8T5Y89FmvjbfopONO4EpRezVh2n+dvP0WdrTtFtH2yQ+ZoAVQUBEABsXmSAB7k4OdDpuNJXWVYcukzuLo70+1M9aNpdrWj63a3p7NU02aqOcYDjClNalvlFG/whz82IP7q3Hd3fuTb9sOWc/BkeDubw9veBGGnhsvtcgjQ45oMbXt/ZOky2vjsaY9zXlsMe73Wr4RYnbd78h15bfFAem6sAAtHTfRvSPR0j6R/l5/jSwv3y2vPB8yt/V4JhZk6u+szKxe+PW2auoyGfbJSfXWxyBi3ZFy2tdna+fgs92LUO/Xf5UTp4MVG+P97NBKAyIQACgM1zdnKkukFesiq2tHh7MZ5L5ufpQvcpAY775EUogXLRTmN7Ed4lY9Q326nf++tkGzpTPLS7+eRVCSD8PfDOKDwMzaHu2QV76ab/rpbhZV6kwnP++MOfD563xk2OObRqC0F4Z4sWk1fIrh588J+vH+wt4TPMz52CS9hiz14FebvJbjT/u6c1bTwZRzNXHqe7lNfvbuWY8PNe6j9zPR24kKg+u/LMUv5eHvL19XCRn909n29R3hMONKJjbWlsPWlgUwpXfo7fbT5L01cco27vraYd6laKAJUBARAA7EKHOgES5kpT8bmshDVeAMK7a2h4pxIOgUv2X5KqzpqjsbJzCe+N/Nj3O+mXHefVZ5IM+XKwu0Wdg9epXgB5ujrR91vOSXAb1q6Wci6QvhrZUc5zVXF31DXyUAIBV/Ra1fKjrUrAvJqSSb/tvkh9mwRTmL8H1VIC6FtDWtDvT3Wn2Q+0V8JDM/n6ULy+TUOUn0MIfbz6pFRT54zqSCsm9JJ+lc/+vEcqr5WFf9Y8DYAX5fwwpgu9f08bik7IkN1y+BcLxr8gPNC1Dv2x9xJ9se4U+bg70/j5u6VSCFAZEAABwC481qu+8mGaSYt2Wd4YWKu+3dSo8P7Fd7ePoHQlMCzec5HWHruihIuaSqDoJBXCl3/dT19vMG5BtupILDUM9qY6Qcaehm7OTtSjYQ36aXsU+ajb1s19uDPVr+ktbVt2no1XgmW0hFUOBHe0DqflSmh9/feDRA4kQ9AfyzZt7eihbnVlbt/trcJokMnOJ1C8Gfe0VgJYZ/p9XA/qp4RB3j+Yt7y7EJ9OLyzcR28vOUzHLxuH3CsCD+W++/cRqRDzz/3RnvXkPG9ft/GVm68L7vz+4Z8zN+1e+kxPWTDUb8Y6+mT1CflaABUJARAA7AKvBL5DCUs84Z6HZi1x4GKi7Ckb7FN4eJUXhNzWMlT22+Ut1/o0CZbKIAe6p/o0oLeXHqEJC/bIkHDRFbg3K89lg9uGF+qR2FEJff8ejZWWLs/0ayTnRnevK82dlx2MoUFKGAzwcpXzUDb+nq7Us1HNQotieH7m8wMa0wrlNf5l53l6+NsdFrfrKYoD25HoJPp+y1lZ/PPjtijZj5iHd79Tgr6LEuo1PGRftDk371oz/9EuUp3k3Vn+franbG0445/jdOhSkvosgIrhoPxWsUa57WN8CKWRlJREfn5+lJiYSL6+vupZANCrE5eTafAnm+SD9pP728netzfy4NfbyMPVSYZoi+JWLcM+2yyrdff8X3/ydTcO5TGex8XHmaup9Me4HoVW6PKQ3r1fbqXZD3SQCpRm7bFYGq2Ejztah9Gn97dXzxKdjUuVVcfv3d2amoXhvzOVhYeFLyWm0x0fbaQQXzcK8nKjezpG0F3tI9RnFMYVuZ+2n6eFu85LOON9rxPSsmXIn/MlF+yclffG/V1q09QhLdU/VXq8CpznA/IvLzyXESoGPr9pLQJgOeANBGB9oq6m0eM/7CQ/5QP757Hd1LPX4w/4tlNX0pib6uVX5Ioa/sUW+ZCf/1hX9Uxh3ACaA6QleA7alD8P0bO3NKIwv4IdPaBqbT4ZR19uOE2Z2XmywIfne7YI95Uh+SDlFweeD8qrsSf+dkCmAPC8wq71AykpI4cCPV2osRLqeTifr+0/n0hTh7aQof/ymPb3Efp553n6TPnF4K/90dQo2Fu2CkxKz6ZHe9anUD9jhVobJrbntj+Wwuc3AmC54A0EYJ14kv2H/56gA1NulQqeORwUe/1vDX37cKf8YduiEpUPYP7Q5aFFsC38c527+Sx9veEMXUnJlMfZuQZZ7HMlOZOSlQDGizmqYv4lz0scMGu93OeVwtz3kX+x4LduVk4ejehUW1aCf73xNA1sFUaTB6FSWBJ8fiMAlgveQADWadvpqzTiy6207NmexQ6rLt0fTePm75YebbzKF4BXaH+k/OIQGeApCzq0xT1V4dVf91Owj1t+NZp/ceGq46drTkq1kVeKd6wbKFsW8spwXhwExcPnNwJgueANBGCduH1Ly8kr6J1hrYwrL82YtuwI/bX3Em2e2E89A6BPPH+RK5K+7s7yS8u6Y1foldub0gNd6hRb4bZ3+PymtVgFDAB2h1ff8urPvVHm9/Tl1bs/bo2iLvWD1DMA+sUr0HlOK8/9m/4f47D0//1xiEZ/u13mCpYFh8prqWVbDQ3WAQEQAOxSu9r+0uTZFG/Bxh+aY77bSd0aBElbFwBr4u3mLCvGf3y0C+1RfsG5/6utFJeSqV4luc+NqVceLrxrDeN5jmfiUmnmP8dk/mund1ZJb8qS8DxEDoxgXTAEXA4oIQNYr593RNGrvx2QhSD8ocmGfbaJ4lOz6Om+jeiudrWksgJgrXhbQW4txLuK3Nc5Un7h4T2ReatBxiGxu/KLzuqjsbI7DV/nhU3cpJzbEfGWhbzgZdmEnoXaHLEL19LoUkIGnbuaSv9dfkx2p/nkvnYUnZhBQd6u0neTt77jxSqmc2g5ZOphlTI+vzEHsFzwBgKwXrzKt8+MNTTx9maySwg3h2795j/05uAWsjE/gC3g9/kj3+1Qwlo61a/pRf9pHyHb4j2zYI+EsQ51AumbTWeoTaQ/DWgeIi1mejWuKfsTc4Ab+OEGaW3zkRLuwnzdKSMnl5YfjJE2OJk5efJ33NoiRPZTvqSEPw3/XaevpJKrkyPdqYTJluq2hptOxsnX4p1YqhM+vxEAywVvIADr9sbvB+n3PRdp9Yt96GhMEj00Zzuter4XNQwuaNAMYO046DHTytvmU3F0/1fb5D7/0jOqe125XxRvh/jMT3ukSbb6ZcRd7WvRk70bSJWcq308tLzsQLQ0PT91JYU2noij3k1qSpVw8Z4LdDYujSIDPShECZE7zsYrYTNUmmbzfMXbW4YW2iWlKuDzGwGwXPAGArBuPMm9z4y1dFuLUKrp4yZ79HLbFzTSBXvAjcd5W0Nudn4jiWnZtFQJd5zRuDLIIa5LvcBS/f+E5wjy03n4mfdcPhKdTLlKouSAydXHb0Z1pKAqbLeEz28EwHLBGwjA+vG+rZOVD8JwPw9qHeFHsx/soF4BgMrGAXDsDztlt5TOSqhsGOwtC7DaRvhLWORh456NalT4L2X4/EYALBe8gQCsH++1yvu/HrucTFMGNafRPW5cDQGAisX7XX+w6jhduJYuC0+4dQ03veYhYt5f+e9nelLz8Ir9jMXnNwJgueANBGAbeD4Ur5bknUF4PhMAVA/+hYxXIy87GENuzo4yR5C330MFsMIhAJYH3kAAtoN7mbkqHzgAYPvw+Y2dQAAABMIfANgT/BcPAAAAwM4gAAIAAADYGQRAAAAAADtjswFw2rRp1KlTJ/Lx8aHg4GAaOnQoHTt2TL1q1KdPH1lZZHo88cQT6lUAAAAA22SzAXDdunU0btw42rp1K61cuZKys7NpwIABlJqaqj7D6LHHHqPo6Oj8Y/r06eoVAAAAANtkswFw+fLlNHr0aGrRogW1adOG5s6dS1FRUbRr1y71GUaenp4UGhqaf6CdCwAAANg6u5kDyL1+WGBgoNxqfvzxR6pRowa1bNmSJk6cSGlpaeoVAAAAANtkF42g8/LyaPDgwZSQkEAbN25UzxJ9+eWXVKdOHQoPD6f9+/fTK6+8Qp07d6bffvtNfUZhmZmZcmi4kWRkZCQaQQMAAFgRNIK2k51AnnzySVq2bJmEv4iICPXs9VavXk39+vWjkydPUoMGDdSzBaZMmUJvvvmm+qgAAiAAAID1QAC0g51Axo8fT0uWLKE1a9bcMPyxLl26yC0HQHN4iJjfLNpx/vx59QoAAACA9bDZAGgwGCT8LV68WCp79erVU68Ub+/evXIbFhYmt0W5ubnJbwqmBwAAAIC1sdkAyC1g5s2bR/Pnz5degDExMXKkp6fL9VOnTtFbb70lq4LPnj1Lf/75J40cOZJ69epFrVu3lucAAAAA2CKbnQPITZ3N+fbbb6U9DA/fPvjgg3Tw4EHpDciLOYYNG0avv/66xZU9zCEAAACwPvj8tpNFIJWF3zj+/v4SJhEAAQAArIPWxYO7g3AQtEMIgOVx4cIFeQMBAACA9eECTkkLRG0UAmB5cH/BS5cuyRzD4oacy0r77QTVxcqF17lq4HWuGnidqwZe56pRma8zLxRNTk6WPsCOjnazJ4YpBEC94jc+5hdWPrzOVQOvc9XA61w18DpXDbzOlcr2+wACAAAAQGEIgAAAAAB2xmnKlCmjldu6xoegJ05OTtSnTx9ydnZWz0BlwOtcNfA6Vw28zlUDr3PVwOtcac5iDiAAAACAfcEcQAAAAAB7gwAIAAAAYGcQAAEAAADsDAIgAAAAgJ1BAKwmn376KdWtW5fc3d2pS5cutH37dvWKeQsXLqSmTZvK81u1akV///23egVKUprX+quvvqKePXtSQECAHLfcckuJPxswKu17WrNgwQLZSWfo0KHqGbiR0r7OvNfpuHHjKCwsjNzc3Khx48b474cFSvs6f/DBB9SkSRPy8PCQ3Suee+45ysjIUK+COevXr6dBgwbJbhz834Dff/9dvVK8tWvXUvv27eW93LBhQ5o7d656BUqNVwErB1Qh5QPP4Orqavjmm28Mhw4dMjz22GMGf39/w+XLl9VnFLZp0yaDk5OTYfr06YbDhw8bXn/9dYOLi4vhwIED6jOgOKV9re+//36D8h9+w549ewxHjhwxjB492uDn52e4cOGC+gwwp7Svs+bMmTOGWrVqGZTQbRgyZIh6FopT2tc5MzPT0LFjR8PAgQMNGzdulNdb+QA17N27V30GmFPa1/nHH380KIFEbvk1XrFihUEJ3AYlBKrPAHOUX0QMr732muG3334zcBxZvHixesW806dPGzw9PQ3PP/+8fBZ+/PHH8tm4fPly9RlQCmsQAKtB586dDcpv5OojgyE3N9eg/AZkmDZtmnqmsOHDhxvuuOMO9ZGR8hupYezYseojKE5pX+uicnJyDD4+PobvvvtOPQPmlOV15te2e/fuhq+//towatQoBEALlPZ1nj17tqF+/fqGrKws9QxYorSvMz+3b9++6iMjDik9evRQH0FJLAmAL7/8sqFFixbqI6MRI0YYbr31VvURlMIaDAFXMeU/xLRr1y4ZWtTwRtT8eMuWLeqZwvi86fOZ8oYv9vlgVJbXuqi0tDTKzs6mwMBA9QwUVdbXeerUqRQcHExjxoxRz8CNlOV1/vPPP6lbt24yBBwSEkItW7akd999l5RAoz4DiirL66z8IiN/RhsmPn36tAyzDxw4UB5DxeDX3/TnwvBZWHYIgFUsLi5O/uPL/zE2xY9jYmLUR4Xx+dI8H4zK8loX9corr8j8lKL/0YECZXmdN27cSHPmzJE5l2CZsrzOHEQWLVokf44DyRtvvEHvv/8+vf322+ozoKiyvM7333+//EJz0003kYuLCzVo0EB2r5g0aZL6DKgI/Pqb+7kkJSVRenq6egYshQAIUIz33ntPFigsXrxYJoJDxUhOTqaHHnpIwl+NGjXUs1AZ8vLypMr65ZdfUocOHWjEiBH02muv0eeff64+AyoCL0zgyupnn31Gu3fvpt9++42WLl1Kb731lvoMAP1BAKxi/IHHextevnxZPWPEj0NDQ9VHhfH50jwfjMryWmtmzJghAfCff/6h1q1bq2fBnNK+zqdOnaKzZ8/K6j/e35OP77//XoYr+T5fh+uV5f3MK3951S//OU2zZs2kksJDnXC9srzOXFnlX2oeffRR6dIwbNgwCYTTpk2TEA4Vg19/cz8XX19fWX0NpYMAWMVcXV3lN/F///1XPWP8LZ0f81wdc/i86fPZypUri30+GJXltWbTp0+X39yXL19OHTt2VM9CcUr7OnM7owMHDtDevXvzj8GDB9PNN98s97mFBlyvLO/nHj160MmTJwuFkOPHj0sw5K8H1yvL68xzhXmeoCktdBtkfQNUBH79TX8uDJ+F5cArQWQ9CFQZbjHALQPmzp0rS9kff/xxaTGg/FYu15XfJA2vvvqq3GfcBsbZ2dkwY8YMaU0yefJktIGxUGlf6/fee0/aPyxatMgQHR2dfyQnJ6vPAHNK+zoXhVXAlint6xwVFSWr2MePH284duyYYcmSJYbg4GDD22+/rT4DzCnt68z/TebX+aeffpJWJf/884+hQYMG0sEBisf/XeWWW3xwHJk5c6bcP3funFzn15hfa43WBuall16Sz0Ju2aUEbbSBKRu0gaku3L+odu3aEja45cDWrVvVKwZD79695QPR1C+//GJo3LixPJ+XwS9dulS9AiUpzWtdp04d+Q9R0YP/Aw83Vtr3tCkEQMuV9nXevHmztI3iQMMtYd555x1pwQM3VprXOTs72zBlyhQJfe7u7obIyEjDU089Zbh27Zr6DDBnzZo1Zv97q722fMuvtSn+M23btpWfC7+fv/32W/UKlNIaB/4f5QXvoxwAAAAAYPvWYg4gAAAAgJ1BAAQAAACwMwiAAAAAAHYGARAAAADAziAAAgAAANgZBEAAAAAAO4MACAAAAGBnEAABwGJTpkyhtm3bqo/KhvcBdnBwkG3fKsvcuXPJ399ffQTlcezYMdmDNTk5WT1TeocPH6aIiAhKTU1VzwBAdUMABLAh58+fp0ceeYTCw8NlT9M6derQs88+S1evXlWfYTkOab///rv6yOjFF1+8bi/O0uK9fqOjo6lly5bqGdCziRMn0tNPP00+Pj7ymAN8r169yMvLS275sak777yTfv31V/WRUfPmzalr1640c+ZM9QwAVDcEQAAbcfr0aerYsSOdOHGCfvrpJzp58iR9/vnn+ZvYx8fHq88sO29vbwoKClIflQ1vks8VJWdnZ/WMdTAYDJSTk6M+sg9RUVG0ZMkSGj16tHqG6IUXXqBatWpJBTcsLEx+KdD8/PPP5OjoSHfffbd6psDDDz9Ms2fPtrvXEECvEAABbMS4ceOk6vfPP/9Q7969qXbt2nT77bfTqlWr6OLFi/Taa6+pzySqW7cuvfXWW3TfffdJJYc/0D/99FP1qvE6GzZsmFQCtcdFh4A5GAwdOpTeffddCgkJkWHXqVOnyof8Sy+9RIGBgTL09+2336p/4vohYP4a/LjosXbtWrmemZkpIYO/R/5eu3Tpkn9Nw0O+/O/19PSU77mkiqf2PSxYsIC6d+9O7u7uUpFct26d+gySv4Ofs2zZMurQoQO5ubnRxo0b5ft55plnKDg4WP7cTTfdRDt27FD/lNGhQ4ekEubr6yuVs549e9KpU6fUq0Rff/01NWvWTP5806ZN6bPPPlOvEGVlZdH48eMlXPF1ruJOmzZNrnEI5Z8B/1v5++FKL38vmpJeq3PnztGgQYMoICBArrdo0YL+/vtv9er1fvnlF2rTpo18Pc2RI0do1KhR1KhRI/nZ8WOWkJBAr7/+eqH3kan+/fvLLyGmrzEAVCPeC1g5AMCKKYHHoIQVgxLE1DOFPfbYYwblQ9+Ql5cnj5VQYVCCiUEJFoZjx44ZPvroI4OTk5NBCY9yPTY2VjZl543Wo6Oj5TGbPHmyQQkEcp/xZu38dZTwaTh69Khhzpw58uduvfVWwzvvvGM4fvy4QQmaBhcXF8P58+flz5w5c0aes2fPHnmsBAf5O7Tj2WefNSjhSu6zRx991KCENMP69esNJ0+eNPzvf/8zKOFHvjbjTfodHR0N//3vf+Xf8uGHHxqUIGrw8/OT6+Zo34MSTg2LFi0yHD58WP4e/rfExcXJc7SN6lu3bi2vC//d/DorgcugBC+DEpwMStCT14BfW77GLly4YFCCr+Guu+4yKMFQvqdvvvlGXh82b948gxLuDL/++qvh9OnTcsvPV0KsXOd/X2RkpPx7laBq2LBhg2H+/PlybeHChQYlVMrfrYQ5w7Zt2wxffvmlXGMlvVZ33HGHQQlihv379xuUQGr466+/DEogk2vmDB482PDEE0+oj4zuvfdewwsvvGDIzc01TJgwQR4z/rtnzZol94ujBFJ5DwFAtVuDAAhgAzgEcVhZvHixeqawmTNnyvXLly/LYw6At912m9zXjBgxwnD77berjwxmv565AMhfi8OApkmTJoaePXuqjwyGnJwcg5eXl+Gnn36Sx0UDoCkOQ+7u7oaNGzfKYw45HEwvXrwojzX9+vUzTJw4Ue7fd999hoEDB8p9Df9bLAmA7733nnrGYMjOzpZAyEGSaQHw999/l8csJSVFwuyPP/6onjEYsrKyJBBOnz5dHvP3Va9ePTlvToMGDfIDnYZDcrdu3eT+008/bejbt29+WDf1/vvvGxo3bmz2a1vyWrVq1cowZcoUuW8J/llPnTpVfWTEAZeDJIdUvuXHHCI7duwoIfiee+6Rf//YsWMNmZmZ6p8yGjZsmGH06NHqIwCoRmswBAxgQ5T/U6v3SsbzAk3xY204rzR4GJHnfWl4KFgJGuoj45w/njcYGxurnjFPCYT00EMP0SeffEI9evSQcwcOHCAlXJISemT+oXbwMKI2pMrfMw91mir6byuO6fN4TiLPoSz6GvA5Df+dSlDM//6YEgipc+fO+X+Oh7Z5yJfPF8WrYPlrjBkzptC/5+23387/9/CwKn8NJUjL8C4P6WuUcEXp6elUv359euyxx0gJ6Plz6ix5rfjr8d/F378S5mn//v1yvjj8d/EwtCkeDuZ5gdr8wBo1atBTTz0l8035a/OQN68c5rmoX3zxhfqnjDw8PCgtLU19BADVCQEQwAY0bNhQ5qsVF+D4PM/7qlmzpnqm4hQNOvx9mDuXl5enPrpeTEwMDR48mB599FEJR5qUlBQJkLt27ZJQpB387/nwww/VZ1UunitXGhxyisP/HvbVV18V+vccPHiQtm7dKtfat29PZ86ckTmaHMCGDx9O//nPf+Qar6DmcMVzBvnv4eDFK3E5lFryWvHry4uFOGhzYORw+/HHH8s1czjcXbt2TX1kHs//HDBggMyT5PmGvACEf/533XXXdXM1eQ5gZbwHAaD0EAABbABX2HiSPQcDDg2mOFz9+OOPNGLECAliGi1waPgxL0zQ8Ic4V5QqW0ZGBg0ZMkQWQxRtE9KuXTv5Hrh6yCHX9OCVxIy/523btsl9TdF/W3FMn8eVNA5Ppq9BUQ0aNJCFNps2bVLPkIQvXgTCrU5Y69atacOGDXK+KK6O8sINDmFF/z316tVTn0WyeIR/XhwUeWUtt1XRVnFz8OOFHB999JEErC1btkiYs+S1Yhwin3jiCfrtt99kRS//HcXhr8k9/IrD4XL+/PkSVhn//dq/m2+Lvn846PLXBIDqhwAIYCN46JRXgd566620fv166Qm4fPlyCYY8bPfOO++ozzTiEDN9+nQ6fvy4rNxcuHCh9AzU8MpfbiHDAbKkKlB5jB07Vr5XDjRXrlyRv48PXg3Lw5kPPPAAjRw5UgILV8a2b98uq2KXLl0qf56HNfnfOWPGDBl25NeBH1uC/908jHr06FFZRc3/Tu6jWByuBj755JOywpn/Dg5HPBTLw5pa5ZJX8CYlJdG9995LO3fulO/phx9+kMode/PNN+X7538vv/Yc3niVtBZ++Zbb+PD3xNf558IBjldY82rnOXPmSJDiEDlv3jwJhLxS2JLXasKECbRixQq5tnv3blqzZs0NAy+/lzhgmvtFgKcbPP744zRr1qz8KikPLXOg5GD4/fffFxoq55XXvBr9lltuUc8AQLXiiYA8GxAArB+vGuWFGSEhIbJYgSfq86ICbWWrhhduKEFEJux7enoalIAhq2dN/fnnn4aGDRsanJ2d5fnM3CKQIUOGqI+MevfuLSt5TfGf11aIagswtEUgfI0fFz14EQbjBQ//93//Z1ACqfybeAUtLybglawaXn3MCziUMGQYNGiQQQmDFi0C4cUYnTt3Nri6uhqaN29uWL16tfqMgkUgSihUzxilp6fLa1qjRg1ZYauEHIMStNSrRvv27TMMGDBAXlteWcyLYk6dOqVeNcgikrZt28rfyyuIe/XqZVBCm1zjVb18jRfO8IpfXsShhDW5xotyeCUtn+frXbt2NaxatUqusZJeKyWcyiIU/r5r1qxpeOihh657b5jKzs6WBS5K2FXPFPj8888Nd999t/rIiBcZ8ffL/2Z+b6WmpqpXDLJCnVeHA4AurHHg/1H+I9dHOQDATnB1j6tBfNgjrkbxkCsvPDHtawjX4yqp8suAVA7Liqu53DeQh4tNq4IAUG3WYggYAACKxUP0vNCkPHsB84rhSZMmIfwB6AgCIAAAFIvb4/AuMtzepax4IQoHSQDQDwwBAwAAANgXDAEDAAAA2BsEQAAAAAA7gwAIAAAAYGcQAAEAAADsDAIgAAAAgJ1BAAQAAACwMwiAAAAAAHYGARAAAADAznAj6LnKbR3jQwAAAACwbXTu/wFTzOsWIIKYFgAAAABJRU5ErkJggg==;" vertex="1" parent="1">
          <mxGeometry x="230" width="640" height="480" as="geometry" />
        </mxCell>
        <mxCell id="AIBIiRVGQQcifbkvbrgu-2" value="" style="shape=image;verticalLabelPosition=bottom;labelBackgroundColor=default;verticalAlign=top;aspect=fixed;imageAspect=0;image=data:image/png,iVBORw0KGgoAAAANSUhEUgAAAokAAAHwCAYAAADKEvW1AAAAOXRFWHRTb2Z0d2FyZQBNYXRwbG90bGliIHZlcnNpb24zLjguNCwgaHR0cHM6Ly9tYXRwbG90bGliLm9yZy8fJSN1AAAACXBIWXMAAA9hAAAPYQGoP6dpAAEAAElEQVR4nOz9d5hk+V3fi79PqJzPqc455zSzCiiwSly8F+uxAJuLuPjuY0lIPIBkSTbIMliWDBbGhAeMhQwmCF2B4MpGAhnzQ3G1u+xqd6dzmDyzO6m7p7uqu7py1Qm/P1rf756qrhy7e74vPfOsZqpOqFOnznmfT3h/OF3XdTAYDAaDwWAwGAb4Zu8Ag8FgMBgMBuP0wUQig8FgMBgMBuMETCQyGAwGg8FgME7ARCKDwWAwGAwG4wRMJDIYDAaDwWAwTsBEIoPBYDAYDAbjBEwkMhgMBoPBYDBOwEQig8FgMBgMBuMETCQyGAwGg8FgME7ARCKDwWAwGAwG4wRMJDIYDAaDwWAwTsBEIoPBYDAYDAbjBEwkMhgMBoPBYDBOwEQig8FgMBgMBuMETCQyGAwGg8FgME7ARCKDwWAwGAwG4wRMJDIYDAaDwWAwTsBEIoPBYDAYDAbjBEwkMhgMBoPBYDBOwEQig8FgMBgMBuMETCQyGAwGg8FgME7ARCKDwWAwGAwG4wRMJDIYDAaDwWAwTsBEIoPBYDAYDAbjBEwkMhgMBoPBYDBOwEQig8FgMBgMBuMETCQyGAwGg8FgME7ARCKDwWAwGAwG4wRMJDIYDAaDwWAwTsBEIoPBYDAYDAbjBEwkMhgMBoPBYDBOwEQig8FgMBgMBuMETCQyGAwGg8FgME7ARCKDwWAwGAwG4wRMJDIYDAaDwWAwTsBEIoPBYDAYDAbjBEwkMhgMBoPBYDBOwEQig8FgMBgMBuMETCQyGAwGg8FgME7ARCKDwWAwGAwG4wRMJDIYDAaDwWAwTsBEIoPBYDAYDAbjBEwkMhgMBoPBYDBOwEQig8FgMBgMBuMETCQyGAwGg8FgME7ARCKDwWAwGAwG4wRMJDIYDAaDwWAwTsBEIoPBYDAYDAbjBEwkMhgMBqMouq5D1/Vm7waDwWggYrN3gMFgMBinDyIKdV2HqqpQVRXpdBpWqxVms7nZu8dgMBoAE4kMBoPBOCEK9/f34Xa7IQgCjSAqioJYLAaO42AymZq8xwwGo96wdDODwWA8gui6Dk3ToKoqUqkUkskkkskkUqkUFEXBpUuXkEqlwHEcBEEAz/NUMMZiMaTT6WZ/BAaDUWdYJJHBYDAeAbIjhZqm0QihruvgOA4cxwEAeJ6HruvgeR4cxyGVSiEQCCAej6OjowNXrlyBw+HA2NgYiygyGOcYJhIZDAbjHEIEoKZpGX/Ia9mi0EgqlQIA3LhxA6FQCJFIBE6nE4qi4OjoiIrMWCwGu93OhCKDcU5hIpHBYDDOAdWIwnQ6jYODAwQCARwcHODo6Ii+Njw8DEmSIIoiwuEwVlZWoOs63G43FYoOhwOiyG4nDMZ5g9OZpwGDwWCcSUhdYTFRSP5LUBQFBwcHCAaDCAQCODo6gt1uhyRJkGUZHo8HTz/9NN72trfRTmZN02jt4gsvvAC32435+XmoqgpBEJhQZDDOIewXzWAwGGeEfKKQkC9SqKrqCVFotVohSRL6+/shSRKsVit9v6IoOdcDAFarFS6XC5FIBLdu3cLg4CBUVUU0GmVCkcE4Z7BfM4PBYJxSiCjMbjbJjhBmRwpVVcXh4SGCwSCCwSAODw9hsVggSRJ6enogyzJsNlve7RLxmb1eowjt7e3FvXv3wPM8BgYGoCgKE4oMxjmD/ZIZDAbjlJBLFIZCIVy/fh2PPfYYTSFnizdN006IQpPJBEmS0NXVhZmZGdhsthPLFdoP4KRIJB3Puq7DYrFgYWEBS0tL4DgO/f39VCg6nU4IglCbg8JgMJoGE4kMBoPRJIpFCoFjARiPxzNSv0Q8ElF4cHAAURQhSRLa29sxNTUFu91esijMtV/ASZFo3D7P83A4HFhYWMDy8jKNLhpTz0woMhhnGyYSGQwGo0EYRSExsib/bkzl5orghUIhBAIBKgp5nockSWhtbcXExAQcDkfFojDXfgL5RaJxf51OJ+bn56lQ7O7uzkg9M6HIYJxdmEhkMBiMOkHMq42NJuTfjPWE2Q0iuq4jHA4jEAhgZ2cHiUQCL730EiRJgt/vx9jYGJxOZ81EYTaaphVcd3a00+VyYX5+HisrK+B5Hp2dnUwoMhjnACYSGQwGo0ZUIwojkUhGpFDTNEiSBJfLhWQyiccff7xuojDX58jV2Wx8PXtf3G435ubmsLKyAo7j0NHRwYQig3HGYSKRwWAwKqRUUZjdbKLrOqLRKBWFwWAQmqbB5/NBkiQMDg7C7XaD53ns7e3h4OCgYQKR7F+xSGIuEenxeDA7O4u1tTXwPI+2tjYoikINtwsJTwaDcfpgIpHBYDBKpJaiUFEUKgr7+/vh8XjyiqhGCkSyv4W2WSgd7fP5MDMzg/X1dXAch9bWVqTTaRpRZEKRwTg7MJHIYDAYecgWhbu7u3A4HNR42igIs0VhLBaj5tXBYBCpVAperxeyLKO3txder7ckwdSMoVilRBILvS5JEqanp7GxsQGe5+H3+5lQZDDOIEwkMhgMxvcoFCkEgBs3bmBwcDCnvUw8Hs8QhclkEh6PB7Iso7u7G16vt+K6vEZHEonFTT6K1SwCgCzLmJycxObmJqanpyHLMtLpNGKxGOx2OxOKDMYZgIlEBoPxyFJMFGZHCo0p5UQiQVPHgUAAiUQCbrcbsixjenoaXq+3JpNHikXt6kG1kURCS0tLhlCUJAnb29uwWCzo7u5mQpHBOOUwkchgMB4Z8olC8lq+9DEAJJNJpFIp3L17F9euXUMsFqOicHJyEj6fry7j6E5jurmYRY6R1tZWaJqGjY0NzM7OZhh/s4gig3G6YSKRwWCcW4gozJ5oQl4zisFssZJKpWikMBgMIhKJgOd5OJ1OjI+Pw+fzwWQyNeRznNVIIqG9vR26rmNtbQ0ejwdWqxWpVAoAamoCzmAwagsTiQwG49xQjShMp9MZojAcDsPpdEKSJIyMjMDn82FxcRFdXV1obW1t6GdqNLUWiQDQ0dEBTdNw7do12Gw2iKKIVCoFjuOqGiHIYDDqBxOJDAbjzFKNKFQUJUMUHh0dweFwQJIkDA0NwefzwWKxNPwz5aIZkcRcaWDj8a4kTdzV1YX79+9je3sbHR0dcDqdSCaTAMCEIoNxCmEikcFgnBmMIoXMPi5HFB4cHGSIQpvNRn0KJUmi1janiWY0rhSqOSw217kYVqsVNpsNKysrWFhYgMPhoKlnJhQZjNMFE4kMBuPUQgSJsdFE0zTcuHEDVqsV3d3deUWhqqoZojAUCsFqtUKSJPT29kKW5VMpCk8DRmGaTqdxcHCA/f19OBwOmmqvVMxpmobW1la4XC6srKzgwoULsNlsLKLIYJxCmEhkMBinhnyikLxGIoWJRAKCIGQIQ1VVcXh4SEXh4eEhLBYLJElCd3c3ZmdnYbfbm/K5qqHRkURFUXB0dIR4PI7nn38eoVAIDocDHo8H165dg6qqAKoTiRzHob+/H5qmYXl5GRcuXIDVakUymQTHcbDZbEwoMhinACYSGQxGU8m2pCGikJAvUqhpGg4ODqh59eHhIUwmEyRJQmdnJ2ZmZs6F2Ki3SNQ0DYeHhxnHURRFcByHvr4+moZXFAV+vx8bGxsATn4fpWKsZxwYGICu61heXsbCwgKsVisSiQQAnIvvjsE46zCRyGAwGkouUZg9+9j4X4KmaTg6OkIgEEAgEKCehZIkob29HZOTk8xOpQSMxzEYDOLg4ICK666uLszMzGB/fx+7u7vo7OzMWNbn82F8fBxbW1sIBAIVdXkb6x05jsPg4GBGRNFisTChyGCcEphIZDAYdYWIwuwOZKNQyGVeres6jo6O6ESTg4MD8DwPSZJgs9nQ2tqKycnJcy8iqo0k6rqOcDhMRWEwGKTHsbW1FRMTEznFdb5IodfrBQBcvnwZgiBAluWy98e4bo7jMDw8nCEUzWYzrVFkQpHBaB5MJDIYjJpSTBQCxwIklygMh8MZohAAJEmC3+/H6OgoXC4XOI7DxsYGzGbzIyEeyvVJ1HUd0Wg0Y460pmmQJIl6PpLjWGgdxbqbx8bG6BQVn89X8v7l6pzmOA6jo6O4cuUK7Xo2mUy0RtFqtT4S3zWDcdpgIpHBYFSFURQabWlKEYWRSCTDq9AoZoaHh+F2u3OKA47jmmIy3SyKCaRYLJYhCtPpNHw+HyRJwsDAANxud1k1hLlEIon2kkhge3s7NE3D2toa5ufn4fF4Sl53rn3hOA7j4+O4fPkyFYqiKNLUMxOKDEbjYSKRwWCUhVEURiIRiKIIQRAyhEU+UUgiXOSPqqrwer2QZbksMfMoicRcnzORSGSIwkQiAa/XC0mS0NPTA4/HA0EQqtpmPkFmjAR2dnZC0zSsrq5iYWEBLper6Lo1Tcv7HXMch4mJCWxublKhyPM8E4oMRpNgIpHBYBTEaF5tbDTRdR0rKyvo6+tDR0fHiRu/rus0wkX+pNNpKgr7+vrg8Xgq7pJ9lNB1HTs7O1QURqNRuN1uyLKMyclJ+Hw+iGLtLue5hFy2aTmhu7sbqqpSz0OHw1H0sxQSehzHYXJykgrF+fl5JhQZjCbBRCKDwcigkCg0NpvwPE+FBPn3bFGYTCYzIlxer7cmovC8RxLJyMBAIICdnR0kk0kkEgnIsoyxsTH4fD6YTKa6bb9YTWL2a319fVBVlTaeFPKjLDTNhcDzPKamprCxsYHV1VXMz89Tf0yO42CxWJhQZDAaABOJDMYjTqmiMFcHsqZpVMwEAgEkk0l4PB5IkoSZmRl4vd6q0p7F9vu8QKbDkEghGRkoyzIkSYKiKLh48WLD9ieXEMwXSSQMDAxkdCjbbLa86y7lQYHneUxPT2NtbQ2rq6uYm5tDNBrF1tYWHnvssUemcYnBaCZMJDIYjxjViEJSC0f+xGIxpFIptLe3Y2pqquZpz3yc9UgiMbAmAptMh5Fl+cTIwNu3byMUCjV0/4rVJOZrPBkaGspIPVsslpzLlyrueJ7HzMwM1tbWsLa2ht7eXkQiEcRiMQBgQpHBqDNMJDIY55xCohDIFITZN9xkMpkhCkktnCRJmJiYwO3bt9He3o7e3t6GfiaO405MZjnNEANro72PKIolTYdphhguN91MMFrZGD0PjcuWGkkkCIKA2dlZrKys4NatW7QpigjFXEKUwWDUBiYSGYxzRjWiMJVKZYjCSCQCl8sFSZJy1sLduXPnTEf06gXp/CZp+IODA3AcV9TAOh+NjpYVivaV0ngyPj6e0aFMzhlyrpRblyoIAubm5vDSSy8hlUpl1MByHJchRBkMRu1gIpHBOOPkE4XktUKiMJ1OZ9TChcNhOJ1O6lMoSVLBGzDP800Riact3VzMwLqQ52Mp6260SNR1/UQtKdmHUiKBpEPZ2HgiimLGg0q5iKKIvr4+XLt2DZubm5iamgIARKNRAGBCkcGoA0wkMhhnjGxRGIvF8PDhQ/T09GSIQuBkxEZRlBMNEg6HA5IkYXBwEJIklZW+a5ZYOw0iMR6P0+MYCAQy7H36+/vPtL1PJY0r2WQ3nszPz9MSgUqPC8dxcDqdiMfj2NrawsTEBABk1CgyGIzawUQig3HKIaIwe8wdeS0ej+PWrVvo7e3NKQoPDw9PdM1KkoT+/n5IkkQbJCrhNIi1RpFIJJBKpXDnzh1cvXoViUQCHo8Hsixjdna2bp3czYoklmKmXQzSeLK6uoq1tTUq6ir9PJqmQRRFTE5OYnl5GVevXsX4+Dh9WAKYUGQwagkTiQzGKaOYKMyOFIqiSG/cqqpmdM2GQqGMrllJkvJak1RCsxpIGiFOjfWZgUAA0WgUgiDA5XLVxcA6H80QidXUJGZjbDy5fPkygOpEIs/zMJvNmJ+fp0JxbGyMCkWO4+rqIclgPEowkchgNJlyRaERTdMQDoehKApeeOEFHB4ewmw2Q5ZldHd3Y3Z2tqCxcbWcp5pEYmBNRCGpz5RlGaOjo5AkCZcuXUJnZydaWlpquu3TRnbdobHxqRLRKooi5ubmsLi4WPE6svfLYrFgYWEBS0tLuH79OkZGRqhQtNvtTCgyGDWAiUQGo8EYRaGmaVBVtSxRGAqFMvz1SENAZ2cnpqenYbfbGxZ5OsvpZmJgTY6lMRVfSX1mvTiN6eZKagpNJhPGx8extLSEK1euYGJiouzPlR3hNApFjuMwPDzMhCKDUUOYSGQw6gwRUcbuY5KiLUUUGv31Dg8PIQgCJElCe3s7JicnwfM8nn76aXR3dzdcTJylxhUisIktDTGwliSpLqn4WnFafBKriSQSBEGAIAgIhUK4du0aRkdHy1pXLoFqtVqpUOR5HoODg0woMhg1golEBqMOZFvSlCoKdV2nopD84Xme+uuNj4/D6XRm3FiTyWTGuhvJaa5JJMfSKAqJwG5G1LUamhFJ1HWdHjuSfh8eHq7qPCPWOkTU3bhxA8PDwyWvL18U02azZQjFgYEBqKqKWCwGh8PRkNpRBuM8wn45DEYNyCcKCYVEYTgczhCFAODz+SDLMkZGRuByuQreRMk6K00DVgPP81BVtaHbzIfRwNp4LAsJ7LNAoyKJJGpNzL/39vZofWtPTw84jsPW1hb8fn9VjSccx8FqtWJ+fh5LS0sQBAGDg4MlL5/vHLfb7RlCsa+vD4qiIBqNMqHIYFQI+9UwGBVARKGx2WR1dRXj4+OwWCwZM5Czl4tEIhmiUNM0KgqHhobKNl02isRG08x0s6ZpiEajGaJQVdWqjuVppR6fodBUGLPZjP7+fgwODtLvOJ1OU99Dt9td8TbJ+Zot6vr7+0tavpDNkMPhyFhnT08PE4oMRhWwXwyDUQK5RKEx7cZxHPb29jAyMnKiK5RM4iB/FEWBz+eDJEkYGBiA2+2uKgL4KIlEYmD94MEDRCIR7O/vUwPrvr6+M21gnY9alhHEYjEqCrNFtXEqzIsvvgir1Xpiu5IkoaWlBXt7ewgGg5AkqaztZ0cCHQ4HtbIRBAE9PT1Fly92LJxOJxYWFrC8vAyO49Dd3c2EIoNRIezXwmDkoJgoBI7FmfHvgiBAURR6IyaikEzikCSpLkKG1Dg2QyTyPF/X7SaTyYypJsTA2mQywe124zWveU1dDKxPE9WIxFzHj5yLvb298Hq9Oc/FQtu02+1wu91YX1/H3NwcvF5vVZ/F5XJRocjzPLq6uvIuX2pJRfY6Ozs7qVB0Op3n/pxhMGoFE4kMBjJFIbGlIf9urCfMdeMk0S1VVbG0tJQhCru7u+s2icNIvcVaPmodSUylUhljAyORCNxuNyRJyjCwvnPnDvb29h6Zm32pItE4izsQCOQ9fsUoJBJ1XYfD4UBbWxvW1tawsLAAl8tV0v7liwS63W7Mzc1hdXUVgiCgvb097/KlPmAZ18lxHDo6OnD//n3wPI/h4eFH5txhMKqBiUTGI0n2/GMiELNTyLluSIlEIiNSSKJbpK6qr6+v4TegsyoSc82SdjqdkCQJIyMj8Pl8j/yYtULHl0zYIaKQeD2S9DGpL6xkm4VEIs/z6O7uhqqqWFlZwYULF+BwOIqut5DI83q9mJmZwfr6OnieR2tra1nL51vn7Ows1tbWwPM8otEoOI6jqWcmFBmMwjCRyHgkqEYUGlN2wWAQ8Xg8Z3Tm2WefbVoq66yIRKOoCQaDCIVC1MB6YGCgZAPrs2ziXQnkHDV2IBNbH5PJRMcuyrJc1SxuQiExZowG9vX1QVVVLC8v4+LFi0V9JoulziVJwtTUFDY2NsDzPPx+f8n7lQ+fz0fFp8vlgtfrzahRZEKRwcgPE4mMc0mpotDoWUggM3uJkIlGo1QUjo+PQ5KknCk7QRCaZgdzWmsSjQbWwWAwQ9R0d3djbm6uIgPrR0Uk6rqOVCqFWCyGxcXFDN9MYqbucDhq3v1czEzbKNQGBgagKAoVioVEfikiz+/3Y3JyEpubm5iZmclojqnU5omIz7W1NVitVoiiyIQig1ECTCQyzgXVisLsOjiXywVJkujM3lKmNjQrmtfMbWeLNaMZOLFV4Xkesiyjvb0dU1NTZ8bAullkdyCn02lYrVb09vZmdCDXk2LpZuNrHMdhZGSERhQvXLiQN8WdLTDz0draClVVTzTHlLp8Lvx+P9xuN3Z3d9Ha2gpZlmmjmcPhOHdd8QxGLWAikXEmySUKFUXBiy++iMceewwmkymvKDQW9weDQYTDYVoHV00dVzMjiTzPNy2ylk6n8fLLL58wsPb7/RgbG6uLgfV5iiSScgZyPpIOZJJCvnfvHux2OwYGBhq2T+WIROD4+xgfH8fm5iatUcwVbS+nU7ujo4P6jy4sLMDtdpdkgVMIk8mEjo4OGqX0+XxIp9M0osiEIoORCROJjDNBoUghcHyTEgQB4XD4RLSBNEeQ6NbR0RHsdjtkWcbg4GDJdXDFEATh3EcSdV1HLBajx3J/fx+KosBkMkGSpIYaWJ9VkZhOpzPKGUgHsizLOTuQ79271/DIayExli/ly3EcJicnsb6+jtXVVczPz59I45abLu7q6oKmaVR4VjtVSFVVeDweeL1erK+vY3Z2Fl6vlwlFBiMPTCQyTiWliMJckUKe55FMJulUEyIKrVYrZFlGf38/JEmqSXF/Ns0cUVdPkRiPxzNETTKZpJEuh8OB/f19PPbYY3XZdj7OUrpaVdWMyHUoFILD4ai6A7meFErrFooG8jyP6elprK6uYm1tDbOzsxlCsZJIYE9PD01l52suKxUiMtva2qBpGtbW1jA3NwePx4N0Oo1YLAa73c6EIoPxPZhIZJwK8olC8lo+UQi82jEbDAah6zq++93vwmKxUMNgSZIqao4ol/MSSUwmkxmikHRzy7KMmZmZDN/HnZ0d7O/v12S75XCa082kWYccw8PDQ5jNZno+ltuBXMuJK7XYZrH9EQQBs7OzWFlZwebmJqanp6noqrSmsL+/H6qq4pVXXkE6nS57eYIxEtnZ2Qld12k62+VyIZVKAQATigzG92AikdEUiCjMnmhCXjOKweyLtaZpVBQaO2ZJ1/HExAQ6OjoafmM9q5HEfOnPYt3cwOkWa40iewZydgdytc06zTi+pfgkFkIURczNzWFpaQmXL1/G5OQk7cCv9DgMDg7i7t27uHbtGtxud0XZgOx0tTGdvbCwAKfTyYQig2GAiURGQ6hWFJLITDAYxMHBAURRhCRJ6OjoyLgJP/vss7RppdE0u3GlVJGYq0az0vRns6x3milOSV1mvhnIIyMjcLlcNT0Hmx1JNDoFlBrZNJlMmJ+fx9LSEq5du4bR0dGqupPJNr1eL+2iLreWWNO0E3WSPT090HWdCkWHw0GFYj3shRiMswQTiYy6UK0oJDYqRBSSyExbWxsmJibyXrybLdTIzaUZ284n1ozp+EAggFAoVLMazWaJtUZvN5FIIBgMIhaLYWtrC4qi0LrMeszjNnLaIonlRAMtFgsWFhawuLhIf5uljAUstF8DAwN45ZVXqKgrp54zX+NLb28vNE2j4tNutyOVSoHjOGbZxHikYSKRUROqEYVGbz0iCjmOg8/nK9tGRRAEKIpS+w9YAqfFTDtXTZzRwHp2dhZ2u70m222m9U49yZeC5zgO3d3dGBwcrErslEszupsraVzJhdVqxcLCApaWlmCxWCDLckX7RK4vgiBQux3SRV2KjylQ+HP19/dnCEWr1YpkMgkATCgyHlmYSGRUTHajiaZp2N7eRjAYxNTUVEFRSGq4iCjUdR0+n4/O7K00XdfsSGIzUq+6rkNRFHossw2s6zWVAzg/kcRSO5Cff/55uN3uhgrE09K4Qv5eyf7Y7XbMz8/jpZdeKlnQZUN+WzzPg+d5TE1NZdjtlPKdFLPQGRgYyBCKFoslo0aRCUXGowYTiYyKISPDjJFCXdcRj8czLsS6riMajWbMP9Y0jYrCoaEhuFyumqTrmikSG7VtIrKNU00URYHNZkNvb2/dDKxz0ayaRKC6NGz2uMCDgwMa5arlDORa0GgRbrSZyv538iBUyW/V6XTC5/Ph8PAQDx48QGdnZ1nLG0Ui+e/09DTW1taolU2h8XrkobbQvnMch6GhoQyhaDabWUSR8cjCRCKjKrJ9y0wmEzWmNYpCRVGoKOzv769bDZcoik0VifUQTNkG1sbjSQzBHzx4AJ7n0d/fX/PtF6JZ6eZyb9S6riMcDmeck2dpXGAj98soEomYJqbpg4ODVUU2BUFAR0cHrl+/DkEQ0NbWVvZ+Ga8bRrsdYo6d77qSLTLzQcYM6rqOpaUlXLx4ESaTCclkEhzHwWazndrzhMGoNUwkMiomO3oYDAbx4MEDRCIR/MM//AO8Xi/1hvN6vQ2xk2h2urlW204kEhnds0YD61zHc3d3tymf+7Smm40dyERca5oGSZKqLmloNI08vrquIxQKAQDW1tZweHgIQRAgSRJCoRBSqVRVNja6rsPhcGB6ehrr6+sQBAF+v7+kZYnIy962IAiYm5vD8vIyNjY2MnwZcy1fynWI4ziMjo7iypUrWF5exsLCAkwmEw4ODhCLxSDL8pk4dxiMamEikVExuq5jfX0dgUCAihi73Y6joyO89a1vLZj6qReCIDStw7iaSCIxsCaCxmhgPT09DZ/PV/B48jxflclwpZwmn0TSgUzEtVFY17sDud7UU5DE43F6zAKBAH3YID6ZTqeTNpetrKxU1RhGBCYZQbi5uYnZ2Vn4fL6Sl811LERRxPz8PJaXlzN8GbOXB0oTicCr86gvX75MO6m3t7cBHKedWUSR8SjARCKjYnieh9PpREdHBxUxkUgEOzs7TRGIwNmJJJLuWSJqIpEIXC4XvTH7fL6yCvyb1TTTzEiipmnY3d2l4iYajZYlrM8KtW5cSaVSGWI6Ho/D4/FAlmX09PTAbrfjqaeeQn9/Pz1+uq7DarVifn4e3/3ud7G3t1dyBNCIsSawtbUVqqpibW0N8/Pz8Hg8JS+bC6Mv45UrVzA+Pp5x3IjILOdBgQjFra0trKyswOl0ZtQoMqHIOO8wkcioClKjRCA1gZUWt1dLsxtX8gm1WhpY56JZIrGR2zV2IO/u7iIej+PatWuQZRmjo6OQJKniztnzjPG4kXPP6XRCluWcE3WIAMolfux2O0wmEx4+fAiXy4Xu7u6y9iVb8HZ0dEBRFKyuruLChQtwOp15ly3lmmI2m6kv4/Xr1zEyMkK3V+k1ied5GvXc399HV1cXnRHPcRysVisTioxzCxOJjJpCbjaqqjZFJDazccUYScxnYE0ad6oxsM7FeZx8YuxAJn6PpAO5vb0dDx48wJvf/Oa6bPs0UW4kkZjRk+Nm7Nzu7++HLMsFJ5Xk624mcByH4eFh3LhxA6Ioor29vazPkn1d6OnpgaqqWF5exsWLF/N6eJYq8oiB99LSEniex9DQEP19VHpNIpY7zz33HHZ2dtDX1wee55FIJACACUXGuYWJREZVZIsEkp5SFKUpUZ1mRRI1TUM0GoWqqnjppZdwcHBA50nX2sA6F81MNwO1SYkW6kDu6OjA9PQ07UA+ODjAgwcPavERTj3Fjq3RYoocO47jKp4dXaj2j2zP5XLR5hNRFMtqPskl1Pr6+qAoCrWdsdlsJS+bC5vNRoWiIAgYGBio+sGVlNckEgnqzchxHBOKjHMNE4mMmsJxHERRPPdTT3IJGiKYW1tbC44OrAfNTDcDlYnE89SB3GiM3e+BQADpdJpaIg0NDdHpMJVQiigl4r3c5pN86yb+hKqqYmVlJedc5nLnPhMD7+XlZfA8XxMvVk3T0NPTg93dXaytrWF2dpYJRca5holERs1ptkisx7bzGYJLkgRZljEyMgKLxYJvf/vb6O7ubnjDRLP9CkuN8hBxQ0RhMpmk4qacDuTT1FVdb4gJdHaTDmk2mZ2dhdfrrdk5V0wkGi1wWltboSgK1tbWsLCwALfbXXDdhc4TYjtDuokvXLiQkY2oxHrH6XRSodja2loTkWgymTA7O4vV1VWsr69jZmaGCkWO42CxWJhQZJwbmEhkVEU+O4pmicRa1SQS70ejoDEagg8MDMDtdmfcdMhnVlW1KSKx2enmXJBOWnIMibiRJKmqDuTzLhJJTWsgEEA4HMbGxgZtdKp3k04pkUTj652dnRnNJw6HI++yxYQe6Sbe3NyktjOkzrnSmkKXy0V9FKtpDgNerbUWRRFzc3NYWVnBxsYGZmZmABzbCXEcB7PZzIQi41zARCKj5jS7w7jSbeeKchFD8J6enqKG4ETsnPcuYyPZIjFXF7fT6YQkSawDuQDEh9DYbGIymSDLMsxmMwYGBtDb29uwfSlUj5jr9d7eXiiKQiOAuWoKyfLFhB5pEsket1dN44nH40FPTw9eeeUV7O7uljXpxYimafR3bhSKm5ubmJqaAgDEYjEAYEKRcS5gIpFRc5qdblZVtaQauWy/uFgslhHl8nq9GdYgxSDF/s0QyM0SiUQc3rp1C6FQKKMDuR5d3ISzHkk01mOSBxNd1yFJ0oma1ueee65gN3I99q0UIZfNwMBAhlDMtc+lpox5nsfMzEzGuL1qbbVsNhucTicuX74MnufR0tJS9jqym1+IN+Py8jK2trYwNTUFTdOoUGzk98Zg1AMmEhlVcdrSzcZoXnYaM51OU7+4YDCIcDhclYF1vu2f50iisWGHRLwAIBqNorOzEzMzMw0xGD6LIjGZTGY0mxjrMXOVLzSLQkIu32g88m8jIyNIp9M5awqB8ppPjOP2Njc3qx7tqWkarFYrBgYGsLm5iZmZGciyXPY6sq8rRqF4+fJlTExMMKHIODcwkcioOadBJCqKAl3XaV1XMBhEKBSCw+GAJEkYGhqq2sA63/bPUyQxV8SLNOz4/X6MjY3hH/7hHzAxMVFXi5+ziKIoGZHqSCRS0USYWk9cqXR7JNUMFPZQnJiYwMbGBlZXV7GwsJDxGcttPiEp3eXlZSQSiaqi0iQK2NLSQvex1K7s7HVkYzabT0x7IUKR1CgyGGcRJhIZNadZIlHTNBweHgIAFhcXEQ6Haeqzr6+vbqlPI+WM5qv1dmslEo32KsFgMCPi1d/ff6IDuRmp7tMYSSTnHzl2oVAINput6qk6jf6cuUQi2YdiIhF4taZwdXWV1hSS7vtybWyAVwXYCy+8QB/+KhHNxnR1W1tbWSMBgVdFcj5hbzTxvnbtGkZHR6GqakaNIoNx1mAikVEV+dLNZLRXPTFOlggGg7TYn+M4tLS0YH5+vuGzVZuVbq5m4kq+DuRSI16nUbA1Al3XEYlEsL+/T4+fIAh1MVA/DZFE8hqQuybRiCAImJ2dpali0tRRyrK5sFgsaGtrw/b2Nm7duoWhoaGy15GdKu7s7ISmaTTi6XK5Ci5PHv4K7b/Vaj0x7cWYemZCkXHWYCKRUXNEUUQ0Gq35evNN5Mgu9n/qqafQ0tLSlPTnWYgkkg5kchyNs3wr6UBuhkdjs4SppmkIBALY2dlBMBiEqqrUK3N0dBROp7Pmgq7RnzNXSricSCLBmCq+evUqRkZGSl42F4IgwO/348GDBxAEAf39/WUtn6vxpbu7G5qmUbudYrOjgeIil0x7ISbeAwMDGaln1t3POEswkcioObWqyyMG1iTCZayHKzSRo9kWPM1qXMlnT2JMgwaDQRweHsJqtZY8y7cYzRBsjdpmrg54TdPQ3t5elvl3tTQ6kpjvMxVqXMkFSRUvLi7i5s2bZS2ba9sWi4U2iYiiiO7u7rKWz+VW0NvbmzHpJd/DZSmRRIJx2gvHcXQsYCwWg91uZ0KRcWZgIpFRFbXubo7FYhmikIwby2dgnYtmisRmRhKBVyM9R0dH9DgeHBzQNCjpQK5llPU8pZtVVaVRVqPPoyzLGB8fx40bNzA4OIj29vaG7dNpaVypdF+IsFtcXARQWbqZbFsQBGqOvbKyAkEQ0NHRUdLyhSx0+vv7oapqSbOjS/38DocjYyxgX18fYrEY7t69i7GxMSYUGWcCJhIZNacckZhIJDJEYSKRoAbW3d3dFY0bq9dovlK33WiRSKbDAMDKygoODg5OdCDXIw1KqKYesppt1kKYGutaiaA2+jxmR1lJNOw8U0wkViLy7HY7Jicnsbq6ivv376Onp6fsdRjT4B6PBzMzM1hfX4cgCGhtbS1p+UIjAUn94PLyMi5evHgiup7L/qYYxrGAZH703bt30dPTwyKKjDMBE4mMqig3kmhM3wWDQUSjUWoLMjk5CZ/PV5aBdS5qNZqvEhrV6WvsQA4EAkin0wCOb0qDg4MN9dxrVk0iUH5kyziDm5yDHMdBkiS0t7djamoKdrv9VE3KaGYk0TgJxuVylRVJy4ZE527dugVRFEuOABKyRZ4kSZiamsLGxgYEQSjqeZjPvoZAfB6NEUVjo0mx5fPhcrkwPz+PlZUVtLW10ZKUWCwGh8NR9fWOwagn7Oxk1ByjSMxlYF1Nk0QpNLsmsR7bzq6Ni8fjVFzPzs7C4/HgG9/4Bnp7e+tu85PNaU835xLUxNJnaGgIbrf7VInCbBotEhOJBFKpFFZWVhAIBKBpGtxuN27duoXR0dGK94Wki2dmZrC2tgZRFMuaepIrEuj3+zE+Pl6S52EpE1vI7OitrS3azEKuT5VEEglut5s28ZhMJprtiEajTCgyTjXszGRUjVEkqKqKcDiMdDqN559/HqFQCHa7HbIsY3BwEJIk1X0CQbNrEmsRSSzUgZxvOkwz0r5ku6cpkphOpzMEtdHSZ3Z2tqIShvNMOp3OENGxWIxG+khzjqZpuHnzJq5du1aVSCRR28nJSWxubmJubq5kM+t8Iq+9vR2apmFtbQ0LCwtwu91lLZ8NMQTf3NykQpFkJ6qJzns8HvT29uLll1/Gzs4O2tvbmVBknHrYWcmomoODA+zt7dHOWZKi6e7uxsLCQsMjW2exJrEWHcjNmt/cLDNtgqqqJ0ysHQ5HXaPVjaTWkURN0zKac0KhUMYDCHEUGB4ezlimt7cX0WgUDx8+RDKZLPthzyjSWltbqZl1IWGXb/lsOjs7M+ZG57KyKScSSAzB19bWsLq6ivn5+aoiiQSLxQKXy0XFdltbGxOKjFMNOyMZVfPyyy8DAO2cNZvN+MY3voG2trammMc2O5JYikAltV7ZHciyLKOrq6uiDuRmicRGRxLJsQOAS5cu4fDwECaTCbIso7e3F7IsN/zB5DSTPW87GAwWPF6vvPJKTp9EjuPQ0dGBQCBADajLEd/ZYrejo6OosMtevlAkr5iVTamRRALP85iZmaGTY1paWqqu81VVFVarFYODg9jY2KBjAolQdDqdLMrNOFUwkciomgsXLmSIE3IzUBSlKSJRFEXa7dto8gnUXJ6Puq7XtAP5vIrEXPOjyfZaWlowOTkJh8NxqusKq6GSSGI8Hs9IIRPT71LOtWLbM5vNsFgsdKRdqaIml0jr6elBOp3GysoKLl68mNN6ptDy2fT392cIT6P4LVckAq9OjllZWcH9+/erfvggKWtZlmnTzdTUFPx+P1RVpRFFJhQZpwUmEhk1h+O4ps1vBpofSSRCLR6PZ9TGVeL5WA7NaiCpx3aTyWSGyDHOjx4YGIDNZsO3v/1t9PT0nPsUXSkiMbsOMxaL0TrMnp4eeL3eks+1UixwpqensbKygo2NDczMzJS07lyTXABgYGAAiqLktZ4ptrwRjuMwPDycEVEkD6qV1hSKooj5+Xl897vfhaIoFYlN42cgAtDv92Nqagqbm5uYmZmBJElMKDJOHef76spoCLU21K6WZonEVCqFaDSKUCiEp59++kQHcr0bJs5yTaKiKBkiJxKJ0GOXa340ObdOc1d1PTHWsJK6QtIgVm0dZiERRESicTbz5cuXMTk5WVTA5UsXE+sZYwQw176X03gyNjZ2okO5GnEniiLa29vx4MEDXLlyBRMTExVFrlVVzTiPW1paMDExQcW2z+fLqFFkQpHRbJhIZNSFZovERmzb2IEcCAQQDodhtVqh6zrGx8chSVJDo1xnKd2cS+TYbDbIsozh4WFIklSwVMHY3XzeIZ8xu66Q1LB2d3djbm6uYKq23O1lC6Bc3eQmkwlzc3NYWlrC9evXMTIyUlA4FYoEEuuZjY0N2iiS/dspR+SRDmXj+qoRiQS/34+joyNcvXoVY2NjZQtFVVVPRErb2tqg6zrW19fpwyQTiozTAhOJjLrQbJFYj0hiLmFDOpCJvU8wGMTLL79c0gSIWnOaRWJ284SxUafWIue8QPwdVVXFSy+9ROsKSbSwXlN0colE8v1mCz3jyD2TyYSBgYGC6y0k0owdxUQwGQVSJY0nZH1ra2tVW9homgaTyYT5+fmShXE22ZFEgtHGZ35+Hm63G4qiUMPtRhnjMxjZMJHIqJrzmm42TpsgwkYURSpsZmdnT3RQkmkKzaCZIjHXdrObTcppnihlm8D5iiTmSrl7PB4AwNjYGDo7OxsiFgpF/HIJSJvNRoWTyWRCd3d32eslELPtlZUVbG5uYnp6OmMueSWNJ2R9QO5rVamQKKDVasXCwgKWlpYgCAKGhoZKXkcxGx9N02jk0+VyIZ1O04giE4qMZsBEIqMuNLN5pNKxfMaRbcFgMKMDubW1FePj40WFDc/zp6JpptHb1XWdToXZ399HIBCgc7hlWaamzLW60Z0HkahpGkKhEBWFh4eHGSl3WZZhMpnwta99razGk2op1riS6zWn04m5uTmsrKzAZDKhra0t57KlfAZRFGka21j/V4rIzLe+mZkZ/MM//AOuX7+OmZmZitZjFHhGYSwIAvr7+0taR75IIqG7uxu6rtNaSqfTyYQio6kwkcioC2clkkisQkgExziyrZIO5EcpkqiqKh21eHBwgKtXr8LlctGJGrWYw32eMD6E7O/vIxgMUjsU4jGazxuz0bObjee8rutUjBcSeh6PB9PT01hfX6cRdyPliDyS1l1cXKRp3WpqCslysVgMV65cwfj4eNnHNNtM2+FwZEQUe3p6iq6jmEgEjm2BNE2jQtHhcCCdTiMWi8FutzOhyGgo7ArOqJrTmG7Ot+1UKpUhCuPxeE1HtjUzkljvsXwk8kWihYeHh7BYLOB5Hj6fDxMTE3UfuUg4K5FEYuVDoqvkIcTv92NkZAQul6ukruBmikQjxYQemdqysbGB+fl5mi4vtt5cWCwWLCwsYHFxEaIoVpRuNu43ADo/+caNGxgeHi67njB7+06nE/Pz81hZWQHP8+jq6iq6jlKuL319fdA0DcvLy9QYPJVKAQATioyGwkQioy4029Ba13VomgZN02jqmHQgk2hXPTqQz1MkkUS+SNQrGAyC4zjIsoyOjg7MzMzAZrNhY2MDVqu1YQIxex9PE6TjnYhCo5XPWZkbXUm62QiZSby6upoxSaWSdLExrQugYnGkqio4jjuRJh4cHCx5HfnG8rndbszOzmJ1dRU8z6Ojo6PgfpT6/Q8MDGQIRZvNxoQio+EwkcioC82KJGqaRke2vfDCCzg6OoLNZoMkSbQDuZ5ihkQSGx39IduuViSSjtpsA3C/34+hoSG43e6c9ijNMvFuNuR8I9FC48ztUqx8SqEZkcRqRCJwXFuXPUml0nSx0+nE1NQUVldX8fDhw7yNMYUwbttut9M0sSiK6O3tLWkdhbqjvV4vZmZmsL6+DkEQ8roblHsMBgcHoes6FYpWqxXBYBChUAgdHR1MKDLqDhOJjKppZro5XwcycBzRmJ+fb6i1CokSnBWRmGtShzHy5fP5it6ISONKo2mGONV1HYlEAnfu3KERVo7jIEkSja6WO3O72PaAxgriQkKmHJHT39+fIRSr+U24XC4AwI0bN2CxWNDS0lLW8tn77XA4aKONIAhF08RkHYWigJIk0VF7PM/D7/efeE85kUTg+HsfGhrKiCiShzev1wu73X4qHpYY5xcmEhl1oV4i0Vj8T2oLAdAO5ImJCTgcDnz9619Ha2trw733yA2gWk+2SihFrKmqesLr0eFwQJZljI2NwefzlT2po1mRxEZB6lj39/cRDodx9erVotHVs0w+MUe+51I/K5mkQoRiNR3a5OFncnISW1tbdIxdOctnb9uYJhYEAe3t7QXXUcpv2u/3Y3JyMmPUHkHX9bJFIvDqcSRC0ev1QhRFJJNJAGBCkVFXmEhk1IVaWuCQDmQiCo0dyPlu0s2y4CE3EVVVKx6LVs22syOJuSKtJpMJsiyjt7cXsizDarVWtd16N8wU2m49xKmqqhl1haSO1e/3w2azYXh4GJ2dnTXfbi6aEUmsRbqZQCafrK+vY29vL2d0rRRIPWNraytUVcX6+vqJxphiy+cSZ16vl3ZkC4JQMEJZLJJIaG1thaZpWF9fx9zcHLxeL10eQEU1qWTU4JUrV/Dw4UN0dXVBEISMGkUmFBn1gIlERtXUOt1MIjdEFBo7kLu7u0tKgTZqNF82PM83TTTxPE/HeRmPn9HrkURaa3lDaWYksRbbJUKaiMKDgwNYLBb4/X4MDg5ClmVaV0hsaxrNWRWJwPF5OT09jeeffx7BYLCi2kTjMh0dHTkbY0pdPhtZljE1NVU0QllOdqC9vR2qqmJ1dRULCwtwu91ViUTg1dGFwWAQOzs76O3tZRFFRt1hIpFRE7KFQjki0ThpgvjuuVwuaqdRSQdypYbataDRNjhGm5VYLIZ79+5V5fVYLs2sSayUWCxGRSER0rIso729HVNTU6fmhtuM42oUgvF4HPv7+zg6OkJvb2/FNjSCIECSJAQCgQyD7FLJFnk9PT1QFAUrKyvUIqac5bNpaWnB2NhYwQhlueK2q6srw++QZBaq+S1yHAe73U4/+8LCAgRBQDKZpN3bp+G8ZZwfmEhk1AUiEnNFHkhdHBGGoVCITprIjtxUSjMnvtTbBifX+Da32w1RFOHxeHDx4sWG2qw0s7u51O3mmwbj9/sbIqQrpdHpZkVREI/HsbOzgzt37iAWi1HBtLa2BqfTWVUZRXt7O/b29sr2KcwlTvv7+6lYunjxYkHXglKigEbrnoWFBdosAxwLRF3Xy/5d9fT0QFVVrKysYGJigmYaqkHTNHR3d2Nvby9DKCYSCQBgQpFRU5hIZNQFEvkjhdrEhDm7Lq67uxtzc3M1bzBppkisdSRR07QTzSbG8W3EZuX27dsIhUIN9+E7jelm8iBCROHR0RGcTidkWWbTYAwQCx9ynA4PD8FxHLxeL0ZHR2kUP5lMYmVlBcFgMOfIvVLQdR1mszljznOp4+xyRfE4jsPw8DBtjLlw4UJeAVtqFLC7u5uKugsXLsDhcNDlgcqigP39/dA0DZcvX67Jg4iqqhBFkdZSrqysYH5+nglFRl1gV0lGTTAKBV3XqZH28vIyQqEQgOPan3rVxWVzliOJuq4jHA5nNJsIglBUVDezFrJZjSsEcsyMdYUmkwl+vx/9/f2QZbkpZt/VUo9IojHVHggEqEF6Z2cnZmdnsb6+jq6uLioGSTZgZmYGzz//PAKBAIaGhioaa0fSpWTyiclkKtl+JpfAInV6m5ubNKqWS/yXkyru6+uDqqpYXl7O8HgEKq8nHBgYQDQaxd7eHhKJRFXNYuTBm9R6rq2tYW1tDXNzczT1DDChyKgNTCQyakI8Hsfe3l5GBzJw7G82OjracJuQsxZJjMViGSbWmqZBkiT4/X6MjY3B6XQWPX6Pkl8hYXd3F7dv36bHrJEPIo2gFsc1nU7T82p/fx+JRILWrA4ODp74beZrThFFET6fDwcHB3SecjnH15gydrlc1H7GZDLlNZ8mFJrWwvM8Nds2iqXs5cuJ4g0MDEBRFCoUiUis9HziOA4dHR04ODigfoeVPrSQSCJwfJ0jx3FtbQ2zs7PgeZ4JRUbNYCKRURNu3ryJo6MjyLKMnp4eeL1ePPXUU+jo6CjZpqKWNHt2dLHImrGD21gjJ8sy+vr64PF4yk5NNTOi1wiRaBQ7gUAAqVQKe3t7aGtrq/iYnRXKbfIg5Qn7+/sIhUJlpdoLCTKO49DZ2YmdnR2YzeaS08W51uv1eqn5tCiKBX0Pi4k8nucxMzODlZUVbG5uYnp6OuP9pdrXEIg3IYkojo+PQxCEqgSXpmmwWq1wOp006llJ7XW216JRKK6vr2cIRY7jYLVamVBkVAwTiYyaMD09fUKgNFuonaZIIpnpSwSOsYO7VjVy500kapqWccyMYoekGMmxO6+Ukm42ztgmkXxSnlCJF2ahDmZSV0jSxWazuWTPyFzr9fv9GB8fx/r6OrWKyUUpkUBRFDE3N4elpaUTHdSV2O4YU9lXrlypWmiRCOD4+Di2trZOdD2XQj5DbvLZl5eXsbGxQUUyqVFkQpFRKUwkMmpCM0fz5UIQBJrybsa2iSEzETiHh4cZ3nv1mCHdLJFYq+3quo5IJJJRVyiKYl6xs7W1da4nvRQilUpl1BWmUik6BWZkZAQul6tiUVCKT6LL5cLMzAzW1tZgMplKGpOXL0LZ3t6OdDpNfQ9Js0j2sqWIPJPJRBtjjCnxSudGcxyHyclJLC0tIR6PVzQxhWCsJZycnMTGxgZWV1cxPz9f8gMiefjMtQ+iKGJ+fh7Ly8vY3NzE1NQUOI5jQpFRFUwkMmrCaRSJ5OLYCIjAIRGvQCBAozmdnZ2YmZmpe33QWYwkGqfpBAIBqKpaci3mo3DDI8eVRFWN3dpkCsz09DR8Pl/NutqLiUQitnw+Hx2TZ5wsUmi9+YRaT09PRpdydmNWOf6MFosF8/PzWFxchCiKGBwchKZpFUfqeZ5HX18fNjc3ac1jJYLTmPImdZTZTSfFKCQSgVdF8vLyMra2tjA1NQVN05BIJMBxHCwWyyPxu2HUDiYSGXWj2SKx3unmXOMCJUmC1WqFx+PB5ORkQy/IZ0EkptPpDI9H4sNnrGUt9QZ8nmdGk4eOnZ0dAMC3vvWthnVrFxKJ2dHAlpYWDA8PY21trej0k0K1jsBxs4gxomis1yu2bDY2mw0LCwtYWlqixvrVeq/a7XaoqpqRzi2HbK/GfLWExdbBcVzB95nNZvrZL1++jImJCWiahng8Do7jYDabmVBklAwTiYy60WyRWOttk8YJYsocj8fhdrvh9/szBM7GxgZMJlPDL8TNFIn5tpvL49Fut0OWZerD1+gZ16eVRCKR0YWsqipt+nrDG97QsG7tXCKR/Fuu17q6upBKpaipdT7P02LRQI7jMDo6is3NTWpoTaJ/laSLHQ4HrdOz2+0509ilQlLFs7OzVHyV+xCYK1VN1rmyslKS+Cw13W0UilevXsXY2Bg0TUMsFqOvM6HIKAUmEhk1IdcFp1nzk4HajOUzGjIHg8ETjRM+ny+nwGlW00wzfRKNHpkk7Z7dRFFr4/SzHkkkzUwkhRyJRGhUdX5+Hl6vF4lEAs8880xJ84lrRbYgMx7jfFHG/v5+mi6+ePFizqhdKdFAUgOYnYattKbQ7XZjdnYWy8vLVYlEsn1jzeO1a9cwOjpastjKJ/CMTSckRZxvneXURFosFioUyb4aheJZ9A1lNB4mEhl1o5nzkysRarqu4+joKMPEmkyG6evro6nkYvA83xRx3KxIYjqdRiqVwtraGgKBAE27k2hhKR6PlXDWRCI5v4yNOVar9cTknGZTak2iEWIZk0qlTkQBCaUKPWJnQxowiHNCpfZGPp8PTqcTu7u7aG9vL2i1kw+jOCPia3FxEYIglGwsXijlbRSfJEWca51Gj8RSsFqtVCjyPI/h4WEmFBllwUQio26QcV7NoBSRqOv6CRNroPrJMMapB42kUSIx1+xonudhtVoxOzsLn893bv0KyyUej2d0Ieu6DlmW0d7ejqmpKdjt9qL2No1OC5ZTk2iERAFJjV12g0c5zSeCIFA7m6tXr9Ku4EoRRREdHR1YX1/H/Px82d6t2SLVKL4EQcDAwEBJ6ygUBTSmiPNFKSvprjbWZ/I8j8HBQdy/fx+RSARzc3On4sGEcXphIpFRE05jd3MukZhMJk8YMhMT64GBAXg8nqpvytWO5auUeolETdNoxzax8zHOjgZAb2qN5DRGEomA3t/fp3Wr1ZiknxaRyHFc3ppEI8YoYHbqtNzmExJdI13KsixX9oG+t21JkuB0OmljTDkp/FzizG630+ifKIro6ekpuo5i3z3pzCbiMztKqShKRV3sdrsdCwsLWF5epvugqmpGjSKDkQsmEhl1o9kiUVGUnFEvt9sNWZZrbh1CqGQsX622q+t61cKCmDMbxTTP8xl2Pna7nb4/GAw+cuMACUYBTaab2Gw2ahItSVLVJumNptzGlWyMptbGiFg5kUQCEU0vvvhiVQ1OJBLY3d0NRVGo1Y7xPC5l+WycTie1nBEEoaCxeKlRwFyRv3LXkQuHw0H31W63w+Vy0WwKwIQiIzdn6+rFOFM0QySSbtqdnR2oqopvfvObGVGvRtR9NTOSCFQWfcoVYSXzfYeHhwuaM58GsdYodF1HMpnEnTt36LHiOK4ujTlke42OJBaK+JW6P2Qqy+LiIsxmMwYGBir+LHa7HV6vFwcHB3jw4EHJE16MGKN4fX19GU02pdTlFUoVk+aYtbU1CIKAtra2vPtQqsAjkT8SUezr6yt7HbkgovbSpUvgeZ5mXGKxGDiOY04DjBMwkcioCc1KN+u6jnA4nNFsIggCHdX2xje+saGdoUBzI4lAaQ0CuTprSYR1ZmYGXq+35JtRs0Rio7abSqVoCjkcDuPKlStUQA8ODsLtdp8rO5FCEb9yGkhsNhtNnZpMpqqaT0iU7vr16yVPeDFi3DbHcRgeHoaiKFheXj7hyZiLYg0jPp8P09PTWF9fhyAI8Pv9OfehHIFnjPzxPI+enp6qRSIAuFwueL1ehEIh3L9/H11dXVQo2u12JhQZGTCRyKgZ2TftelngZDebkHoj45QOTdPw9a9/vSkplGZHEnNtW9M02rm9v7+Pw8PDmnXWNst6p16QaDQR0EbrI5vNhqGhIXR1dTVkX05LTWKl++N0OqkPIFD5lBxN0+BwODA5OYnNzU3Mzc2VNbM7W6CSucxkNF6ubuxCy+eCzGHf3NykDVxGSqlJzMblcmFubg4rKys06leL8hiSer958yY4jkNnZycTioycMJHIqBu1ssBJpVIZojCRSBRtBiB/VxSl4ULxNEQSc3VucxwHSZLQ0dFxoq6w2u2e5UgiqcEkopB4O/r9/hMzow8PD2tew1ps3xoJ2V6tRCIAeL1eTExMYHNzE0dHR2VHAYFXRVpLSwvGxsawtraGhYUFuN3ukpfP/t44jit5NF6p4qy1tRWKomBtbe1EF3WlAs/j8dB0NokCVouiKHA6nZibm8Pq6ip4nkd7ezsTiowTMJHIqBtEJJabZiKpUCJuwuEwXC4XfVL3+XxFmwE4jmuaqXWzIonpdBoAcOXKFRweHiKZTDYkLXoW082pVIqKwv39/YZ5O1ZCI/fDOCvaeHx4nsfc3FzFkU3iTbi1tYULFy7A5XKVvV/kGtLR0ZExvq8Uk+x81yDSjU0mnszMzOR8XzmpYhKVy+6iriYKSNLZa2trJXm1FoOkz71eL2ZmZrC+vg6e59Ha2kqFosPhOHNNV4zaw84ARs3IvmmTC0yxNEsuixWSCh0cHIQsyxVFA5tl5t2oSKKqqhl1heFwGMCxSK1X53YuzkLjCjlWRPSEw2Fagzk7O1tWDWYjaVS6mUzKefjwIQDg2WefzZgVfe/ePayvr1dcV0jOj97eXiqeyolkZ2+3t7c3o/mkkHAikfV8+01G4y0vL+cdt1duqpjUDy4vL9NRheXWJGYjyzI1BW9ra6vKEshopSNJEq2n5DgOLS0tUBQF0WiUCUUGE4mM+kEuQoqiZKQuco1uK2SxUs32mxVJrMd2syd2HB4ewmw2UzEtSRKeeeYZ9Pf3lx2pqYZm1SQWEqfGhqb9/X0cHBxkHKtKHzzOE7miqaSO7rWvfS31DNU0DR6PB6urqxV/z2S5vr4+KIqC1dXVvOP78i2fLdwGBwepUCzUfELOkUIiz+jJmMvIuhKBRz7r8vIy5ufnAaDqBxGe59HZ2YmNjY2cdY+lkt2IQyzByPxoWZaZUGQAYCKRUUc4jqMdzvF4PEMUKopCU6EjIyMFLVYqpVkisZam1rFYLKNWrtjEjmaM5qvGeqcaskViIpGggicQCEBVVUiSVNX0nFw0Mmpay2OqaVpGNPXo6Agulwt+v59GU1VVxbe+9a0Tv0fiffjss8/ilVdeyTs2rtjnIKPhUqkUFXelCJBcEUyO4zA2Nla0+YRcA4pFAs1mc4Y59tDQUMY6yo2gchyHoaEhmnouZR+KQc5pt9uds+6xVHKZcvv9fkxOTtK0uyRJTCgymEhk1A7jTSOdTtMxZIuLi0gmk/B4PJBlGT09PfB6vXUf3dbMSKKu6xWl5ox2K8YmHb/fj4GBAbjd7oLrbIZIJN97o0UiiRZevnwZgUAA0WgUbrcbfr+/YefYacZoir6/v5/RkNPf3w9Zlk94BBI3glzfI8kGBAIB3Llzh3r3lYIxEshxHCYmJkpqGDEun29m9NTUVN5RgGRZoDSBlm3b09vbW3D7xeA4DqOjo1hfX0cikai6O5ks39LSQsXn/Px8yQ08wKvp91yir7W1FbquU6Ho8/moUHQ6naeyJINRX5hIZNSMo6Mj3Lt3D4FAAEdHR7T4v6urCwMDAw1/Eq2XBU8xyvErVFU1w26FHLdymnSyt91MkVhPstPtwWAQ4XAY7e3tGB4ehizL564js1zhbXzI2N/fp6bofr+/pIacQt3N5LWpqSmsr6/DbDajo6Oj5M9h/C3wPI/p6WmsrKxga2sL09PTBfer0G/JOApwc3PzxLqIQC31ODocDszNzWF5eRmiKNJGlEoFEsdxGBgYwP7+fkl2O4Uw7kd3dzc0TaPrLNUPllwT832etrY2aJpGRbfH44GqqjSiyITiowUTiYyaEYlEkEql0N/fD0mSYLVa8fzzz8PlcjUlVdGsxhVyEc1lwEuiX0ToHBwcwGQyQZblvNGdcmhmurnawvxcxONxeqxIZJqk2wGgvb2dRnvOI8VEImn6IqKQeDr6/X5MTU1BkqSyvpNCgoqcVy6XCzMzM1hbW6N1nqWu14goipidnT0xvi8XxUb6GUcBXr16FWNjYxkzo8s9L41TVERRrMoInOyDyWSCyWQqOXqai2yx2tvbC1VVyxozqKoqTf3no6OjA7quZ0QqmVB8NGEikVEzurq6Toykavb85mb7FQInhQ4x/651rRzZ9lmOJCqKQo/T/v4+4vE49cTs7+/PSLfv7e1Vvb2zCKlTJecUz/M5PR0roZiRNgDqt0nMqEvxK8wn8kgd4OLiIkwmU8acYiOFRgXmWtetW7doTWGlAs/n82FqagobGxtVPwCR5Uux28mHrus5I5r9/f3QNI1Ojyk2FpLUIxY7np2dnTRSOT8/D5fLlVGjyITiowETiYy68iiKREVRwHEcrl69iqOjowyhk8/8u1acNZFotD8ikTC73Q5ZljE+Pg5JkvJGoc+C9U61kM+3u7tLhWEikaAp5KGhoZr6X+YTibqun0hFt7e3I5VK0U7lQlGsQiLParVScWc2m9Hd3Z1z+VJ+M2RdxprCaqKAZIrT5cuXEYlEKp7LTcSdIAg0lb25uYmpqamS9438rrN/DxzHYXBwkFruXLhwoeCDQjmpc5LSXllZoSltJhQfLZhIZNSMZs1vzkejRKKxa5SMcQNeHf1VSOjUmtMuEo2TYEgzBcdxkGUZ3d3dmJubK+tGfB5FIhmhuL+/j+3tbcRiMVy7do12n5Zbp1oOuUQiOca5rGR6e3tpp/LFixfzlkoUE2qkDnBlZQUmkykjI0EEaqliylhTaDKZYLFYqnooa2lpweXLl3H58mVYrdaK7KWMwoykxpeXl3HlypWSO8XJtSyXMOM4DiMjIxmp53yWQIqilHX+EKFNhKLD4YCiKNRw+1FuDnsUYCKRUVeaLRITiUTN10t8Ho11haIoQpZlmvJ7/vnn0dvbW7GPWaU0w7PQWPuVi1wd27WIhJ2WiSi1wCicyQhFWZbh9/uh6zre/OY3N2Q/CkX88n2/Q0NDSCaT1CQ7lwApReR5PB6a3jWZTHRKSzndyQS3203rJnt6eqoSMkSc9fT0UDFcro9rdvTOaLdz/fp1jIyMFD2fSYYi32chD6VbW1s0opirkauSJpz+/n7ouk6Fot1uRzqdRiQSgdPpZELxHMNEIqOuiKKIZDLZtG3XKpKYSCQy6gqJXxlJR2V3jTZrNF8zIolku8aRbsaObWMzxeTkZNnNFPk4y+lmRVEyupBJSYLf788Yofjw4UMEg8GG7VcuMWeMJOZqajFa2hSyoSlF1JPf0/r6Oq11LMUMOxeSJGFychJbW1tV1WmSfe/v78+YolLOOnMJM4vFQoWiIAgZvoylriMb8l1sbm5SQZct2suNJBKyax8tFgu+/e1v441vfCMkSWJC8ZzCRCKjZuS6CTTLhoZsu1KRmE6nEQwGqSiMxWJl+Tw2ajRfru02WiSSm/i9e/cQiUQQDAZPRFZrMW/2LGO079nf38fh4SFsNhv8fn/DSxKK7WehxpV8rxFLm3yj7cpJFxtnM1+8eJEel0pESGtrKwKBALa3t+kM+HIhRtrEHFtRlKIp3WzypduNvoyCIKC/v7/gfpTycMXzPLUpWl1dxdzcXMa5VamdD6l9JEJxdnYWwKt+nCz1fD5p/lWJca5plg0NUJ5IJNEvY10haaAYHR2FJEllefA1M5LYiOhaMpnMSI+Susy2traS/PhqwWmPJJIpQ+QYEfueckZPNsOgvFobmsXFRdy4cQPDw8MZpQjlfA5jreP09DSAyssL3G43QqFQxaliY2czmfKyublZludhIWHmcDgwPz9PfRlzNe4UW0c2RLST6O7s7GxBa65S4TgOw8PD0HUda2trAI5T5/F4HJ/61KfwyU9+smS/RsbZgIlERl1pdk1iPpGYa360IAgVN1Bkc94iiaqqZox0C4fDcLvdkGUZs7OzWF5exsTEREUjwqrhNIlERVFwcHBAo4Uk+uz3+yvuaj9NIrFUGxoiFC0WC/WwLCeSSBgaGkIqlcLW1haAykWipmlwOByw2WxFG2xykT2Sj+M4TE5OljUxppjAc7lctHFHEIScJuXlRgCJ5c7q6mqG5U6ukXzlQJpkkskk9vb2kE6nEY1G8Zu/+Zv4xCc+UfF6GacTJhIZNeO0dzeT2b7kTzqdhiRJdZkffdbnRhPTbyIKDw4OqHHy4OAgZFnOSLWRUYSNpNmNK0ZjdHKMrFYr/H4/RkZGzuQEmHwzkoHSBavdbqfdu2azGe3t7WVHEsl2x8fHsby8DKDyNCn5TENDQ0in0zRVXOp3k8sjkUx5KdXzUFXVotvzeDyYmZnB+vo6BEFAa2vriXWU+/mNndTEckdV1ZLT5Pkgk7QCgQAuXboEURQhCAIcDkdV62WcPphIZNSU7BRgM0UicJwWJbN9I5EIrSucnZ2Fz+erWw3NWWxcydecU4rpdzNSv83YpqZpCAaDePjwIT1GZALM1NQU7HZ7TcXraYkkkmNd6r4Yu4tNJlNFkUTg+HweHBzEysoKHblX7nqMNYVjY2PY2NigqeJSRFd2JJEgCAKNoueqw8xeRyl1uZIk0Q5vktkwrqOSNLEoirTu8fLly9A0raosiXF/bDYb/u7v/g5/+Zd/ybqczylMJDLqSiNFotGYORAI4PDwELquQ9O0hs/2bWa6udTtGtOjgUAA0WgUbrebTu8oJz3aDOsdoP7pZpJmJ9HCSCQCVVXR0dFRUgPTWaOYT2I5gtU4laW9vb1iscvzPEwmE+LxOK5evYrx8fGy1mWMjpKmjtXVVVqrV+z7K+TxaDKZqAArNFqwHENv0sy0sbGBubk5eL1eAKgqTWwymbCwsIClpSWoqloTay5FUWAymfBv/+2/xTe/+U08fPgQBwcH1LqIcT5gIpFRV4hIrEdEhHTVGVPIPM/T5oDh4WEsLi5iamqqptsthWZGEtPpdM7X8nXYyrJctYhuViSx1hg9MI1pdr/fj+HhYdy8eRODg4M5a8bqwWmJJAKVjbcjU1lu3bpVsXgg6V5S62gcuVfq8sb9NkYAt7a2MDU1VfAYF0vzGscBiqKYc9/KTRWTFD2JeJLZydXUEpL9fP7557G/v4+urq6qzi1ipWM2m/GRj3wEH/zgB/HEE0/g61//etExjYyzAxOJjJqSLRZIrVq1s08JpKuW/EmlUvD5fJBl+YQxcyKRgKZpDb/RAqencSV7ugnpsO3o6Ci5w7bU7Z7VdHN2p7aiKJAkCS0tLSfS7Ldv3656e6cZ42/FWHPp9Xor/h319vbSKFMqlSq7Ho6IPOPIPbPZjJ6enpKXz374IbV6xSKAxu0Xwrhvoiiir68v4/VKBF5nZ2eG3U61IpHsp81mQzgcxq1btzA4OFjxtdHotxiLxTAzMwO3240nnngCf//3f8+6nM8JTCQy6gq5iFR6gSMpUXITj0QitKt2enoaPp8v73prYflQKc1qXNE0DbFYDFtbWydMmgcGBuDxeOoimE+7HY0RYtdDROHR0RFNs9e7VrVcGv2Ak06nkUqlsLa2hv39faiqCofDgZdffhkDAwMV74vX66Xeh6XaxhCMTS8OhwOzs7NYWVmB2WzOGN9XaPlc3yfpxCZzngcHB3MuX+q1K9vKpqurq+x1ZNPb20tH7Xk8npo0hpDym5s3b4LneQwMDFS0HuN19ejoCD6fD1/60pfw3ve+Fw8ePMDo6GjV+8poPkwkMuoKKRhXFKWkCAKZW0tE4eHhIaxWK02JSpJUciSCXJQrnTBQDTzPI5VK1X07pA6TCJ7Dw0MIggC3291Qk+ZmjQMsdV50NBrNSCGLogi/34/+/n74/f6quz3rRb1FYi7BLAgCjYx5vV4oioLLly/j5ZdfrrgcQdd1SJKEWCyWdypLoX00vtfj8WB6ehrr6+sZ4/sKLZ9PoBEz68XFRZhMppzRyXLS7C6XC7Ozs1hdXYUoilTEVpNJ6e/vh6IouH//fk0i/6qqwul0Zph4E6uiciA1iQAQCoXg8Xhgs9nw53/+51XvI+P0wEQio6bkGtlVqHlF13WaEiV/OI6DJElVp0R5nm9a2rdeNYnkeJGbejAYpHN+u7u70dLSgsPDQ0xOTtZ824VoViQx3zZTqVRGCjmVSlG7o1xjFB8ljIKZ+IMSwUxS78YoEPHFW1paQjwerygqpus69e0rpRvYSC6RJssyxsfHM8b3lbO8EYfDQT0KTSYT2tvbTyxfzuf1er20Q5lMHsrXIV0KxMD64cOHePDgAXp6eqp6qCENMHa7HfPz81hZWQHP83lNvAuth3RJHx0dNdwjldEYmEhk1J1skUhu4OQmnkwmaV2hcW5tLWimX2Gttpt9vIx1mMPDwxn+jvfu3TvXk16MGM8R47zo/f19HB0dweVywe/3Fy1LOM3UIpKoKAo9d/b395FIJODz+aifo/H8uXPnTs7t8TyPrq4u3LhxA5cvXy7a7JENEVqkFvDSpUu4ceMGRkZGSlo2l8Bqb2+nKewLFy7kTcWWItCIR+Ha2hqNMhuXL/fc8fv9mJiYoB3K1dYTchwHq9UKXdfpTOZKorqkRptkF9xud1ET73wYMzRHR0fo7Owse38Ypx8mEhl1RxAEBINB7O3t0WkdLpcLsixjamoKkiTV7QbeLJFYTSSRpADJjZ0InlKOVzNmNwONjyTqug5FURCLxbC4uJgREevr64Pf7y9rqsZppRKRWGhO9MTERMEShELb4zgOTqcT4XC4ZIFHMAo9YzewcSpLoc+TT+T19PTQ8X2PPfZYzu+81HSxJEmYnJzE5uZmhvVMrsaXUmhra4OiKFhbW6t6ygnZj76+Puzs7GB1dRXz8/Nll5KQh3Xjvng8HszOzmJtbQ08z5dU50nWZRSJExMTZe0L42zARCKjphCxYKwrjEQieOWVV9Da2oqBgQHIstywG7ggCE0x8y4nkmgcEWismZNlGf39/WUdr/MsEtPp9ImImNVqRV9fX80n5pw1kskkPS5klnYlXeyFJqOQCNTk5CQuXbpUksAzLmtcb66pLJXsEwAMDg5SoZhrkko5NYWtra1Ip9NYW1vDwsICXC5XVVHArq4upNNp3Lp1C8lksqqaQtIoMjU1lXMmc6nr4DjuxPHw+Xy0zpPnebS0tJS8P0Dt081PP/00fv3Xfx2Li4vY3t7Gl7/8ZbzrXe/K+/5nn30WH/vYx3DlyhXEYjH09fXhAx/4AD7ykY/UbJ8eVZhIZNSU3d1drKys0EL19vZ26LqO9vb2E7YQjeC0RhKzbVfIiEC/319VzVyzRGI9tmtsyiERVYfDQSOq+/v70HW94u7MSmi0CM0X2TM2nJDoPJkTXa4Revb28i1H9sVms1GBZ7FYKu4wdrvdVJiYzea8DSjFRJ5xksra2hrm5+czhFO5/o5E2JE0drX2Xd3d3bh16xa2trZw8eLFkiav5IJEI0ltZyVTaMg6cp1T5He1ubmJmZmZjGkv+dZlFIkk8loLotEo5ubm8J73vAc/8iM/UvT9DocDP/dzP4fZ2Vk4HA48++yz+MAHPgCHw4H3v//9NduvRxEmEhk1xev14uLFi3C73fTCFQwGmyJcgNNTk2ic3BEIBBAOh+tiu3KaIom6riOpJiFyIvbie9B0DUkliXAqjLSWRjwdR0yJIa2koegKwqkwoAD3AvcQj8YRioSg6ArcTjdMNhM8Tg94kYce0mGP2XF3+y5svA3PJZ+DWTDDYXJA0RV4LB4InACLYIHNZINNtEHkRUg2CZquwWFywGE+rl/judNhdVMMY8MSaTghtXO5ZmlXsx2jgNB1nX6vxohetsArNsEjn/gspQGlFJFHJqnkmqVciQl4X18fnfNssViq+m2S64AsyzTaWcl3ZYxoGmcyl2IInmsduWhpaaHTXsh1KR9EcJLMUS0NtJ944gk88cQTJb9/YWEBCwsL9O/9/f34q7/6KzzzzDNMJFYJE4mMmmK1Wk9chJo5v1kUxaaJREVRcOvWLQQCgYzJHbW8qWfTCCsaXdcRTASRVJIIJULYj+/jpYcvwXRkQuJBAuFUGIFYAEepIyTSCQQTQQicgHAqDEVToENHQkmAA4eUmoKqqdBUDWk1fSwmOB68wFP7JC706txgHTo4HN8M0+k0OHAwv2wGz/H0303C8axggRdg4k3gOA52kx2arsFtcsMiWiDwAiSbBJfZhVZHK5xmJ2SbjBZ7C5xmJ9wWN9od7RB5EVbRCoFvfNNLOp3G0dERwuEwnn76aSQSCRptHh0drUuHdqGaxOzXSKf4+vo6Lly4UNA8uVDKmExlWV1dxcWLF0+kZEsVeWSSytLSUsb4vkoigaSjOJ1O4+HDhwXT4cUgKd6xsTFsbm5SoVhOPaGu6ycEnnEk4JUrV0oaV1iKHRiZ9kKisrnSyGR/6hVJrJbl5WU899xz+JVf+ZVm78qZh4lERt1ppkhsZCQxkUjQSOHe3h4URcHh4SFaW1sxOTkJu91e93RlLSKJuq5D0RTcPryNg8QBAvEA7ofv427oLvbj+7gfvo+kmkQwFkRKTSGtpRGOhwEO4AQO0AENGqADKlRYeAtSagocx8HMmxFNR+ExeRBMBGGGGTzPI6kn0eZow8P4Q7TYW2i0scXeggfhB+h2dWMnugOraIVVtCIQD6DF3IKd+A4cVgeSahIJJYF2RzseRB6gzdGGg/gBOJ6DXbBjJ7IDr9WLO6E7MAvH4lzTNQjc8U2X53iIgggTb4LIiXBZXBB5EbJNhmyTIdkkDHgHsP1wG3P2OaTtabgsLjhMDrq+asnVcGIymSCKIm04qXeHdjkiEQA6OjqQSCSowMuXSi2UxgaOG1CSySRdj/EBqtiyRohwWlxcxM2bNzE8PFxRJBE4Forj4+PY29vD3bt30d7eXtHxJ+KO4zhMTk5ifX2dNp6Uuj7ym85+P2kCWlpawo0bNzA8PFzViEFCZ2dnxlhAl8uV8Tq5nhORGA6HT4VI7O7uptfeT37yk3jf+97X7F068zCRyKgpuS5QoigiHo83YW/q27iiKAqCwSCtLYzFYvB4PDSFduXKFVy4cKEu285HOSJR1VS8cvQK9mP7eBh9iJsHN/Hy4cu4F76H7cg2VE3FQeIAaTUNVVehaipUXQXP8VA1lYq+mBKDW3DjIH0At+iGqqtIKkm02FuwEz0WcfFUnKYtU1oKKS4FnuchmkRw4CCoAlJ6Chw4RNNRQAc4cAgnw+A5HkepI3DgoOkaYkoMPMcjqkbBgUNciVMBE0lFoENHXIlDgwYTTFB1FYqmgOd4KJoCu8kOVVWRUlNoc7Thfvg+ut3d2I/uQ+RF2Ew27B3swWPx4ObhTZi442gkBw5KUoF7xw3HiuM48uhoQZujDRP+CXgsHvS6e9Hj6YHLXFoTDXmwIA8XZGxiZ2cnZmdnsbOzg1AoVFIjQS0oJKjyvUb8FUkNX65O4GLNJyRyR9ZjnMqiaVpZUTeLxUKFotlsrlgkAse/J7PZDI7jTqSxS8UYyeR5HtPT0znT4oUgD7q5BJ5xJKAgCHknxwDlDRbo7u6m016yLYaMXdLpdBqxWOxUiMRnnnkGkUgE3/3ud/Fv/s2/wfDwMN797nc3e7fONEwkMurOeYkk6rqOUCiUMQ3GZrNBlmWMjo5CkiR6g4xEIqemgUTRFCSUBK4Fr+FG8AZuH97G7YPbuHl4E9F0FIFYAGktjbSWhqZrUDUVZsGMhJKAiTeB53jElThaHC3YjezCZ/Uhpseg6RrAHUfkklqSpo9JHVsoHgI0IBQLUTNlCIBZNwMiIKoi9O/9D9yrIkTDq/tP0su6fvweHZl1jxyOU9C6fvw+RVcgcAIVsTp0pPU0RF5EQkkcRy3VJKADIi8ilAxBFESEU+Hj7XJASklBx3G6OplOwmP3IJwOQ9M1WDgLdmO7aOPbcD9yH+aAGeAAAQIsogUuswsuiwvtznYM+4bR4+7BqDyKLmcX3BY3zLw5o+EkEonQhpO+vr4TDSeNHstXbiQROBZ4o6Oj2NjYwPr6Oubn508In1KigSTStrq6SmviyPlc7jEwdk9XY2QNHJ+Xo6OjuHnzZlkm4ITs6J0gCGXXE+brSiYQY2wyEjBf13m5ndp9fX1QVRXLy8u4cOECLQUgqWaO4xAKhQDgVJhpkya2mZkZ7O7u4pOf/CQTiVXCRCKj7jRbJFazbTINhjQLGCM9haxFSHdzo2/yZBzg/++bX8fizUVcT1zGgSuAu+oDpNQUIqkI0loaqqZC4AWk1BQsggWqpiKtpSFZJezF92ATbVSAqdqxyI6mohB5ETElRqOCJEKX0lLgdA7pdJqmmXmeB8/xsJqPTYDTWhp2kx3BRBBW0YqkeiwsrYIVCSUBu9mOUCoEj8WDhJKAoipwW9yIpCJwm92Ix+K0ISWRTsAm2HCEIzhNTkTSEUADXGYXIqkIXBYXHkYfwmI6tg5K6klYBAvCqTAcooMKRh06OP04SkgilRo0CLyASDoCk2BCVIkei1xOQFyNg+M5aNCQUlNwmV2Ip+NI62lYRSteCb0Cr9WLa4FreO7eczDzZtgEG0y6CbIow6N7MOgcxETbBMa6xnCh4wLs1upHrdWKQkKw0LlMGkfyCZ9ShR7P85iZmcHS0hIVZJVGAt1uN7WLCYVCdDpIuRCfRBKdvH79OkZGRkr+XecSqaTxhNRPjo2NlZQmLvQep9OZYYxtnB1tXE+53ooDAwPQNI0KRZvNluH7eHR0BFEUazIysJZomoZkMtns3TjzMJHIqCm5LmLN8ioEji/G5Vwo0uk0gsEgTf/F43F4vV74/X4MDAzA4/GUdHMgF9Bq7TPKJRKJ4E++/ZfYUl/BruUOUuYo9KACKw+INh4KD3gsHgTSAfhEH5JKEqqm0ghdLB2DwAuIK8flASS9zHHHAopE9niOR0JJwMyZkUwn4RJdSCIJjuPgtXkRSATgsrmQjCfBczxdvw4dJsGEhJKAwB13Ria1JKyCFUfJI9hFOxWPFsGCo+QRHGYHQqkQrKL1OFqppWA32RFOh2ETbIilY+Bx3OgSToVhE20Ip8IQefE4qoljgUc+i0W0IJ6OgwcPm2hDPB2Hy+xCKBmC3+I/TlXrGky8CYl0AiazCWktDR48VKgQeRHRVPQ41Z6O0WabaDpK09LRVBQ+0YdAKgBogE204R5/DzazDWvKGr4e/Tpadlsw6B3EiDSC+bZ59Hp64bP6YBJeTdc2I5JYzAInH6RxZHFx8YTZdjl1hURAkbrCatLFJAV69epV2Gy2iqJd5DdsNAE3mUwlWy/li94Z10fqJ8tdRzZut5vOjhYE4UTDTSWm3hzHYWhoKCP1bExbh0KhDDeLWhCJRHDjxg3699u3b2NlZQWSJKG3txcf//jHcf/+fXz+858HAHzmM59Bb28vxsfHARz7LP7Gb/wGPvShD9Vsnx5VmEhk1JxsO5RmdRgDxdPNRi++QCCAUCgEu90Ov9+P8fHxgtMpCkEumNWO4yqXL/39V7CUuIF00o60mYce8UNx7yCqiLBGEhDMKhIafxwRTMeOo2ffS+/S7mH91bRWSkvBaXUiGA/CLbqR0BJIqSmYYKICzGqyUvEkiiISagJOsxNxJQ6f1QeBEyDwAu0w7vf2UxFoES0w8SZYTVbYRBssggWiIELkRFiEY+sRq2BFSkvBLJiPO6G/13CyG9hFOpWGS3IdR/aU4yaapJJEQk1A1VREU1FouoaUlqL7k1ASkOwSFE2BqqtwmpwIJUKwi3ak1BQ0XTvulNa/N2VEPH7dY/cgkTzuyhZ5Ecl0EnaTHdF0FLzOH9duqir2knvgOR4xNQbRJMJqsoIHD03V4DQ7sRvdhYk3YWtvC9eD1/HN29+kaepReRRj8hhmWmYwKo8W+qrrQrF0czEhYDabqcAzmm2XmzI21hWaTKaiFjv5IKUXAwMDtCkm3/i+XJAuXvK5bTYbrf8zmUwlzTsudA2wWq1YWFjA4uIiRFFEf39/zveVI+68Xi+1JxIEIaOeVVXVilwVSEnB5cuXsby8jO7u7ozO5lra3wDApUuX8Na3vpX+/aMf/SgA4Mknn8TnPvc5bG9v486dO/R1TdPw8Y9/HLdv34YoihgaGsKv/dqv4QMf+EBN9+tRhIlERt1pdrrZKBKNfnNkHrIgCJBlGd3d3Zifn6/Y7DZ7uwAaXpf4tWvPIR13IsXr0HQOui4CugCd0xGHBZZ0AmLqCJxJAGexQRRNSGkpuM1uHCYP4Ta7aW2iyB1H4qLxKARNQDgZhlkwwyyYYRJN6LB0gAMH2SYDKcAu2jHaOQqPxYMedw9MvAleqxceqwdOkxMmwYQWWwvSehpeixccx0HghIzIWTncvn0boVAI8/PzOV+Pp+MQeAHRdBQJJQFd13GYOERciSOhJBCIBxBLx3CUOsJuZBehRAi7sV2k1TSC8SBNgcfVOJxmJ5JKkjbU6LoOXdOBNBCJR+ATfUghBbPJDFEQoegKTLwJmq4dp+TBQ+AFHCWPaL1nWkvDYXIgoSawF9tDJB3B7cPbeOaVZ2Az29Bqb4XMyRhzjIFr5zDgHYDTnN9mphYUEnOlRsWN9YDEbLucSGL2ei5duoRIJFLWssZ9Bo67p4nvYTmG1uRh1/i5jWldURSL2uMUO27GekKTyZQ3TVzOwyYxxt7a2sLMzAw1KlcUpeK0O8dxmJiYwObmJl555RWaXiYisZYR77e85S0FJzh97nOfy/j7Bz/4QXzwgx+s2fYZr8JEIqPuNFskplIpbG9v09rCVCoFn88HWZYxPDxcl3FuHMeB47iGR1DDyQSUtAWKoEEDB6gWQBMBMQWk7Eha0rAkBXBcApoSgVUwI20VkdbSMAtmxFIxmGCCoAkQOAFt9jY4LA70envR7etGh7MD/Z5+uC1u+Kw+dLu7IfAC7t++D17nMTk52dDPWwib6fhmaLSo6XR1Fl3uIHGARDqBo+QRAvEAdqO7OIwfYmtnC9cfXEcgGUBSTR4/gECFz+6DKIgwq2ZYBMtxJFLn4DQ78TD2ELJNRjgZpqKR546bZ6yClaaoef64rlPVVYiCiO3wNpLpJDZiG3ieex5/H/x7DHgHMOmfxPd1fx+GfcPwWGvfKFBNutkIMdve2NigHcaV/MbcbjccDge2t7fR2tqadypLPkiqmuM4DA4OZkxSKWUeM/n9Zh8Tj8dDo3Umk6ngdJJSGmdcLlfBNHElGYmWlhbqY0n8DiupSTRCmotefPFFhMNhKIqCUCh0KppWGPWBiURGzcmVblYUpWH1VWRkWSAQwM7ODmKxGG7dugVZljE9PQ2fz9eQFHCx0Xz1YN4/i/Wjb0IP9gG+u9DMcSBtB8QEoHOAZsaRwMGpanCqKZi0FDoOVJhsFjhaxtDdOoIBeQAznTMYbB+Ex+JBl6urqJn0nrCHVCrVoE95TL3mRfusPugWHU44YQ6bYQqb4DhwYMA2gHR/Gi2tLfB0ehBIBbAd2cbD8ENcP7yOh9GHuB++j3g6jmg6irgSh1U4btpRdRWSWcJB4gBmwQwex6KQ/97/FFWByIvHdj/fizYqUJBQj6OZ94/uYy+6h0vbl/DlK19Gm7MNF9ouYKZtBrOts2h3ttfkt1VJd3M+ZFnGyMgI1tfXAZwUWqUiCAI6OzupaXe2Z18hjPWMxi5sYrNT7DpAfr+FpsVsbGzkNZ0GShd4xjQxmaZT7jqyaW9vh6Io9PNWUpOYDc/z8Pv92N3dxVe/+lU8fPiw5ulmxumBiURG3SFPrtU+xeZD13VEIhEaKTw4OIAoipBlGe3t7dje3sYb3/jGmm+3GNmj+RrBe//xj+Crv7aBbc8O9EgbIL18LBDjEqBYgcMB4LAP+kErntz9Nn4wsomOiIqByBH49h3gp94J7Uc/CJSZcq+XYGskqVQqY552KpWCJEloaWnBxMQEHA4HXnjhBbT529Ahd2AAmY0LkVQEkVQEO5Ed3Dy4iXtH93AleAU74R0cJg6Pu6W/Z9ad0lJ0msth4hAeiwfRdBQCJ9A60Xg6DptgQ0SJwGQ5tiJKqSkcaoc4Sh3hWuAa/vbG36LT3YlJ/yTe1PMmzLTOQLKVF20zki0EU6kUjo6O4HK5KnrI6+zsRDKZxO3bt4873ytA0zRIkgSr1UrrCktNmWY3vZAubGKzU8ynsJj1jFGE5Zs6U47Ak2UZk5OT2NzczBiLV01ts9HvkJizV4uqqmhpacGnP/1p3Lx5E29+85urXifjdMJEIqPukItbOUauxUgmkxk3dEVR4PP54Pf7MTY2RkeWHR4e4v79+zXZZrk0I5I4PTWB98/+E3z27/ex47wBPJwBIh3AziywPw7EZCDtQEwX8EXcwbvwboxylwAewL17wKc/De4rX4H6qU8B73hHydvleb7hIrFaYWpsWtrf30coFILT6YTf768o4uw0O+E0O9HubMd8+zz991AihJdDL+PGwQ3cDd3F2u4aDhIH2IvtIabEYBGPbXpUTYVsl7EX34NdtB+bkiMJXddh4S2IKlHYRBtt3uE5HkktifWH67gZvImv3/46up3deKzjMby2+7WY8k+VnZLWNA2JRALXr1/H/v4+jo6OwHEctUGpJBrY39+P27dv4+rVq3jsscdKSvNm7xPP8+jt7UUymaR1haU0YORK9RrH9125cgUTExNV1WF2d3dn1DtmC1hVVWGxWIruK6G1tRWKotB51i6Xq+oGuL6+PiiKgldeeaUmpT+KosDhcOALX/gCFhYW8PzzzyOdTpf93TJOP0wkMmpO9gWX53k6y7hSVFWl000CgQDC4TDcbjf8fj994s51A2vkWL5smhFJ1DQN87MSfrX7In7pY+/F/V0HOBAT6uPvhciqe+jBP8ef4m/1d2JYv338j4kE+OVl8P/3/w31h38Y2q/8CmBIe+WjGZHESrYZj8czJpxwHAdZltHT04OFhYWaNC1l47F6MGedw1zbHIBj8/G7R3dx8+Am7obuYmlnCffC97AX3UM0HT3u7BYtx6lp/jjtnNbSx5NfwCGpJOGyuJBQEtAUDSbBBB48DuIHUFQF1w6u4e9v/T16vb14Xcfr8Jqu12BMHss7PtA49WVvbw88z6OlpQU9PT2QZRnRaBTLy8uw2+1VTdWwWq15zbYLYawrHBkZoXOejVNZii2bjdFmJ9uup5Tls+nv788QikYBW4m47uzshKIo1HKmFlmYwcFB3L17Fzdv3oTP5ytLuGZDHvh9Ph/e/va34zvf+Q5+8id/En/+53/eUDcHRv1hIpHREMq1wdF1HeFwmN7MDw4OYDab4ff7MTQ0BEmSSookEJHYaL85su16RxJ1XUc0GqXHKRgMQtM0jIwc4bc/E8GHP+zE/fs88D2Pw2OIbORxC0P4cXwRf6c9gRYEvvcyBxwdQfjCF8A/9xzUX/5l6P/knxTcD47jmjJhphjk4YKIIDI+zO/3Y3BwsOZdmaXAczz6PH3o8/QBAJ6cexIPow9xLXgNl/cvY/3hOm4f3IYAAUfxo2ObHsFJp+LYzDYo6rF9j0NwIJwKgxM4CLyAtJqmdj+XHlzC1t4W/ub632CmdQZv6nkTHut8DD6L78TUF7fbjZaWFsTjcXR1dVHrGiLCiSl1JQ0KZB1jY2PY2toqecqIcXljXWGuqSz5KCTQssf39fX1nXhPqdNaiIAlQnFhYYFG1SqNAvb29tL1kQaeaiC/UbfbTY2xK7HDATKzQslkEj/1Uz+FL3/5y3jve9+LP/7jP66pZyKjuTCRyGgIpXQ4GyMaROxIkoTW1lZMTk7CbreXfUMXxWMbl0abWgP1iySS2rnsbm2/34/R0VFcunQJg4ODuHjRB5tNxXvfy+PhQx7QkGFqffxfDmuYxU/iC/gKfhg2JF7dkKKAu34d4vveB+3v/g7qr/0akEcknJZIIqlPJefRwcEBLBYLPTbG0YmniVZHK1odrXhTz5ugaioeRh/iauAq/nb1b/Fy5GUc4QgHiQMAQFpNg+d52E3H9jwAjo3HU0cwiSZq7A0cjwt8JfQKdiO7eOrGU/CLfgyaB7HgXcBM1wwGBwchyzIVCwcHB1RMkD+qqsLj8cBut+PBgwfo6uoq22sQAEwmU16z7ULkqiskU1mqTRcT+5mlpSWYzWZ0dHSUtbwRYhGzvr6OtbU1zM/P04fUSq89g4ODUBQFOzs7VU80IQ9xo6OjuH79esnR2FwYReLR0RG6urrwjW98A7/7u7975muTGZkwkcioObku2LlEoqIoNIVMojwejweyLOecY1sJ5OLcaFNrsu1aRNc0TcPh4SE9TqFQCC6XK2+3tnG7b3878Fu/lcYHP2hCIECEFXBchHiMCgHfweP4AD6LP8V7wBn3WdeBcBj8F74A7tIlKL/7u8D3fd+JfWxmTaKx4WR/fx+KolT9cNFMBF5Ah6sDHa4OtMXbEFEi4PwcbgRu4Nm7z+Lu0V0EEgHElTh4/VgsRpXo8ZxtnkcqmYLL4kI0EcV+ch+6etxdneJSSFlT2NV28XL0ZdwK3cI75HfApbsgaiKduZ1IJOhvleM4KnTMZjNsNhttHik1XUnORY7jYDKZaJrXarWip6enpOWzv7/sqSz5ppWUkup1uVyYmZnB2toaTCbTia7icq5BPM9jenoaKysr2NzcxPT0dFXXHtKRvbe3h52dHfT29lb8kEO+U1EUMTk5ifX1dayurlIxWw7G9PfR0RG8Xi86Ojrw6U9/uqJ9Y5xemEhkNARRFJFOpzPEzuHhIWw2W12jPMbJJ42m0khiIcPv3t5eyLJcsHaO5/kMcfojPwLs7yv4pV8SEQ6Tf331pstBRxom/E/8MwzjNj6B/3BypaoKbnMTph/9USg///PQ/+W/BAw3z0ZGEknDye7uLg4PD/Gtb30LLperaH3qWUTXdbjNbox1jOGxjsfwTyf/KV45fAWXti9heXcZVwNXsRvZhZk3Q9d0HMWPAOW4WSaFFHxWH+J8HFazFTbOBoE7ntcdjAfxv2/8b7x4/0WMSCP4/p7vx+u7Xo/e3l6aVibef6IoIpFIIJVKoaenByaTCWtrayVHoch5Qb4To9m22WxGW1tbweXzCT1juthiseQUnKXWA0qSRLuKjXY2lWQgshtjqn1A5TgONpsNqqpmRCjLxdipzXEcpqensbq6irW1NczNzZX1myGRRFIWxCxwzi9MJDJqjvGpn4idaDSKra0tKnY6OzsxMzNT96HwxkhIoylnu+l0OiOFnEgkIElSRYbf2SIRAN7/fh07Oyp+67cEJBLGVzjo4ABoSMCK38KHMYot/Dj+R+ZKiQAMBiF+6lPQlpehfuYzwPc86+pdk5gtmjmOg91uh9VqxWtf+9qqivDPEiIvYkgawpA0hHcOvRMrr6xg6c4SvnPvO3iQeAAVKjSTBl7k4RW9SGtpCKoAp9mJQCwAh9lxPFv6e+noSDqC5+4/h639LXzt9tfw/b3fj+HeYaytrWFkZASxWAyBQADRaBQulwsOhwNtbW1YX1/H5uZmUQsZ4FWRaDx/3W43pqamsLm5CbPZnHfsHolu5tuG3W7H7OwsVlZWcgrOcppGWltbaVMMsbMpN5JIMJlMVMCm0+mqI9mapqG3txcPHjzA+vp60VrMXBCPRLIvRMyurKxgY2MD09PTJa1T1/UMv0USSWScT5hIZNScWCyGa9euIRAIIB6Pw+v1wmw20/RfMxpImiUS8wknEg0zppAdDgf1SfP5fBV3M+YTbP/u32m4dw/44hcFnLSs4wHoCMONj+K3MY5rmOfWXxWHRhIJ8P/zf4K7cQPKF74ADA7WPN1MShFICpmcR8aGk+3tbdy9e/dcC0Rjw5Wu6zg6OsLe3l7GOfOOnnfgx+Z/DCEuhOfuP4dL25dwM3gTB8njGkaH6MBR8ggCL8DCWxBOheG3+RFKhZBUkhA4AUk1iaXtJSzfX4aTc6JP7MPFo4t4Xd/rMDg4CEmS6PQiTdMwNTWF5eVlXLt2DWNjYwV/0yRdnP0ev99PzbbzeQwWMrMmZE8/MU5lKVfkdXd3U6F48eLFqmqZSaTzu9/9Lvb29gpOZSmGqqq0pnN5ebns5h+yjuzPQtL2S0tLuHz5cknXZ3ItNaab2cSV8wsTiYy6wPM8JiYmqNjZ3NyEKIpNqQ0TBKEpYwGz0825omG1nhlNtptLJHIc8F/+i4Z79zg89RSPk285/m4eoh0/gS/iWf1NkHCQeyOqCm5pCaZ/9I+Q/sM/BDcyUpVINHazk4YTq9VKfS9lWa6LEftpR1VVJBIJrK6uYn9/H7qu5z1nWvQWDElDeNfIu7D2cA2Xti9hcXsRd8J3jtcFNcNrUVEVeAQPHoQfQFVUHKWPoHAKOI7DdfN1XE5dxivqK/jE5CdoGYjZbEYqlYKu65iZmcHy8jJeeeUV9Pf35/0MhUbyEbNtIsqyfwPZqep8yLJMR9AZp7JUYj8zMDBAu4pbWlqqKl2w2+3geR67u7twuVw55zKXAqkBNIq6K1euYHx8vORraj6fWhL1XFpawrVr1zA6OlpwncbaxlQqhXg8njcSXAlPP/00fv3Xfx2Li4vY3t7Gl7/8ZbzrXe/K+/6/+qu/wmc/+1msrKwgmUxiamoKn/zkJ/GDP/iDNdunR5lH76rLqDsOhwMTExMZ/1auBU4tada2OY5DJBLB1tZW3mhYPURzPpEIHA9S+fznVfyjf8Rhc5PLGSjUweE6RvHP8QX8Dd4JAQXSyHfuwPTud8Px7/4d9Lm5svYzlUpRUbi/vw9VVSFJEtra2jA1NVW0g/Y8THnJhjQpkWNydHQEi8WC7u5uXLhwIaOZi6RiSfc+ORY20YbXd70er+96PXYiO9jc38TXbn8N1wLXEIgFEEvGkNSSSKfTuB29jZASggoVaf3Yi9HKWyEIAqKI4oXgC/jTp/8UP/W2n6J+pyaTCel0GqIoUqFosVhOdAYTCqWLgWOPQSIUs2cqlxJJJHR0dGQITpvNVpFINI7v297erkoAke9nYmICV65cgclkQmtra9nrMUYBzWYzFXU3b97E0NBQSdeRQrWRFosFCwsLWFxchCAIBddpTFuHQiEAqGkkMRqNYm5uDu95z3vwIz/yI0Xf//TTT+MHfuAH8OlPfxperxd/8id/gne+85144YUXsLCwULP9elRhIpHREERRRDKZbMq2G5VuJulAYzRMFEXYbDaMj49DkqSGRMMKiUTg2Bv7T/9UwT/+xyZsb+d+jwYe3+D+D/yi5bfwn5IfyZ12JgQCkH7xF9H+5JM5O5/pOnMIILfbDVmWMTc3V1HDyXkQiSTCTKLMgiDA7/ejv78fe3t7sNvtGDFEaok1DfCqCDGmc43HsMXWglnHLFpaW7CaXsWL6RfxMl7G3cRd7Cl7SGpJqPrxb4MDB4EToB17JR3XMzoFLO8t4+rVqzRqJQgCrUuz2Wy0M9hisWSkegmFIonAq6JsfX39hNm2sTO6FPr6+pBKpaipdaXpYo7jMDU1heeffx6Hh4cVT5sh34/P58PU1BQ2NjYgimLO41RoHdkCz2q1UqEoimLBSC6hmCG31WrFwsJC0XVmdzabTKaSxySWwhNPPIEnnnii5Pf/9m//dsbfP/3pT+Ov//qv8dWvfpWJxBrARCKjIZTik1gv6ikS4/F4xnhAkg7s7OyEx+NBKpXC5ORkXbadj1LqA6emgP/6XxU8+aSISCT3exRdwGf0n8XrOq7jh7d/r6BQ5KJRDP3RHwGyDO0Xf5H+eyEBJMtyVfWEZ8nWxkg+g++WlpYTTUqkLIEIQyI6AFBhaBSI5EHFWOtqt9shyzL+8Wv+MX5A/AF8+vlPY/PGJhWIOnRw4KBDh6ZrMMOMpJqE3WQHz/HwtHjw8OFDWK1WDAwcz6smna2KosDtdmNsbAwbGxs5awuLRRKBV61jsuvt8tUz5sM4lWVtbY02N1UCz/OQJAmBQKDker1syHWH53n4/X6Mj49TIVxq9I1879li1+jxKIoiuru7C67H2GySD+M6BUHI2TFuTFuHQiG43e5T5SagaRrC4XBZQpyRHyYSGTWnVJ/ERlHLmsR83o5E+Hg8Hvr5b9++jXg8XpPtlkOxSCLhh35Ix0c/quI//ScBqVT2q8efIZYU8HPqb2P2jUcYeuEvkKPjhSIkk8B//s+IBoO4/d730hQ7Mfout0u7GGcl3WycikOM4s1mM1paWjA6OppRb5kdLeQ4DkdHR0in09S6JFs0Gc3VA4EAVFWFLMvo6OjA9PQ0jfJ858538GvP/Ro29jaQVtOwilaktTQUTYGmv3q+qLoKURdhFsxIqSnMtM1goW8Bly5dgs1mQ3t7O4DjWjYS5WptbaW1k9m1hcUiiQTSbWs02640XTw5OYmVlRUcHBygs7OzrOWN6LqO9vZ27O3t4caNGxgeHi67WQR41a+1vb0d6XSaHqdSTMmz12HE6XRibm4OKysrEEWRfjf51lNKJsPpdGJ+fh7Ly8sQBOHE8cvubD5t9je/8Ru/gUgkgh/7sR9r9q6cC5hIZDSEZovESiOJ2ZEZY0NFMW/HRozly0WpIhEAPv5xDRsbHL7yFWMjS+ZNcGdXwLu7/xjfeb8ftj/6LLI8dDJJJuH8gz9AWzwO/yc/2bAU+2kjnU4jGAzSTuRUKgVJkmg0yeFwZET/jFFCY7Swr68Ply5dwr1792j6T9f1DL/Ro6Mjaq4+Ozt7woRe1VT8/tLv4w9X/xDbkW0q2nToEHkRPHhougZVV6FqKnjw4EQOaS2NSf8k3tr3VrjdbszOzmJ1dRUWi4XW6ZHvVlVV9PT0IJFIYG1tDRcuXMgQvqUKPbPZnGG27fV6K4pS8TyP2dlZPPfcc9jf30d/f39FDyeaptEawMXFRZhMppJSuwTSXW3cdk9PD22MuXDhQtFUrTEamQuPx0NT/qIoZpiBGyklkkgg3/fa2hoEQciwFsqettKM0Zb5+PM//3N86lOfwl//9V9XVPvJOMmjd/VmNITsKM9ZEomJRCJjgoemaZBlGe3t7Zieni7Z27FeY/lK2W6pIpHjgN//fRXXrvHY2ACyBSJheVnAv3rsP+O//GovhE98Atyrrtwnt59Oo/3P/gxqV1dG6rnWnKZIYnY96uHhIex2O/x+P6ampqiFDHkv8GoakfyX3GiN0UKS/rt06RLi8Tj10ySd8T09PQXT9tFUFL/87C/jr678FY5SR8f/yIFGDnXoEHgBAgSIOE4hWwQLulxd+Cej/wQ/PvXj6HIfd+SSTvOVlRW89rWvhcPhAM/zGaMvR0ZGsLGxgfX1dWrQXGokkWA02+7r66s4lSmKIlwuF8LhMG7duoWhoaGy10EimTabLcMAvNToZL6aSNJBTZp1Cs1QJvWIhY6h0QycGMrnWk85s5qNdZSkTAQ4mW4+LfY3f/EXf4H3ve99+NKXvoR3vOMdzd6dcwMTiYyG0CwbGqB4dzOpESPCMBqNwu12w+/3n+goLYdm+TOWIxKBYz/sz38+jR/8QRP29nK/R9OAP/kTDq0feyt+6Gd+BvOf/SxMR0f5V5pMQvjP/xnweqH97M+W+QlKo9kiMbs7mzxMdHZ2YnZ2NiNCRERUroYTACeiTZqm4eDggJ6Tqqri3r176OzsxIULF0qK3gTjQXzsWx/D125/DfF0nB4vTdcgcMLx/G7DKvw2P17X+Tr8+OSP4/v7vh9W8WQtX3d3NxKJBJaWlqiJOel4Jh6KJNVL5iqXE0kkELNt0uhRDT09Pbh37x7MZnNJYwCNGH0Ws8f3tbS0lLW8EdKss7m5WXSGcqkTW1pbW6EoCp2Gk50GJo1G5eD3+0+Iz1yRxGbzxS9+Ee95z3vwF3/xF/ihH/qhZu/OuYKJREZdyBVJbJYFjiAIGZ3Vuq4jEolkdCGbzWZaNydJUllP3IW226x0c7nHenIS+NVfVfBzPycikcgWH8ffYyrF47OfncS7n/5F4G1vA/75PwcePsy7Ti6ZhPCJT0BvbYX+z/5ZuR/j1KFpGhRFwfb2Nm7fvk1vkH6/H/Pz8xmp0ezUsfFProYT4LgJijT4BINBGr0ZGBiALMt48OABXn75ZQwODhYViLvRXfyrb/wrPHXnKaTU1KsCEceRMR06oAOczsFqsuI1na/Bz1z4Gbyl7y1F1z00NIR4PI6VlRU89thjEAQBPM+f8FBcWlrC7du3M1Lr5eD3+9HZ2Yl79+4hEonkNNsuhqZpsNlsdLKIxWIpKw2ZHQn0+XyYnJzE1tYW5ubmik4aKSTwSO3k2toaHY2X672l1hICx76TiqLQCKWx5rGc9Rgxis/5+fkT3c21jiRGIhHcuHGD/v327dtYWVmBJEno7e3Fxz/+cdy/fx+f//znARynmJ988kn8zu/8Dl73utdhZ2cHAGCz2U5NlPMsw0QioyEQkViplUQ1EJH44MEDehNWFAWSJNEpMHa7veZ1Nc1MN6cLNJjkQlEUvOMdATzxhBVf+Yofum48Fq/+/0BAxPveZ8fXv/448KUvwfR//V/A7u6JzmeyBBeNQvzgB5Hu7i5oj1MJjYgkEuFGzhtyg8zuzi5kT0P2lczNJaiqmhEtJD6asixjaGgITqcz45zs7e1FLBbDysoKXvOa1+S94T8IP8CHv/ZhPHPvGaiaCg7csc0Nd2xzAx3HAlHg0OfqwwcWPoCfnPlJWMTSOs2JPczS0hIVDuSzEQ9F0oSyvLxclSG1z+fDw4cPsbq6iscee6zsbngi8jweD41Mmkymkr0Pc0UCSRc6qb0sJF6LRQF5nqdek5ubmzlH45U7+7m3txeKopyoeSynJjGbzs5OqKqK1dVVeDweGj2sh0i8dOkS3vrWt9K/f/SjHwUAPPnkk/jc5z6H7e1t3Llzh77+B3/wB1AUBT/7sz+LnzVkLcj7GdXBRCKjIRgL3BshElVVpZ58Dx48QDKZRDKZhN/vpxGAeu9HsyKJpcxRzldD97GP+XHtmhubm7lvxroOvPACj1/5FR7//t+/Dun/8T9g+tEfPRaKZPvZ+3N4CNNP/ATS3/42UEbRfynUWiQS4UaOSzQazTBA39raQl9fHzo6OvKaWeeLFhq7nAOBQEYEe2RkpGiTD8dxtCaQiLPsc3g3uouPfP0jVCCCAxRdoYKa547fL4oiXtv+WvzKW38F0y3TZR8nnucxNzeHl156CVevXqWj+YweilarFVNTU1hbWyupizcXmqbBYrHA6XRS78NyomHGh1LSbLa+vo6FhQU6laXY8rmEVVdXV4YfY740bikCTxAEOkXF6EdJqETcDQwMZAhFi8VScSSR0NPTA1VVcfv2bSqMQ6EQent7K15nLt7ylrcU/F1nC7+nnnqqpttnZMJEIqMuZEflyEVOUZS83cDVQFLIJCoTDAZhMpng9/vR0tKCSCSC17/+9TXfbiFOW+NKdkOO0dNxZmaGNuR88YvAW9+qIxDIHVlVVeB3f1fAD/6ghte//jGkv/hFCP/0n4IPBvPuE7e9DfHHfgzKU08BJTb+FKMWkV9d1094ORpLD2RZpucrEX9EBJF/K2RmbZxBHQgEkEqlqCXQ2NhY2RFsEnl66aWXTsxNDiVC+Ni3PoZn7z0LVVOh6sdRRE7naIOKrulwmB141+i78KnHPwWPpfIokMlkwsLCAl588UVYrVba9Wv0UPR4PGhra8Pu7i7C4XBJwswIEWlk5F4+cVxoeeN7Ozs7M2Yzl9JZnG9b/f39tEv54sWLOUtUSjXzJqPxFhcXcfPmTQwPD2fsQ7kikfhFGoViNZFEQl9fH+7fv4/79++js7OTzW1+BGAikdEQOI6reYcz8YcjN/h0Op3TZmRnZwfhAt249aKZNYkkumWMioXDYerpWKghZ3QU+I//UcGHPmTK4Z94TCTC4X3vE/Hiiwrsb3gDYr//+7D8P/8PTAV8Ifn1dQjvfS/UP/szoAZR3ErTzUS4EXuaZDKZIdxy2dMAr97wg8Eg/H5/zhSycQZ1IBDA4eEhbDYb/H4/nWVe7Y3aKM7sdjt6e3uRUBL4D8/+B3z91teR1JI0aqjpx53FvH58TnisHvz0hZ/Gv3zNv4RJqP5hzWazUXFjs9moVYrRQ9HhcMBut5cszIyQphditr20tFSWsXWu8pa+vr6MMYCF6o8LiTyjcXe+5pNyMicWiyXDaqevr4+uo9KpMePj49jY2MDq6mre2c3lrlMURfA8j5/8yZ+k1xTG+YWJREbDqFYk5hrr5nK54Pf7MTs7C6/Xm/Ni2swuY1VVM7pY6wlJZx4cHODg4ADf/OY3qW/a4OAgZFkuuSHnySd1fOMbGv7qr4z+iZncuMHjIx8R8Pu/r0J7xzuw9tM/jYufLeCjqOsQvvpVaL/929C/V2dULaWIRKNwI41KNpsNLS0tmJyczGtPYxSH5PsbHR3FSy+9BI/HQ21QiC2NsRPZOIO6liPLCMSSZWlpCVarFZ+7+Tn8f5f/PyTV4wYtnuOhqApEQaRCUbJK+OjrPoqfWvgpmnauBcSnb319HRaLhTZzGEtMbDYbvF4vreMrNZtgFHkkLZsr2paPXCLNOJuZdALnE2HFRB5pPlldXc2w/TEuX47AI5ZHy8vLMJlMtBaw0gcLnucxNTVFRWItrkOqqmJ0dBSiKGJpaQn/4l/8i6rXyTi9MJHIqAu5Lkbl2uAQ0WNMIYuiCFmWyxrr1iyRaBQe9RKJRKAQAZRKpWCz2SCKIl7zmtecaH4oFY4Dfu/3FCwuirh9O/9N8i/+QsA736nhHe/g8ODxxzHndML0q78K5PueFQXipz+N9BvfCLzudWXvV+Y+5v9c2VFmRVHyel0WMrMmkUKyLafTiZmZGayuruLg4ADRaBShUAhOpxN+vx8zMzMNqXcFAK/Xi6mpKXzmO5/Bnz38MySUBAReOO5mBpchEH1WH37h+34B75l7T13OxZaWFoyMjNCmGgAZBvQdHR0YGhrC5ubmifnMhcj2WDSabVsslqKWNvka5YzibmNjAzMzMyfeR86LUkYKkuYT40hBoLIooNFqhzT8VRN9FgQB09PTePbZZ3Hz5s2cn7UcVFWFxWLB5z//efT19eE3f/M38e53v7vsUgLG2YCJREbDKMUGJ5foIanA0dHRikRPszwayYW4ls06uq4jFArR40Nm8xpNm3d3d3H37t2qL9puN/Df/7uCd77ThHg89zFPJoEPfUjECy8cfz7lYx8Dd/MmxC9+Me+sZy4SgenJJ5F+6aVjk8YqMDaLhEIhmkIOhUIZUWafz5fXnsbYdJLPniaZTGY8rADA9vY2hoaGMDs7W/F84Gq5p93D/9z/nwjGg+B5HiktBZEXoWoqNBxHQj0WDz762o/WTSACx+e41WqF1WrF888/D13XaenHyMgIRFHM8FAsNWWcS6QZzbYLWdoUE3mCIFCrnlwNIySSXIpAE0WRitfr169jZGQEHMdVLPCI1c7m5iZ8Pl9F9j+5iMfjOT9rqZBaU0EQYDab4XA44PV68c53vhP/+3//75IHDTDODkwkMhpGrnSzpmknRA+JykxPT9ekhqvZkcRq6xITiURGYwVpOOnq6sLc3NyJdGa5ZtqFeNObgPe/X8Xv/q6YN+384AGHD33IiiefPHZX0T77WWjXr4N/6aW86+VeeQXiT/80lC984ThsWQHpdBqqqmJlZQWBQAAAIMsyent7IctyhnCrxMyalDYEAgGEw2Hqidjb2wu3242rV69iZ2enbIPmWvEw+hAf//bHsRPfAThA13QIgoC0loaJN0HTNTjNTrxv7n34wIUP1FQgkoYfY7TQbDZDlmVaizs/P5/xG8j2UCwlZZxP5BGz7c3NzbyWNkT4F7p+kIaRS5cunZjKUo5IBHBifN/AwAAd61cJLS0tGBsbw5UrV6p+CFFVFRzHYX5+HktLSxXNoQZenRJESgnC4TD+63/9r/joRz+Kf/2v/zV+7/d+r6r9ZJw+mEhk1IVcFx8iEo3dpMHgcQQk3829FpAoRqNqAwnGlFM5ZNuwRCIR2nDS19dXdAJMLUUiAPzH/6jh29/WsLaWf5v/638JGBrqwNvepgEWC5S//EuIb3gD+O8Z255A18H/zd+A/+IXof3ET5S0H8ZGnL29PUQiEXAcB6fTif7+fng8noyGk0rMrEltYSAQgCAIkGUZfX19Oes5x8bGsLy8TNOnjTy30moan3z6k1jbWwMAiLyIhJqAoAowiSZomgarYMWPjv0ofuH7fqFmtWjGyUSJRCJnp7aqqlhaWsLGxgZmZ2dPeCiSucqknrK7uzvvNgtFAkmUcn19PadfIfkNFIviGxtGLBYL3Z9SlzdCGnmWlpZgNpurziJ0dHTgzp072NnZQXd3d8VWQiT6Z7Va6f6JooiBgYGy1wMcX1NTqRQSiQQ6Ozvxv/7X/0Ki0Ex3xpmFiURG3Umn0wgGg9Si5urVq/TmMjw8DJfLVdcbLIkEVOsTVi7EN64Uz0Lin0eEczUTYErxSSwHUQT+9E8VfP/3mxAO5/6e0mkOf/iHM/jgB9NoawPQ2Qnlv/93mH/sx4B8Hc/pNISPfQzaD/wAkGfEGXmg2NvbozWpfr8fQ0NDMJlMWF1dxfDwcEEza+NM5OymAmO0MBaLUTE+MDBQ9LwkYufFF1/EjRs3MDIyUuxQ1ow/WfsT/O3Nv0VKPW4/VzQFNsGGhJqAqhyf528feDt++fFfhsBXFok32gMRX0eLxQJZljE2NpbR8GOENJgYbXrIv5N0pdlspnV3VquVzgXOtQ+FRFZnZycSiUROs+1yRJ7D4cDc3BxWVlZgNpvR2tpKBV651yan04nZ2Vmsrq7Shp1qMJlMsFqt1GqnkodoY9qbNMcQoVhOJFxRFNptHgqFABzXxjocDtblfE5hIpFRF9LpNG7cuJFRN8fzPCRJwuzsbEPFWrNEIpDfKzFX7WUu+55Kt1lr652JCeDnf17FJz+ZP+18eGjFhz8s4Itf/F4t4g/8AJSf+RmIv/Vb+esT9/Yg/tRPQfnylwGOy/AVJFNIfD4fWlpaTtSkkpsUEYalmlnnSpEODQ1BkqSyPTxJuvLFF1+Ew+GgHc/1ZHV3Ff9t6b8hmo6CBw+RE5HQEkhqSYj8cdR8zDOG//TW/wSHubzIE4kWEmFI7IGIMCzV19FsNlObHpvNRg2XjR6KLpcLExMT2NzczDlrGDj+bov9ZgcGBpBMJk+YbZPfXam/IzKVhaSwTSZTxVFAr9eLyclJrK+vVx1hU1UVXV1dODg4oJ6H5aaws+1vnE4nFcWiKKKjo6Ps9YRCIZjN5rp07zNOD0wkMuoCx3GIRCLo7u6mdXPXr19HMplsilDjvidAyh3rVS0kkqjr+gn7HofDUdPaS0I9RCIA/Ot/reFv/kbDpUuF0s4i/vZvFfzQD30vsvcf/gO073wH/KVLeZfhvvEN7P23/4aXH3sMwWAQVqsVLS0tGB8fz5hCkh0t5HkeiqLg4OAAbrc7r5k1SVEHAoGMFOno6GhVYpzgcDjobGC73V515KgQ4VQY//6Zf4974XvH5xV0pLQUTLyJHp8OZwd+XPpxWFLFz/VcwplE9gpFC0vBbrdjYWEBi4uLsFqttMHE6KEoSRIGBgZoJDBbcGR3N+eCTKJZX1/PsKEh50g5368xhT0yMlJVqrilpQUWiwX37t1DW1tbxY1k5OF2bGyMeh7m8mQsto7s79FoXSSKIlryRPNz7QtwLBKNvzvG+aSxQ3QZjwwkwtLd3U0v/M3qMgZK66yuNfF4HJqm4dq1a/jmN7+JpaUlRKNR9PT04PHHH8eb3vQmjI+Pw+/310wgAq+aadcanj9OOzud+dedTnP40IdERKPf+wdBgPL//r/QC8zK5RQF8qc/jTa7HW9605vw+OOPY3JyEq2trVRka5oGVVWhKAoURTmuubNaMTAwgPX19QwPuHA4jJdffhmLi4t46qmncO3aNSok3vrWt+LixYvo6+ur2B4oF7IsY2RkBKurq4gXMBSvlj9a+SO8+OBFqJoKHTpEXoSZN0PTNYADnGYnPvr6j+KHX/PDWFtbQyQSObEORVHw8OFDXL58Gc8++yxeeOEFBAIBtLS04Pu+7/voednS0lL1eenxeDA9PY2NjQ0cHh7SfxdFkX63XV1daGtrw+rq6omZ46XOeid+gIqi4PLlyyXb1+Sis7MTPT09uHHjRtXnhyiKaG1treq8IAKPzMwWRRHr6+tlPQjmy6JIkoTJyUlsbW3h4OCg6HqMkcSjo6Oc0d9Kefrpp/HOd74TnZ2d4DgOX/nKVwq+f3t7Gz/xEz+B0dFR8DyPD3/4wzXbF8arMJHIqAv5Glea0WUMNKbDWVVV7O3t4fLly3jmmWfw9NNPU2uQxx57DG9729uocK6nZUq9IokAMDQE/MIvqAUHpty/z+Hnf/5VcaH39yPyC78AvcBC1v19DHzmM7Db7fQGrygKFYZGU3Ke5yEIAniex+DgIFwuFy5duoSNjQ0888wzePHFF3FwcIDW1la84Q1vwBvf+MaaiZ5C9PT0oKWlBSsrK3V5GFrdXcXvL/8+UmqKTlRJqkmo+vGxMQkm/NDQD+HJmSep0FleXkYymUQkEskpnCcmJvCWt7wFFy5cQG9vb8WNEYVobW3F8PAwVlZWEIvFAByfo2Ryh6qqGBoagsPhwNraWsbvtByhR2xojo6OcPPmzYpFInA8cs/tdiOVSp0QruWgqira29vR1taGlZUVpPKNMCqyDnLeEk9GVVWxublZ8sNgoZF8pJRjbW0NR0dHJa+HiMRaPWhFo1HMzc3hM5/5TEnvTyaTaGlpwS/90i9hbm6uJvvAOAlLNzMaRq3H8pVDPUQimRdtnORBGk5GRkYgyzIuXbqE1tbWuqYgs6mnSASO085f/rKG5eX8N+A/+zMe/+f/uYOengfHc6Knp/HmmRm4VldzL6DrEL74RaTe/35oU1MF7WmIJyLpQj48PKTF9FNTUxmeiI2EjEEjnb1zc3M1u4Gm1TR++dlfxm50F9ABFSp4nYeFt0CFCoEXMCaN4RNv/gRMgonW/O3s7OCZZ54BcBw1amlpwcTERMP97Hp7exGPx7G8vIzXvOY1MJvNtOM5lUpBVVWMj49jdXUVW1tbmJ6epmMXy/kujWbb1XQWcxyH9vZ2hEIhmt6t5AGDRPCGh4eRSqVoTWE1qWJRFGl3+NWrVzPmdxfbj3x0dHRkzHnO58uYXZNYy2aVJ554Ak888UTJ7+/v78fv/M7vAAD++I//uGb7wciERRIZdSP7wnUeRGIqlcL29jbW19fx1FNP4bvf/S6CwSBaWlrwhje8AY8//jimp6fR3t4Ok8nUFI9GIhLrkXI+Xj/wuc8pKFSvnkxy+MhHvDCZ7Lhw4QLe9va3w/KXfwm9UHoqHof5gx8EB1DRRwSi8bh/5zvfwdLSEsLhMDo7O/HmN78Zb3jDG5BIJJBIJJoiEAmk4zkSieDGjRs1W++frP0Jnrv3HETu+AZt4k3QoB1HEaHDa/HiwwsfRmI/QaOFN27cgCzLsNvtaGlpwcLCAnp7e5tmeEwaj1ZXV+lvgud5mM1mKginp6czjl0l0UBitr29vV3Vb0DTNDgcDvA8j42NjYoevIyp4omJCZjN5hPR0mL7YPQlJBBPxkAggFu3bhVdT6FIIqGnpwfd3d1YWVnJmxqvZ7qZcTphIpHRMM6iSCTefNevX8fzzz+Pb33rW7h16xbMZjNmZ2fx9re/HRcvXkR/f3/OGrdSLHBqjXGySL0YGwM+8IEEOC7/Nu7dc+CrXx2Dz+c7tuXp7UX6Z38WhXLVwtIShL/+a+i6joODA9y4cQPf/e538Z3vfAd37tyhPnSPP/445ubm0NXVBavVCpvNhtnZWVy5ciWj9q0ZkBv4vXv3sL29XfX6bh/exu8t/h7iShxpLQ1VV6GoCgQIx3WJEPFa52vh2nHh4OCAPrC88Y1vxMTEBB577DGEw2HcvHmzBp+ucjiOw/T0NHRdz0iVkogiKSWYnZ3Fzs4O7t69W3HK2O12o6enB8lksuLzgXRWz8zMIJFI4OrVq2X9pkjZhDFVPD09DU3TsLW1VdK6yDUrl8AjnocPHjzAnTt3iq6nlOjlwMAAWltbaZlCNtkikdnenH9YuplRN0h0gNBMkVjOtuPxeMaEE47j6KSNcs2+81ng1BNyU62mJisXRnuU/f19vOlNcXzpS2/D/fu5I1O6/v9n77zDGynPtX+Pqm3JTcW9y92We9m+G9gA2YQcUgj1QKihJbQUIIQkh8MJLRuSQA4Q4KMnJCEEEggcsmR32V13W3Lvva7kbnVp5vvDvINkS7YkS5YT9OPai115NHo1lmaeecp9A48/zsOllxqQkLAaKFu/9z3w/vQncPr6XL0I6O99DyfFYoDP31DMei0SiYQdHqmurg6YVR7g6PG8Fa08hmHwaM2jmFieAJ/Lh8VqAZfirmYQaQYMxSAjIgMPnvsg0uLSnAYTJGhtaGhAWFjYtsj0uILL5bKSQX19fcjOzmYfB1alofh8PnvsSFnaG0QiEUJDQ9Ha2ory8nKP+y1JuZrP57Ml7KGhIWRkZLj1fGeOLfal4t7eXmRnZ29YKibnLFfHgOg7trS0gMfjufzdWq1Wt6RqKIpCVlaWQ+nZXhbKfj/BTOJng2AmMci2QQI1f2a4XLFRJtFqta4bOJmcnERERAQqKytxzjnnOGStPH3dQGUSt/q6pOdyeHgYDQ0NOHbsGDo7O0HTNLKzs3HBBefgtdd42EhacHkZ+Na3BGCYT8TFhUJYfvUrbPSk0Kkp7K2rw8GDB6FUKhEfH++2LlxycjJkMplDSTNQkN7UrUy2/r3v73i3b1U022gxwspYYaVXAweGwyA6NBr3H7ofikTFhuVEIvDc1dXl1hSrPxEIBCgrK8Pk5CTGxsbYx7lcLvsexGIx8vPzYTAY2GEXTyET8KSE6iwzttnzyXeJZO3Gx8cxPj7u1vPtS+r2kKBdq9ViaGho032QcrUrIiIiUFRUhN7eXmg0Gpf7cbcPkvTWhoaGQq1WO9xc2+9naWlpW3utgwSGYJAYZNsgjgvbHTSR1yYnbYZhsLy8jKGhIafBz7nnnovq6mooFAoHqzdvCEQmkazXm+NssVgwPT2N9vZ2nDhxAmfOnIFWq2VLmAcOHEBBQQFiY2PB5XJRXc3ga1/bOEN78iQX773HA0VR0Ov1GElPx1x5OTa6VQh/9llQXgRWpPeLoihWCiWQkIlnd4NW+8/mqbpT+K9j/4Ul8xL4FB8ccCDgCcDlcCHkCsHn8HFEcQRfyvySW2shgthqtRo6VqMoMBDXj76+PofAhvTx0jSN6Oho8Pl8jIyMeBUokiAvPT0dEolkXcCzGWsHRkjWbmBgAGfPnnXr+YDzLGBISAiKi4s3DTqd6Rs6Izo6mhUCd3YT4E5Poj1kCIzL5aKtrY19L/b78fXgSpCdSbDcHMRvOBtcAdw/8fmaxcVFtLa2YnZ2FlarFRKJBDExMcjPz3fbScJTdnomkWEYLC0tsSXkhYUFiEQiSKXSdSLfzqzvaJrGz39uwT/+IYJW6/z40TRw220ciEQnQdOrYtZ48EFEXXQRKBfBCjU7C95DD8H60ENevf/i4mLU1dVhdHQUqampHu/DV6ydeCZexvYQ20rS3mCxWCCRSHB8+TiGzcNgwMAKKxiKgdW2GuRYaAtSI1Nx7557PfrcJiUlQa/XQ6VSsVPGgSIqKgoFBQVoa2tDeXk5G3CsPU9ER0dDpVKhoqLCo/Xai2k7E9t25/nOBKiJriCfz1/9LLtgsyygvesJsQJ0tQ93sJeyKSsrcxDv9sZtisvlQqlUQqVSoaOjA4WFhX7tSVw77DU0NASVSgWJRIKUlBTce++9mJiYwMsvv8xuo1Kp2OdqNBr2WObn5/tsXZ91gkFikG3D3vnE3xcnmqbXOZzw+XwkJSWhqKho22RSiCvIdrORDI7ZbGaPi1arBU3TkEqlSEhIQFFRkUPvEsn8Eh9k8gf41As5KorCQw9ZcPPNApeWfVotH2++WY1f/pL6NAi4/HJwnnvOpWUf74UXYP3BDwAv+p6EQiGKi4vR2NgIsVgMqVTq8T58hb3H88DAABQKhYN0ErGtlEqlrITPjH4Gf1X/FWarGUKuECabiRVJ53P44FJc3FF5B5IikjxeT1ZWFvR6PdRqNcrLywM6DR4bGwuj0QiVSoWqqiqEhoayOphLS0uwWq1sn11ra6tHUjT25WKSGWtpaUFXVxfy8/M3Da5dWQLK5XJkZmaira1tQ7kYZ0HmWogVYHt7O3g8HiQSicPPPb2hTkhIgMViYS0KySS7p5lEAtGebG5uRnd3NywWi9/KzY2Njfjc5z7H/vuuu+4CAFx99dV48cUXMTU1tW5Ap7S0lP17U1MTXn/9daSmpmJ4eNhn6/qsEwwSg2wbFEX5dXhFr9ezF965uTlwOBx28GF5eRlmsxk5OTl+eW1XcLlcrwR0t4q96wpN01hcXIRGo2ED5oiICMhkMpSWliIyMtJhIpr8sc8WkgvqWj9kYDUTdvjwDPLyZOjocH7BBIDf/z4C3/ueAWlpq/+2/vSn4L35Jqi5OafbU0tL4D34IKyPPebVMYiMjEReXh5aW1tRXV0dMOkXYPW4JScno6+vD2NjY2AYBhKJBHFxcSgsLFw3VPCbpt9gaGEIVmbVXQYUwNAMaNCw0lZUJlbiisIrvF6LUqlEQ0MDOjs7UVBQEFBrNaKh2NzcjNTUVCwsLGB2dhY2mw3R0dEICQlBbm4uWltb0dHRAaVS6dZ61w5ukYCnsbERAwMDyMzM3PD5NpvN5c1sYmIizGYzG2g761V2V6eRWCCSoHNtBtDT4C41NRUWiwUtLS3s2rbiW0/cs5qammA2m9m2oeXlZZ8Orhw6dGjD9pAXX3xx3WOBbif5LBAMEoP4DVeuK74KEq1Wq8O0rcFgQFRUFGQyGRQKhYMbwPDwsF/t0lwRiJ5EYPXYT01Nob+/H7Ozs+BwOJDJZEhLS4NUKnXwsCYBob224mZi1ktLS6zfL8mE/fSnelxxRR5MJucXcKNxdYjlgw8+CZojI2G95RbwH3rIdTbx1Vdhve8+YIOy3kYkJCRgeXmZzVRtl284uYiuPUZyuRxarRZlZWUuS5U9sz34S+9fYKWtEHAEMNvMq8EGBQgoAcL4Ybhnzz3gczeYGNoE+ynj4eFhpKene70vb7EXo19aWoJer0dPTw+Sk5OhVCrZLJXZbAZN02wm0J2pYMB5Jo8MjTQ1NUEoFCI5Odmj59uTlpbGCmSXl5c7TAEDngV48fHxDvsiNzTeBncKhQIWiwVqtRplZWVeZxIJQqEQpaWlqKmpwczMDCIiIoKDK58RgkFikG1lK0EiufDaO5yEhoZCJpMhNzcXEonE5Qk1EKLW5HW3oyfRZrNhfn6ePTYWiwUajQZxcXHIyMhwCJjXlo7J+khg6CxbaDabWYcTkuWRSqWIj493yIRddZUNv/2t69PKmTNcvPceB0eOfCKJc+ed4D3zDCgXU5nU0hJ4jz4K689+5vWxycrKwsrKis9dUNZisVjY46PVamGz2SCRSNYdo5GRETa76SwD9WTjk5hamYKVtoJDfSIoDgo0Q4OhGJyvOB/7k/dveb0hISEoLS1FQ0MDQkNDERcXt+V9bsbaGzvSG5yQkMCWXY1GI6utCaxmsog1HpGPCQkJ2bTX1JUEVFhYGIqKiqBSqSAUCp32AgKbZwIpikJ2djba2trQ2tqKkpISh0DM0yxgamqqQ6AoFAq97t8mfZgdHR1QqVROBbk9hdxYDg8P48yZM0GdxM8IwSAxyLbiaZBoMpnYiy658EqlUrZM524JMVBBor8yiQzDQK/XsyXkubk51hIwMzMTPT09yM3NZXvx7LOF5N/k/yQgtL8gMgzDlv1Ipic8PBxSqRRFRUUOJWp7Hn7Ygr/8hQuNxvUQy513CnDeeUbweABCQmD5zncgeOCBzbOJdmU4TyB+t/X19RgcHIRCofBqP2uxv2mZnZ3F4uIiO/RDMmHOjlFKSgpWVlbY4RH7IKB5uhn/N/h/oBkafA4fFptlNViiAC6HC2moFHdW3emzQDc8PBxKpRJtbW0ICQnxeWaIYRjodDqHwShyY+fMQrG0tBT19fXo7+9HVlYWAEcNRSJurVKpEBISgtjYWJevvVEWjvQCdnR0QCAQOH3f7vQUUhSFgoICh+EO8n68CfAyMzN9lgHkcDjIz89nhzu2+pkh522xWIwf/OAHMJlMwUziZ4BgkBjEbzg7KXG53A2DRGcDJ6R/rqSkxOWFdzP+HTKJVqvVIWA2mUyIjo6GXC5Hbm4uRCIRe8z7+vpgs9lclpHtS8kEo9HokC2kKApSqRTJycnrStSuCAlZDRSvv17gKubD+DiFX/yCi+99b/X3YbvtNjC/+pXrbOLcHHi/+hWsP/yh28dqLcTTt6GhAeHh4S6zR5tBsoUkMLTPqCqVSrd0NIlMT1NT07qJ56can4LWoIWFXhXN5nA4AAM2aLw4/2Lky3w7uUkGMVQqFaqrq90SXd6ItaLrZrMZEokEsbGxrJKAKwQCgUN2MylpdTCHfI+sVitEIhEKCwvR1tYGgUDgsmy/mZg8uaFyJbbtbk8hl8t1EMgmXsruBJlrIdPwJDspFou3VCbmcrnIzs5GQ0MDenp6ttR/arVaQVEU9uzZg5///Oe45ZZbcPLkSVx66aVery/IzicYJAbZVng83rpgjWQaSHDC5XJd9s95y2bBqb/YSibRWXk9LCwMMpkM+fn5kEgkLuVpuFwuVlZWEBUV5TIoJJaDJOhZWVlBZGQkO+xjX6L2hEsuseGpp2g0N7u+wD72mADXX29YbTUUCGC9+WbwH3zQdTbx+edhveceYAsXzPDwcLakWVVV5XIq1Z61v4OlpSWIRCLIZLINs4WbQWR6yMRzZmYm6ifr8Y/hf4ABAy7FBc184thBccEFF/HieNxYcqPHr+UOKSkp0Ov1aGlpQWVl5br+us3Q6XTs52h+fh5CoRAymQx5eXkOMkruYO8iIhQKIZfLAayWnRmGgc1mQ2RkJFvqdeWm4o7jUGJiIkwmEyuxY3+u8STIc+bK4m6QuRZi39fS0gKtVuv1DY095HzQ09PDBrGeYi9/U11dDR6Ph+uvvx5yuRznnnvultcYZGcSDBKDbCs8Hg9msxkzMzPshZf0IJE7+/DwcJ/3jf2rZBJJ759Go2H1HF2V19f2FdrL06Snp6O9vR0SicRhWpJYDs7OzmJubo4NyIngsC+kiSgKeOYZE/bsCcUnrWTr0OmA73yHj1deWd3Aescd4D31FKjZWef71GjAffFF2K67bktri42NZUu91dXVToOhtf2XNE2zfXNFRUU+s/uzt8sTi8X4TdNvsGJZgcVmAZfDZQNFG2NDKD8UVxRegdRI/2k+ZmdnQ61Ws1IzGwU4a3tg7b/DOTk5W9YdjY6ORn5+Ptra2lBRUcFO0dprKBL5HDJhvPZm0l1byvT0dJhMJrbEa/8angR5xJWFDMVsRQ+Wy+WiuLgYZ86cwfz8vMMgmaeQsjtZmyfWgvbYB4kLCwuIjo7GY489hq985Sv4xz/+gaqqKq/WF2RnEwwSg/gN+0EJItis0WhgMpnYjFheXt6GAye+wlkGczvYLDglvX/2mnnh4eGQyWQoLi52yFS5kqcBHKVpKIpCTEwMUlJS0NraiszMTPY1yAS4VCqFQqGAWCz2yyBHfj7wjW9Y8dprrn+v77zDQ2enFfn5DCAUwnr11eAfPep8Y5oG/4knYLv22tUodAtkZGRgeXmZDYYoimI/n6S3UCwWbzlb6A5isRiFhYV4s/ZNfDj4IRiGWc0+07ZVySgODzRNI0mchKuUV/llDQTSu9nQ0IDu7m7WuYZg72lOemClUimys7P98h2Oi4uD0WhES0uLg4Yij8djM4opKSkwGo3s79J+De4GiWTIo7W11UFs25tysUgkQlFREdRqNaKiorZUuufz+YiIiGAdeLwJ7IBPg0QSxDY3N4PP52842b3RfoBPfZuvuuoqUBS1LUNPQQJDMEgM4jesVivUajWbjZFKpYiIiACHw3EQQd0OSLC2lTtyb3Amam00GtmL7ewnmTOZTIaUlBTIZDKn8jQbiVmvlach5fvFxUXo9Xq0t7cjPj4eWVlZ2xKQEx55xIJ33uFiedn58bZagZtuEuDkyVVPXetdd4H329+CWl52uj01MgLq5EkwBw9uaV1kKrWxsRG1tbUwm82sbmFiYqJPs4XuIJfLcdJwEnqLHjTo1cCQQ8NG22ClrQjlheJK5ZWIF8f7fS0k41RfX4+wsDBERESwn1W9Xs9KTGVlZTn0wPqL1NRUGAwGhzI4h8NhJ56JlWZbWxuroWjvOORukGdf4iVi296Wi6OiopCfn4/29naflIqTk5MxPj7uVWAHOApp25fyeTwe4uPd/0zZ74cEiRRF4aqr/HvzEiSwBIPEIH6Dx+NBLBYjJSWFnYYdHh526i3qb4gA7HYHiaQXkvRraTQa6HQ6REZGsn2X9v7QzuRp7NfsTJ7GXlZkdnYWZrOZLf0pFAq2Ad4XFyxPiI4G7r7bgp/8xHUJu6WFg7//nYMvfIEGoqNhu+gi8F55xfnGNhsEjzwCkxdBon02234S2WAwICUlBQqFImDOI52aThyfPg4aq6VlmqZBgYKAJ4CNtiE5IhlXFHgnnO0pZHgpLCwMfX194PF4iImJgUKhgEQi8bhXcauQLJ9arWbLwRwOhw0U12ookql+Mjjiye90rdi2p8+3Ry6XIzw8HBqNBisrK271vzrDZrOx2UliObfRRLerfdjfGEZERECpVKK1tRV8Ph8ymcyt/diXm4O+zZ8dgkFiEL9BUdQ6uRF/Oq5sBLkD3g5LQACsPM3MzAxsNhtaW1vZnkupVOpwsXUmT7OZmLW99Iq9rIizQYGioiI0NTUhIiJi2yUr7r7bht/+lsHEhGtJnLvvFuD8843gcADLvfeC94c/ACaT0+05NTXAzAzgxoWS9BaS48QwDKRSKRITE1FcXAyhUIjZ2VmoVCrExMQE7KL3bMuzMFqM4FAccMGFlbGCAQOTzYRQ3movYozIPwE+ceMh2UL7G5iYmBgMDAwgOTnZp84ankJsDdc6xNhnFBmGgVKpREtLC0ZGRpCWluZVkGcvtu1NudkeoVAILpe7oSvLZpC+xsjISHaim8/nr7Pv2whnMjoSiQT5+fno6Ohg21rc2c/acnOQf3+CQWIQv0JRlIN1UqCmjMlJ0l99ic7cXyQSCaKiojA3N4eDBw867S1c+8eVmLUroebY2FgUFBRs2PsUFRWFrKwstLa2YteuXdsSJBM4HODnPzfj8suFLn2dR0YoPPccFzfeaANSU2Hbswfcf/7T+cZmM/gPPwzLL36x7kf22UJ7bUfS3+lM21EqlSIzMxNqtRrV1dU+maT3hP75fvyp50+wwbbah/jJfyHcEFgYC1IiUnBl4ZU+fU177VEidUSGl5zdwBC3mu0swa+Fy+WyGor2lnrONBTJVLS35eKwsDC29Dw/P+9RSdYem80GuVyOlZUVNgvqaSbWfvhFKpWy8jilpaVuB2mu9CJjYmJgsVjYfs7wTXRI1waJwUziZ4NgkBhkWwnUAAlFUT6dcLa3FCON/M7cX8xmMwYHB9nX9UTMmmR4fDFMkZycjIWFBdYfdjtL7hdeSKOoiIZK5Xq9//VffHzzmzYIBIDl/vvBPXkScPG74v7xj7A8/DAgFLrMFnqi7ZiSkoLl5WWo1WpUVFRsa9n56eanoTPrwOfwwaN4MNvMoEHDYDNAyBHiG/nfgDxMvqXXsP8sabVa1nNXJpNtKnWUmprqII2zXf2sziDWcERDMTExEYCjhmJYWBhbSiVlaW8g5eGenh6EhoZ6lYEnwVl2djba29udurJsxtosYFxcHOsZXVZW5lT6Z7N92JOYmOgg3r2RhqXVamW/T77OJJ48eRKPPfYYmpqaMDU1hbfeegsXXXTRhs85fvw47rrrLnR0dCA5ORn3338/vvnNb/psTUFWCQaJQfzK2kxioMrNwNZlcEg2j7icEEuxmJgY5OfnO5yw15aMDQYDQkNDNxSzJhke8se+PLrVYQqKopCfn4+6ujqHTMx28b//a8a+fSGu4j7Mz1P46U95eOghK5jqajDp6aD6+51uS83PQ/vUUxjYu9chW1hSUsIORnkCEbdubGxkhxa2I4ieWJ7AX3r/Aho0LFYLOBQHfA4fXA4XZpsZMr4MX0v7mlf7dhY8k6BQKpW6nU0m4s4tLS1oa2tDSUnJtt5grEUsFjtoKJJ+OnsNxYiICOTk5KCrqwtGo9GrjBc5T2wktr0ZpFzN4XBcurK4s461AV5KSgobKDqT/nG2j41+36mpqbBYLA52gK72Y59J9KXft06nQ3FxMa699lp89atf3XT7oaEhfPGLX8RNN92E1157DceOHcP111+P+Ph4nH/++T5bV5BgkBhkm/lXChLXZmDIsINcLkdRUZGDpZgrL2SGYRATE4Oenp51WQR7d5nZ2VmHDA/pA/NlVos05tfX1yMyMpIVKd4OiooYfOELVvztb65POc8+y8d3v2tFdDQF6y23gH/XXS63jX71VSRfeqlPxdaLi4tRV1eHsbExpKSkbHmfm/Fsy7OYNcyCz+EDDGBjbDAzZnBoDnhcHi5IuwATvRNIjErc9AaBlNpJYGgvpeRt8Eyw7wkkjiKBhPTTEQ1FUia11zeMiYlBd3c3ent7ERkZ6fENFulnTEpKYv2U14ptb4Z9uduVK8tma2AYxmkWUKFQsIHdZmVsq9W6YTsKRVGsHeBG+/NnufkLX/gCvvCFL7i9/dNPP4309HT8/Oc/BwDk5eXh1KlT+MUvfhEMEn1MYMb5gnxmIUGifXZxu3CnH9JkMmFiYgJqtRofffQRGhsbsbKygqSkJBw8eBD79u1DTk4OpFIpO0FJ0zRsNhusViusVqvDRDKXy0V+fj70ej1GRkZgMBgwPj4OtVqN48ePo7W1FSaTCampqTh48CCqq6uhUCj8ps0nFouRl5eH9vZ2GAwGn+9/I44etWCjBJZeD9x//2pGSHvRRaA3KH2JBwaQsLTk0x7CkJAQFBcXo6+vD3Nzcz7brzPmjfN4p+8dMAwDk9UEDsWBkCsEn8sHxaGQGJ6I7x78LiQSCdRqtdObG4vFgunpabS3t+PkyZNobm7G8vIyEhMTceDAAezatQuZmZk++Szx+XyUlJRgamoKY2NjW9qXL4iPj0daWhpaWlpgNBoBgNVQ5HA47DkmOjoaarXa4xtT+wAvPT3dq/2szQISV5bZ2VkMDw+79XwAToNEMvUdGhqK1tbWDW9+N/Kwtt9fbm7uhvtbK4ETyJ7EmpoaHD582OGx888/HzU1NQFa0b8vwSAxiF9Ze7dsf7e/3TjLJNI0jbm5OfT09OD06dP45z//idHRUYSFhaGsrAznnHMOSkpKkJSUBKFQyGYKrVYrGxja6y9yOBy2xERRFGw2G9u/09/fj1OnTmFqagoRERGoqKjAgQMHUFhYiPj4+G0bKImPj0dcXJzL4MNfJCYCl1668UX2tdc4+POfz0DV1YW5/ftdb2i1gv/kkz5e4eqQT25uLlpbW/0aRL/e/jqGF4fBfPKfmTbDbDMDDECBwsHkg0iOTEZ+fj44HA46OjpA0zQrrNzQ0IATJ05gaGgIQqEQSqUSBw8eRHFxMRITE/0ygBMWFoaSkhL09vZCq9X6fP+ekpaWBplMhpaWFlg+sfYhfYiLi4sAVoXThUIh2traPHI+sp9sJgGUQCDwaD/OSsXkRmRsbAwTExObPh9wHiQCYMvYANjPhzM26kl0tj+Kopy+z7USONutlGDP9PT0Oimg2NhYLC0tbfvN7787wSAxyLZiL0Wz3ZChGb1ej9HRUTQ3N+PYsWNQqVQwmUzIyMjAOeecg927dyMrKwvR0dFsttBmsznNFpKLkr1MjU6nw+joKFpaWnD8+HF0dnaCx+MhISEBAoEAxcXFSE9P99ob2ReQcldPT8+2vu7jj1uwUWuXxcLByy/vw8GDByF+6KENvZq5f/vbqiK3j0lMTERcXBxUKpVfgmiDxYA/df9p9fMDDkJ4IeBz+GDAwMbYIA+T49aKWwGsBisJCQnQarU4fvw4GhoasLi4iPj4eOzbt4/9rEokkm0ZuCFC0W1tbVh2IXq+XZDgTSgUQqVSYWxsDC0tLTh58iT6+vqQkJDAZvItFgu6u7vdrmCsnYwmYttWqxVdXV1u7ceVhI5YLEZRURH6+/uh0Wg2XAOXy93wHEHK2AaDAT09PU7X5U4mce3+zGbzuvdJgkQiwRWcbv5sEAwSg2wrJKDaziDRZrNBo9FAr9ejt7cXH3/8MaanpxEVFYXq6mp87nOfQ1FREeLj49kG+LUl5I2yhVarFRqNBl1dXTh9+jRqamqg0WggkUhQXV2Nffv2IT8/H/n5+YiKikJ7e3tAyu32kD6zs2fPYnJyclte02QyYXFxEt/4xviG2/3znyEYGOCAycsDvUZn0x5KqwXnr3/19TIBrPoY8/l8dHR0+Px39Y/hf6Bd0w6aoWGmzTBajWDAIIQXAoqiUCIvQchyCJqamnD8+HGMjIxALpeDYRjk5+ezme1ASdLEx8cjJSWFvbkKBDRNY35+HgMDAzAajVhYWMDg4CAiIyNRXV2N/fv3Izc3lw30lEol5ufnMTQ05Pb+1wZ4PB4PRUVFWFxcxODg4IbPJ+cQVxk8Emx3dnZiYWHB6Tbuej+TVoD5+Xmn63I3k0ggrjtLS0vo6+tjP/87SQInLi4OMzMzDo/NzMwgIiJiS1aIQdYTHFwJ4lec3QX7WwbH3ppOo9Fgfn4eQqGQ1YPLz893uLP2VsyaTCHPz88jJCQEMpkMOTk5kEgkLvuIyITx8PCwT6cDvSE0NBSFhYVobW1FeHj4pjppnmIv1Gw/mHPLLXK89VYCFhac36PabMDtt/Px7rtmWK+/HoLvf9/5CzAM+E8/DdNXvuLTdQOfBtG+/l3RDI1nWp6ByWqCgCuAjbHBQltgpVez02HcMOzl7cXCwgJiYmKQl5fHypKcPXsW7e3trF1eIMnIyIDBYGAHOrYiOu0uZGJbo9E46DtmZGRALBajpaUFDMOw8jX2GookQ9bS0oKQkBAkJCRs+FquNBaFQiErti0UCpGUlOTy+QA2zO7K5fINp6fdDRLJuoqLi9Hc3AyBQOBg3+dJJpFgLyrO5/ORmpoKmqZ3TJC4e/duvPfeew6Pffjhh9i9e3eAVvTvSzBIDLLt+GPCmcjTkElks9kMiUQCuVyO/Px8hIWFoaOjg3VB8EbM2t76zmKxsPI39hfyzeDz+VAqlWhsbERUVBSio6N9ehw8hciitLa2oqqqasu2a8TWjWhHkgv5WumVe++14gc/cN2DeeIEF+3tFAqvvRb46U8Bnc7pdpzGRmBuDvDAgcJdyIWyoaEBYrHYJ9Pg6hk12jXtAAUYbAZwwAGf+iR7TdFQypW4+Ys3Q8hf31MYExOD9PR0qFSqgAh/20NueJqamtDe3o6ioiKft07YOwsRcXSiFepM39FeQ5EEgfYaiiEhIVAqlVCr1RAKhZBKpS5feyO3lrCwMNYmTygUOv1cbNZPSEhMTITJZGLlZ+yzw54EiYCjLzOfz0dcXBwAzzOJhNDQUJSUlKC5uZk9FjweDwaDAWaz2ac9iSsrK+i3k7waGhqCSqWCRCJBSkoK7r33XkxMTODll18GANx000148skn8f3vfx/XXnstPvroI/zhD3/Au+++67M1BVklGCQG2XZ8ESSudddYWFiASCSCTCZDYWGhgzUdKZdwuVyYzWa2dLzWE9mZmDXJFhL5G6lUioKCAgf5G0+JjIxEVlYW2tratt0BxRkZGRlYXFxEZ2enxxf7tbZuKysriIyMhFQqRVpamsu+y1tuseHoUQYzM85fi2GAG28EzpwJhW3/fnDff9/5AoxG8F58EdYN5HK2Qnh4OPLz89He3o7KysotefDOz8/j0eOPYlY/Cw44oECBBg0zYwaX4oLH4eHG8hudBoiEtLQ06HS6bc3guYLD4bCSSv39/cjKytryPtc6F1mtVre1QkmvHwneSBBIbnysVivCw8PZ6f6ysjKX2fPNArTIyEi2XOzM1s5ms607p7giPT0dJpNpnSuLN8FdRESEg31fdHQ0GIbxWgTdXpcSWP2dLy0tAYBPM4mNjY343Oc+x/77rk++z1dffTVefPFFTE1NYXR0lP15eno63n33Xdx555345S9/iaSkJDz33HNB+Rs/QDGBbo4K8m8NTdPs5CGhvr4eiYmJrGOCu9jbiWm1WtA0DalUCplMBplM5tCLYu9oQoZMpqen0dfX55CFsQ9gnAkQSyQSyGQySKVSn/aAMQzDSk2UlpYGVKAYWH3vdXV1SE5ORlpa2obbusoWSqVSj4SaX3mFg5tuch0QURSD99/X4oChBsKvfhWufP2Y7GwYP7mI+Yv+/n7MzMx4lG01GAwOjjyLzCLu6bkH04ZpUBQFHmd1CMBG2wAKyJPm4cPLP0S4YOOyv81mQ1NTE9suEOjPjk6nQ319PbKzsz3+TpPnk+M0Pz/POhfJZDKvbsYmJyfR09PjoKFor0jA5XIxPj6OsbExlJeXO+1hGx0dxdLSEgoLCzd8rYmJCQwMDKwrF6+srKC5uRkHDhxwa800TaO9vR0Wi4XVU52YmIBGo0FJSYn7b/4Tpqen0dPTg8LCQqjVahw8eHBLNxTj4+Po7e1lJXz27t0LvV6/re5EQQJDMJMYZNtxN5NIslTE4YRIychkMpSWljp48W4kZk1Kx3FxceyASUlJCRiGwcLCAhvwLC8vb+r16yt2Wn+iQCBAUVERGhsbERkZ6VAGJ6Lf5DjpdDr297BRtnAzrrySxkMPMRgbc5VNpHDbbQLU1+6HQCYDdfas0+2ooSFQAwNgNhhy2SoKhQLLy8usb66z92svjq7VaqHX6xEVFQWZTIasrCy81P0SzhpX34OVtsJKW8EBBxxq9TP25awvbxogAp8Kf9fX12NoaAgZGRm+fbMeYl/mDA0NhWST0j8ZOiE9w0ajkW0N8aR1wxUJCQkwGAxoaWlhPaeJhiJxZUlMTITRaGRdS9YG/u76Pq/dD7n59NQ3msjPtLS0oLOzE4WFhR6Xm+2Ji4uDxWJBR0cHu/+tIBKJwOfz8dFHH2Fubg6RkZEBvzkJsj0EM4lB/IqzTGJraytEIhEUTi7q9tmX2dlZcDgcNquw1l2DBIHkdez/7ayvEACWl5fZpnOj0QiKothspCdZMF+xuLiIxsZGlJWVBbw/EQDGxsYwODiI0tJS1sFjbm4OHA7H4ThttXeR8NZbHFx55ca9dU8+qcINqt+A/9xzLrexfPvbsD78sE/W5PI1LBbU19cjJiaGLa0ajUaHbCGXy2U/rxKJhD1ORqsRh149hA5NBwRcAWiGXh1WAQ0exYNcJMeJK08gMdz9TNzy8jIaGhpQUFCwTjMuEExMTKC3txdVVVXrhjDWHicej+fwvfZ12ZxhGHR2dmJpacnBc5qcj0jPYWdnJ6xWK0pKShwCqYGBAVitVrfcZRiGQVdXF1ZWVlBWVgYej8dqr3o6SGGxWNDU1ITo6Gjw+XwYjUbk5+d79ubt6OrqwtTUFPbs2bOlSohGo8HQ0BDq6urw3//935BKpRgdHQ0Gip8BgkFiEL/CMAzMZrPDYx0dHeDxeMjJyWF7tcgFRKfTsdkXmUzmkKVaW0IGVk/69n2F9v8nP5+fn2d7C3U6HUQiEXQ6HfLz8xEfHx/wE93o6CiGh4cD2p9IsmAajQaTk5OwWq2IiIiAXC6HTCZDeHi4X44TwwAFBUKMjLjOdGRmLuGdn32I3EsvhSvzZyYxEcbeXp+vby0kMIuOjobRaIROp0NkZCT7eRWLxU6P0z+G/oGr/noVls3LoBkaHIqzGizaaNCg8fXcr+P5Lz3v8XrIxHNFRUXAJ54BoK+vDzMzM6isrGRv+DQajdvHyZfQNI2WlpZVWSG7IJCmaZjNZrbKoFKpEBoaygpJk/cBwO0+S5qm0draCoZh2JLs0NAQqqqqPF630WhEY2MjQkNDER4ejuzsbI/3QZifn4darUZoaOim9n0bMTU1hampKZSVleHiiy/GsWPH0NPTE/AsdhD/Eyw3B9lWSLZvYWEBjY2NmJubg0AgYEty9tkXsr19lnAzeRoA0Ov1Dj1zfD4fUqkUGRkZ7P4HBwcxNDSEmJgYr5u6fUVycjLm5+fR0dGBkpKSbQtaXWXBsrOzMTw8DIlE4veLAEUBDz9swWWXuc4mDgxE4IPxGGQkJ0Pgws6Mmp4GpVKB8aJ/azPse2FnZ2cBALOzs1AoFEhKSnLrwvtb1W+xbF4Gl1qdrKcZGkarEVyKCyFXiBtKb/BqbTtp4tlisUAkEoGmaXz88cfs5yktLS0gWXoyWNPQ0IDu7m7k5eWxwyR8Ph8WiwUMw0CpVKK5uRkDAwPIzMwEsFou9iSgImLbLS0t6O7udhic85SQkBB2qn6rGVaaphESEoLQ0FCo1WqUlpZ6tU97GZ0vfOEL6OjowHnnnYdTp06xU9RB/j0JBolB/I7VanUYODEajRAIBEhPT0dubi5EIpFDttBVf6EreRqbzYa5uTn2NYxGI6KjoyGVSpGZmek0a5Geno65uTl0d3dv2pzub0h/Ym1tLUZGRjYdHPEWZz1zJLuTkZHhkC2MjIxEfX09IiMjERMT45f1EL78ZRoZGQwGB11POr/wQhW+sGsXsl153tps4L3wAiy/+tWW10Mm28lxIvqO9tIrw8PDGBsb21RvDwB653qhmlGBAgWGYSDkrto7WhkrKFAoiS1BeVy51+tNS0vDysoK2xe3XRPPDMNgZWWFPU6Li4sQi8WIi4uDVqtFeHh4wAdreDweSktL1/Vv2msoEk3M5uZmhISEICkpaUMh7I1eq6ioCE1NTaw2o7eIxWJER0ezVRaZTObVfogAdkFBAdRqNdrb26FUKj3uUbSftF5eXkZZWRkiIiJwwQUX4Pjx4wG16AviX4JBYhC/wjAMTpw4wWYL8/PzsbKygvn5eTYYciZmbY8zeZqVlRU2KFxYWGAlL3JychAdHe2WoX1hYSFqa2sxNTWF+Ph4375xD+Hz+ezgSFRUlM9OugaDwSGrSrI7CoViXdbWHrFYjPz8fHR0dEAsFm95mGAzfv5zM77yFddZsPZ2IZqvvR1Zf/wjKBclZ+5f/wrLL3+5mp70EGeT7c70HQlpaWlYXl5mhZA3uuj+re9vmNZNs7Z7VpuVlcABB7g0/1Lwud73eNprFpKhB38FZs4kaiQSCeLj46FUKtm+t9TUVNTX12NwcNBp7/F2EhISgtLSUraES77r9hqKQqEQRUVFrIaip4MnBCJqTfQatwKXy0VsbCxbYfBGcoZkALlcLpRKJZvpJFlVd1nrthIVFYXnnnsOjz76aMAlvIL4l2BPYhC/s7y87HAiGR8fx+TkJCoqKlxmCwHH3kIiZk16C4lYNpFdCQsL8+rCqNFoWL1CfwdC7rDV/kT7Hsy12UJvesG6u7uxsLCAyspKv2aoGAYoKhJicND1hbmyksZHs9kQubJE43BgPH4cTPnmWbm1Qs2Li4vsZDvphd0sSLDZbGhoaEBERITL4QKDxYC9r+xF32zfag8iaFhsFjBgwKN4iBXHovbqWkhCty4GbjKZWBkjX07L6/V6h7aEkJAQtld1I4malZUVNDQ0IDc3N+A3YcBqi4BKpUJpaanDBLbFYoHVagWHw8Hc3By6urogEokQHx/vlaQPsPq9mZqaQmFhodci7C0tLYiNjQVN0xgcHHTqyrIZo6OjWFxchFKpBLD6GWlqakJMTAxbWneH7u5u8Pl8KBQKfO973wOfz8evf/1rj9YS5F+TYCYxiN8RCAQO5WMej4eVlRUYjUY2k+UsW0ima8lFPCwsDFKplPVA9kXQIpfLkZCQgLa2NlRWVgZc98ub/kQyIEAmkXk8HqRS6abZQnfIzs5GY2Mjuru7UVBQ4PV+NoOigP/5HwsuvdR1NrGxkYOBW+9A0ZPfcb4BTYP34ouwuAgS7V15ZmdnQdM0JBIJEhMTUVxc7HE/H5GiqaurQ3h4uIMVGuHjsY8xvTINADDaVnsQyXQzzdC4IP0CnwSIwKeWcY2NjRCJRF63CdhL1Gi1WhgMBkRHR7O2k+4GKmKxmHU4CQ0NDXhJUiqVIjc3F2q12kEYnTgw2Ww2tne5v79/Sw47fD4fUVFR6Ozs3FIWkMvlIiEhAWazmRVQ9+RzutaSz95WUCAQICUlxa39WK1WNjO6tLQU8OxwkO0jGCQG8StNTU146aWX8NBDD4GiKFagWiwWo6+vz6EfkJT8yB9y0o6Pj0dhYaHfjNuzs7NZ14itTBL6Anf6E+0v4rOzsw7ZQoVC4dPJUdKvVVtbi4mJCa8zK+5w4YU0UlMZjIy47k28pe46nOLfDayRVSJw//pXWD7JcDjrmSOuPEqlElFRUVu+KQgNDWU9c0kfmT0vt72MZfPy6u+DAWyMbbWUCQ5CeCG4vuT6Lb3+WiIiIlBQUMA6xLjrx20ymRykp4hEDRkm83a4iwxCqVQqVFVVBTxbn5iY6KChKBQK12koJiQkYGRkhO059eYmy2azQSwWIyYmhu0V9TQLaK+TSFxZVCqVR1PKzlxbwsLCHOz73Mny2gebpEc3yGeDYJAYxK/ExcXhtddeQ0lJCS655BL2olxQUIDa2loMDg6CYRhWLDs8PBxSqRRFRUV+FbO2h8PhQKlUoq6ujnVYCSTO+hPXuneQiW1fZAs3w97zNiIiwu3Awxsee8yMb3zDdaakpjEUnZnnI7/vb05/Ts3OYv7kSUzJZBv2zPmS6OhoZGdnQ61Wo7q6mr2ZGV4YRt1EHcCsfsb4HP5qkEiv9rsVxxQjX+69Bp4rYmNjWes+EgitZe1wzsrKCjuck56e7lPJo+TkZOj1eqhUKlRWVvr1s+oOCoUCRqMRLS0tqKioAI/Hc5h4JgERn89Ha2sr64DiCTRNQyAQuBTbdgf7IJGiKOTk5KCtrQ1tbW0oLi52a002m81p20pERASUSiVaW1vB5/M3PefZB5uLi4sBzwoH2T6CnjpB/EpiYiKeeeYZ3HXXXWy/3Ztvvone3l7YbDYMDAxgaWkJycnJOHDgAHbt2oWsrKwteSN7g0gkQk5ODjo6OmAymbbtdV0hFouRkJCA5uZmnDp1CqdPn8bMzAyio6NRVVWF/fv3syLK23HRJV7MarV6nTi6LzlyhEZCgus2aYYB7sZR1zugadD/+7/gcrkoKCjAoUOHUFJSgqSkJL8EiITk5GQ2a2T7ZLDmg8EPoDVoAQAW2gKjzbhqwYfVIO2S/EvA4/jnPj09PR1RUVEO67FYLJienkZ7eztOnDiBlpYW6PV6pKam4sCBA6iqqkJGRobXDjobkZ2djdDQULS2trI9yIGCZOv5fD7a2trY9ZBAEVgNrkgptrOzc90w3WbYD75kZGSwvwtPPOvXloqJzA5N026vaSP/Z4lEwg6nLS4ubrqftYMrvuSpp55CWloaQkJCUF1djfr6epfbWiwW/Nd//RcUCgVCQkJQXFyM9115uwfZMsEgMYhfMZvNkEqlSElJQXl5OZRKJZ588kmIRCJUVFQgISEBNpsN8fHxAdV4A1btvCQSCdrb2z2+KPgCvV6PsbExtLS04Pjx4zh79iz4fD54PB4OHjyIiooKpKWl+U3YejPS09MRFhaGjo4Ovx0figJ+9KONg9APBxTQcFw7jCQ2NiInJwdSqXRbbzRyc3PB5XJXXTxsVrzY+iIstAVcDhdcavVCTWNVSFsaKsVXc7/qt7VQFIW8vDxYrVY0NDSgvr4eJ06cwNDQEDuBe/DgQRQVFSE+Pt7vE6oURUGpVMJisaCrqysg3y97SBuFwWBAT08PzGYzpqen0dHRgdraWjYTWFBQgJWVFfT393u0/7VZwNzcXAgEArS3t7sdJDuz5SN9sDqdDr29vZsex7WB5lpiYmKgUCigVquxsrLicjsSJJJecW96LF3xxhtv4K677sKPf/xjNDc3o7i4GOeffz7OurDhvP/++/HMM8/g17/+NTo7O3HTTTfhK1/5Clr87N/+WSUYJAbxC52dnbjooosglUpx+eWXo6ioCGKxGHfffTf++c9/QqFQIDIyEjk5OTAajRgZGQn0ktkLq8Fg2Jb12Gw2aLVa9PT04PTp0zhz5gybLayurmYzqxaLBRMTE35fz2YQ2aDl5WW/Hp///E8bZDLXFz+apnCz8FmXP6dmZkC50lP0IyTwmJ+fx1+a/4Lx5XFQFAUrvaqHKOQKwaN4YMDg3LRzIQ2V+nwNNpuN9SevqamBXq+HTqeDQCDAvn37sHv37oBk6oFVHcGSkhLMzs4G/PvOMAxMJhPkcjkmJibYADo0NBSlpaXYt28fwsLC2N/p9PQ0xsbG3N7/2gCPZAHNZjO6u7s3De6IJJizLCCfz0dxcTE0Gs2mx3GjTCIhKSkJSUlJUKvVMBqNLvdjn0n0ZZB49OhR3HDDDbjmmmuQn5+Pp59+GmFhYXjhhRecbv/KK6/gvvvuw5EjR5CRkYGbb74ZR44cwc9//nOfrSnIpwSDxCB+ITw8HLt378apU6cwOTmJV199FW+99RaefPJJNDc3s9vxeDwolUq27Bxo7NezWQnGG/R6PUZHR9lsYVdXF2w2G7KysnDo0CE2W0iGT0h/4sDAABYWFny+Hk8RCATseubm5vzyGhQF3HffxiX/d4xHMIco5z+02cB73nOLO19Apkff7HwTC8YFAACDVeFsk80EmqHB5XBxXcl1PntNg8GA0dFRNDc34/jx4+jp6WFveD73uc+hsrISc3NzO+L7RdxEBgcHMTMzs62vTdM0Zmdn0d3djdOnT6Ourg4rKytITU0Fl8tFeno6MjMzERUVxWoLAquf+eLiYgwODrrMbq3FWRaQx+OhuLgYCwsLGHQl42S3VgAuA7zQ0FCUlJRgdHQUk5OTG67DnaGj9PR0SKVSqFSqdTaqZKDHH5lEs9mMpqYmHD58mH2Mw+Hg8OHDqKmpcfock8m0rnUkNDQUp06d8smagjgSHFwJ4heSk5Pxgx/8wOGxPXv24Lvf/S6uu+46nDp1ip32i4yMRHp6Otrb21FdXb1tjhGuiIyMhEKhYPUTt2Lbt9ab2t4NJisry8FtZqP1ZGVlobW1NaD+zvbryc7OZo+Pr9oE7Idz0tLmEBp6AQwG58feynDxU/wUv8TtTn/OffttWB580Cfr8hRaQKNxpREMGHCYVY9mG21jA8SMqAyUxJR4v38nzjn2EjVrNUO9nXj2FxERESgsLER7eztCQkJ8mpVaC5na1mg0rDyUXC5HTk4OJBIJe66Jjo5mhbTJhDrpT7RarQgLC0N+fj46OzshFAo3XbOrLCAp9Tc1NUEoFCIpKcnp80kf6UbnQnuJIWJWsBZ3MonAp4Mx7e3taG1tdbDvI2vh8XgwGAywWCw+60nUarWw2WyIjXVsH4mNjUV3d7fT55x//vk4evQoDhw4AIVCgWPHjuHPf/4zu84gviWYSQyybVAUhR/96EeIjo7GD3/4Q4eSS1paGng8Hnp7ewO4wk9JTU1FaGioV/1TOp3OIbPT1dUFmqaRnZ2NQ4cOoby83CFb6A7JycmIiIjwaz+gJyQlJUEqlW5pEIGmaczNzaG3txdnzpxxGM7Zu7ca3/nOxu/zOVwPK5xfAKmREeATn+Xt5vjIcSyYFwAANthgsVlYkXgbY8NXc76KUL5nck4mkwmTk5NQq9U4ceIE2traYLFYoFAo2M9Uamqqy5uO2NhYpKamOs0UBQLSC6dSqWAwGHy2XzK1PTAwgNraWnz88ceYmJhAZGQkKisrsX//fuTl5UEulzsETyTAVqlU0Ol07ONcLpd1ZpFIJFAoFGhtbYVer99wHRs5tohEIhQXF2NgYAAajcbpNkTce7PzQ3R09IbDJ+5mEoHV83NBQQE4HI7DQA8ZtuFyuWw22p+B/Wb88pe/RFZWFtvnedttt+Gaa64JuMbtvyvBTGKQbYXP5+OVV15BeXk5zjvvPBw5cgTApzI0tbW1kMlkWxKy9QVrbfs28uh15R1NNOLcyRa6sx4iG+RPf2dP1pOXl4e6ujqP9CWNRiOrxTc7O7uhTeA991jxy1/y4aJNCgaE4hF8Hz/Ez9b/0GoF75VXYL3jDi/e3dZ4tf1VGKwGVheUAQMrvWrFJxKIcEXBFZvug5T1SLZwaWlpyxI1GRkZ0Ol0rBxLoC+qKSkpDtI43mbsiVWgRqOBVqsFTdPssJxMJnM7856UlASDwYDm5maXGorx8fEwGo2ssLWrfTsrN9sTGRnJZiadiW1v9nx7YmJiYDab0drairKyMgc9RncziQR7H+uuri7k5+ez+6AoCktLSwgJCfFZ9UAmk4HL5a5rPZiZmUFcXJzT58jlcvzlL3+B0WjE7OwsEhIScM8997C+3EF8SzD0DrLtZGVl4ejRo7j11lsdTg6hoaE7SoZGKBSioKAA3d3dDtkFhmHWZQtJM3pOTo5DZseXwtY7rT+RTFqOj4+77NUiwt99fX2oqanBqVOnMDU1hYiICFRWVuLAgQMupXwEAuDKKzeedD6Ku+Aq38h96y1v3taWGJwfRNNU0+o/GIDP4YNH8UBhNZNYEluClEjnLhcWiwUzMzNob2/HyZMn0dzcDJ1Oh+TkZBw8eBDV1dVQKBReS9SQGw2apnfEhDEpcQqFQo8z0qS3t6mpCcePH0dfXx/4fD6USiU7tZ2QkOBxawbpSVSpVGz5kkjjcDgc2Gw2pKenIyIiwkFeaC3uBHlyuZydLLY/v7j7fHuSkpKQkJAAtVrNnjtpmgbDMB4H32TAaGlpCf39/bBYLOw+FhcXfSqRJBAIUF5ejmPHjrGP0TSNY8eOYffu3Rs+NyQkBImJibBarXjzzTfxH//xHz5ZUxBHgt7NQQICTdP42te+BrPZjDfeeIPNajAMg7a2NthsNrdt6fxNb28vZmdnkZGRwfYX2mcLZTKZ197R3rBVf2dfMzMzg87OTlRVVUEkEsFkMjnY31EUxR4nqVTqka6jVgsoFKHYSF7uTXwFX8Hb6x5nhEIYp6dXo81t4jnVc7j72N2w0TYwa8JXDjh45sgzuLzg8tX1fXKzQbKFCwsLCAsLY32R/SUmbzQaUV9fj5SUlIBnpIHV4LihoQESiQS5ublOt3HVh0mOlS+dXGiaRnNzM7hcrsM5iKZpmM1mMAwDDoeD1tZWdtDN/rvPMAyOHz+OXbt2ueUSNTAwgJmZGQexba1Wi8HBQVRVVbm9boZh0NXVhZWVFZSVlYGmaZw6dQoHDx70qs/bYDCgqakJEokEy8vLqK6uxj/+8Q98//vfR29vr8/Od2+88QauvvpqPPPMM6iqqsITTzyBP/zhD+ju7kZsbCyuuuoqJCYm4mc/W60Y1NXVYWJiAiUlJZiYmMBPfvITDA0Nobm5OSjy7QeC5eYgAYHD4eDZZ59FcXExXnjhBVx//ao9GSlj1tbWYnx83Kkf7nbAMAz0ej20Wi2Wl5exsrKCjo4OxMfHr2t6326Sk5MxNzfnkb+zP4mJicHMzAwaGxshEAgc3DtSU1O3lHmQyYALLrDhb39zfay/i8edBomUyQT6rbfAueQSr17bU2iGxv9r/X+rjioUZ9WrHJ9MqVJciLliVEZXsmVRrVYLs9kMiUSC2NhYFBQU+M160h4iQNzU1ASRSBTw1g4+n4/S0lLU19cjLCyMFbE2m80OVoEcDodtTZBKpVsaKNsIDoeD4uJiNDQ0oKenBzk5Oay3vEAggNlsBk3TKCgogEqlQm9vL7Kzs9nPOPGpd/f8kJGRAZPJBLVajbKyMvB4PI8zicCneoxtbW1obW11WLc3EMtJMmQDfCp/48tzziWXXAKNRoMHHngA09PTKCkpwfvvv88Os4yOjjq8B6PRiPvvvx+Dg4MQi8U4cuQIXnnllWCA6CeCmcQgAeXvf/87Lr74Ynz88cfIyclhH5+bm0NLSwuqq6shFou3ZS2kt5BclEwmEzuJLBKJ0NraCqVSGfCLKrCafamtrUVycnJAskHEZ5scK5qmweFwIBKJUFRU5FNh9MlJICtro+CJwUkcwD6cXvcT7b59CP3737el/65xqhFf+dNXsGBaWJ1kprjggAMaNGiGxgHpAdyZfCeEQiFiYmIglUoDerMxPT3NZoC36zu2EQsLC2hqakJsbCz0ej2WlpYgFovZbKE/nGA2wmAwoL6+HmlpaUhNTWUft9lssFgsYBgGVqsVzc3NSE5OZrexWCz4+OOPceDAAbcDWZqmoVarQVEUq8t49uxZlJSUeLxum82GlpYWdtDk4MGDHu/Dnt7eXoyPj0OpVOKvf/0r3n77bXz00Udb2meQfx2CmcQgAeWCCy7Atddei+uvvx7Hjh1jy6cSiQQpKSloa2tDdXW1Xy7ypNxHgp35+XmEhISwk45rL+B5eXno6OjArl27/Grx5g7O/J39CcMwWF5eZjM7i4uLCA8Ph0wmQ0lJCSIiImA2m1FXVweNRuNS2sMbEhKA8nIaTU2uPgMU7sHDOIX9634S1dKCtt5el2VMX3Js6BjmjfPsv22MDTZ8ImVCcXFl/pWQ8CVgGAbZ2dkBHxyJi4uDTqdjb8YC0bpgf2Om1WrBMAymp6eRlpaGoqKigH7PiBZhU1MTQkJC2MwWl8tlA0QibN3c3AyhUIi4uDi35GvWQgb3mpub0d3dDbFY7PXNA5fLRVFRERoaGtis5laCayL58/DDD8NgMAR0sjnI9hMcXAkSUCiKwiOPPAKTyYT/+Z//cWimVygUoCjKY0usjbBarTh79iy6urpw6tQp1NXVYXZ2FnK5HLt378bevXuRm5u7TiIDAOLj4yGTyQJm27cWe/1Ef8ia2Hv9njx5Ek1NTVheXkZiYiLrBkMa/TkcDkJCQqBUKtHT0+Nz4eaHHtp4gKUGu3EW63XieHo9VmpqNhQc9gUrhhW83Poy24fIpbigQLF/TxAn4IulX0RxcTEsFsuOkXoiXs1qtXrbPJWNRqOD/WR3d7eD+LdCofD778tdIiMjoVQq0dHR4TAsRsS2GYZBaGgoCgsL0d3djfn5eVb+xtPAzF5sW6PRbCnDLBAIkJGRAYZhtuxuY7VaIRaLkZSUhDfeeGNHSCgF2T6C5eYgO4KWlhbs27cPb731Fvbt28c+rtPpUFdXh+LiYkilntuY2Q8HzM7OOmQLZTIZoqOjPToZW61W1NXVISEhAenp6R6vx9cwDAO1Wg2GYbbcn8gwDFZWVhyyhSKRiB04IcHgZgwNDWF8fBy7du3yaEhlM3JzQzA25vr9XYLf4XdYLy+zfO21OPmVr6CiogIRERE+WQvJrJL+wtMTp/E/Q/8DE21y6EMkEjg3ltyIo58/CmC1jFlXV4esrCwkJib6ZD1bwWazoaGhAeHh4cjPz/d5SZdoFxJRa51Oh8jISLaMvFYiimEYdHZ2Ynl5GZWVlQEX1weAsbExDAwMoLKy0kFixmw2s/2DMzMz6O/vR25uLnp6erB///rMtjvodDo0NDQgIiICZWVlXq95ZmYGw8PDMJlMyMrKQnx8vFf76enpAZfLRWZmJvbv34++vj50dHTsiKGnIP4nGCQG2TE89thjePLJJ1FTU+NQPh0fH8fg4KDb07xEN40Ehmazed0k8lZYWlpCQ0MDysvLd0Sz9Fb6E+2PlVarhdVqhUQiYY+VN+U+hmGgUqkAwKeDNa+9xsGNN7rudeTBjCVEIARrbMUyMtD1zjsYHx/fUlnVarWyrQlEj08ikUAul+Ox9sfwW/VvV1/PbqqZAoUQXgg+uPQDlMeXs4+Tntud8hkyGo2oq6tb13/nLRaLxeFYMQzDfqZkMtmmNw9kwphk1wI9nAWs9uadPXsWVVVV7GeIpmlYLBbWYWVkZITNgtrf7HpKa2srZmdnUVhY6HUP9OTkJM6ePYvU1FS0traioKDAqSvLZnR0dEAkEiEtLQ033ngj+vv7sbS0hFOnTu2I/uwg/iUYJAbZMdhsNnz+859HXFwcfvvb3zpMC9o3da+9YDjLFoaGhkIqlXqVLXSHkZERjI6O+jxb5i2Li4tobGzcNOhwdqzCwsIcjpUveuUsFgvq6uqQmJjos4wrTQMJCSFYXnYdMDyGu3E3fuH4II8H/egoWoeHYbVaUVpa6tZ7JBPuGo3G4ViRQIdkVpdMS6j8f5UYXx4H4JhBpEAhU5KJmqtrEMJzDLhHR0cxNDSE6urqgPe4AqufoaamJq+Gs+zVADQajU/kfCwWC+rr6yGXy90Wa/cnRJ7LaDSivLycPaesDRRbW1uxsLCA/fv3ez2B3dnZyXpNOxPbdofR0VEsLi5CqVRiZmYG3d3dXu1LrVZDKpUiKSkJl112GQ4cOICmpiaMjY3h1KlTAe+tDeJfgoMrQXYMXC4XL730EoqLi/GnP/0JF198MYDVvsX8/HzUfNJbRgRU12YLSVYnLy/Pp7ppzkhJScHc3By6urrW6aQFgsjISGRmZjr1d147HECOVUxMjN+OFRmsaWhoQGRkJCQSyZb3yeEAN9xgxdGjroPyR3DP+iDRagXvzTdRcNVVqK+vx8DAALKyspw+f63XNplwl8vlyM/PdypR0zDZAK1eCwoUGDCwMTb27wDwtZyvrQsQgVUpo+XlZajValRUVAS8rBoZGYm8vDzW43mziWcilE4CQ3KsfCXnw+fzUVJSgoaGBoSFhfl0GMobiBh5c3Mz2tvb2RtWIrZNSs9xcXFYWlpit/EmiLLZbOxAmjMnFXf3QYLU2NhY1pWlvLzco++81Wp1ENOOjo7Gyy+/jMbGxmCA+BkgmEkMsuN44403cNNNN7ElVGD1Ln58fBy9vb0Qi8VYXl5GaGgo2y/nj2zhZpjNZtTU1EChUAT8AgY49idmZ2c7TG0LhUKv+zC3wvj4OPr7+302Ea7TAfHxoXBhdAEAeBsX4kK86/CY7fBhmN9+GzqdDvX19cjPz2enVYlVoEajwdzcHAQCAXus3JGoue7d6/D7zt+zgyokOOSAgzBBGD649AOUxJY4fS5N02hsbERYWBgKCgoCfrMBAP39/ZiennYoqxKIUDrJrvJ4PAehdH98rubn59Hc3IySkhKv+pJ9jdlsRkNDA6uCQCBi2zMzM5ienobNZkNERARyc3M9/r2qVCrExMQgISHBqdi2O/T19bHnAoI3+6qvr0dGRgZkMhn279+PH/7wh+wNfJB/f4JBYpAdB8Mw+OY3v4m+vj5ceeWV+L//+z+cc845SE9PZy9apaWlO0LbbXZ2Fmq1OuBacyQDdvbsWUxOToJhGIfewu10hLGHYRh0dHTAYDD4zC/4q18V4IMPXAcjxVChBWsa/sViGKanAYpire9IxocMUhDPcE+8tjV6DapfrMZZ3VkwYMD5RDCCBIpKuRKnrjoFLsf1ek0mE+rq6pCamuqTfsCtwjAMOzFfVlbGtidoNBosLy8jPDycLSN74yHtDZOTk+jp6XErw7kd6PV6Nngi4t8AsLy8jMHBQVgsFuTk5KClpcWrIbempiYkJSUhNjaWdVLR6XQoLS11u4Td3d3NTjkT1rqyuLOvM2fOIC8vD1FRUSgpKcEzzzyDz3/+8x69nyD/ugTLzUF2DKTn5+9//zsGBgZQU1ODrq4ufOlLX0JxcTE76VdXV4eZmZkdcbGQSqVITk5GW1sbqqqqtjWbaTAY2LKofQYsMzMTAwMDUCgUAR+KINIm9fX16Ovrc8i8eMt//7dlwyBRjWLMQI5YaD59UKfD7D/+gYnYWMzOzgJYnf7MyclBTEyM132lLdMtmDXMsv8mk83A6tDKFYVXbBggAqs6dMXFxWhsbIRYLA54toymacTExKCnpwfHjx8HAMhkMiQnJ0MqlfpUKN1dEhISoNfrA6rpaE9YWBhKS0vR1NQEi8UCq9UKrVYLg8GA6OhoJCYmOmgohoSEeDRdbO+4QpxU1Gq1RyVsq9W6ruRv78rS1taG4uLiTfe1ttwc1En8bBFsKAjilLm5OVxxxRWIiIhAVFQUrrvuOqysrGy4/be//W3k5OQgNDQUKSkp+M53voPFxUW3X7O6uhp79uzBmTNncOWVV7KaXLfccgsrhcHlcqFUKjE8POygWxZIFAoFuFyu37XvaJrG3Nwcent7cebMGZw+fRozMzOIjo5GdXU19u3bh7y8PKSlpSEzMxNtbW07QtOMy+WiuLgYk5OTmJmZ2fL+8vMZZGZupOlH4U4cdXyIYcC8/DJ7cf/c5z6HqKgoaDSaLdm7vdT2Eqz0qrE0x+50yqE4CBeE40DKAbf2Q/oBW1tbodfrvV6PtxgMBoyNjaG5uRnHjx/HwMAA5HI5OBwOFAoFiouLkZCQEJAAkaBQKBAZGQmVSsUKVgcCi8WCqakpjI6OgmEYDA4OQq/XIysrC4cOHUJ5eTlkMhkYhkFISAgKCwvR09ODubk5t1/DarU63HASsW2z2Yzu7m63dFrtexLt4XA4KCwshNVqRWdn54b7YhiG3Q/DMKwtX5DPDsEgMYhTrrjiCnR0dODDDz/E3/72N5w8eRI33nijy+0nJycxOTmJxx9/HO3t7XjxxRfx/vvv47rrrnP7NV966SXMzs7i7bffxk033YSLL74Yd9xxB6677jqHC2d4eDgbBFmt1i29T19ATuDESsuXGI1GjI+PQ61W4/jx42hra4PFYoFCocChQ4dQUVGBtLQ0iMVih7JfSkoKwsPD0dHRsSOEv0nPXWdnJ3Q63Zb39+Mfbyyu/Sa+Dtua01tSW5uD+LdSqcTKygqGhoa8WsPUyhROjp4EF1wwn/zHAQcUKNAMjczoTCjlSrf3l5CQgISEBKhUKr9/rsnQSV9fn8MNh1Qqxa5du7Bv3z4UFBSgrKwMAwMD0Gq1fl2PO5DBEQDb/rnW6XQYHh5GY2MjTpw4gZGREYSGhqKiogLZ2dlYXFyEWCxmgzI+nw8ulwuaphEZGYmcnBy0tbVteKNtjzPvZnux7cHBwU33sTbQtIfcuC0vL7O9i67WwTAMeDwe9Ho9rFarT6sTTz31FNLS0hASEoLq6mrU19dvuP0TTzzBJiKSk5Nx5513wmg0+mw9QdYT7EkMso6uri7k5+ejoaEBFRUVAID3338fR44cwfj4OBISEtzazx//+EdceeWV0Ol0XmdrzGYz9u3bh/Lycjz++OMOsjjECquwsNCrffua6elpdHV1Yffu3V4PadA0zQoPa7Vah345mUy2LhjciED7Ozujt7cXs7OzWy7NMwwQFxeKja65z+MaXIOXPn2Az4dhYgKwmxJdXl5GQ0MDioqKPNaQ+/vA3/GNt74Bmlmf1eRQHDxx+AlcV+L+TRKw+vsnvru+1ge0WCzs50qr1YKiKLYPUyKRuCy5T01Nobu7e8f0A5rNZtTX1yMuLg6ZmZl+eQ2aplnnE61WC6PRyE65y+Xydd/vnp4eaLVaVFZWutRQHB0dxeTkJMrLyzc9Pxw/fnydcDdBp9OhqakJCoViQzF2+4ETVxgMBjQ1NTl4T9tjMplw+vRpHDp0CNPT08jNzYXRaPRJRvmNN97AVVddhaeffhrV1dV44okn8Mc//hE9PT2IiYlZt/3rr7+Oa6+9Fi+88AL27NmD3t5efPOb38Sll16Ko0ePOnmFIL4gmEkMsg4iZk0CRAA4fPgwOBwO6urq3N7P4uIiIiIitlTOEwgEeOWVV/Dqq6/iww8/ZB8nWQWtVovp6Wmv9+9L4uLiEBMTg7a2No8szkwmEyYnJ9Ha2ooTJ05ArVbDZDIhPT0dBw8eRGVlJdLT0z0eEiAyNAMDAzumNJ+ZmQkej4euri6vMkFEO663twfnnz+84bY/wU8cH7BYwPnrXx0eCg8PR15eHtra2jwu8z6vep4NEO1t+ChQiBBEYHfSbo/2B8Ahw+lOtmgjiIPO8PAwGhoacOLECQwPDyM0NBSlpaU4ePAgCgsLERsbu2FPZnx8PJKTk6FSqXZE+4JAIEBJSQnGxsZ8at9nNpsxNTXFfg9JpYKUkcvKypCcnOw0wMvOzoZYLIZarWZL4UQah8PhwGazISUlBRKJBGq1esNMMcMwoGna5XlTJBKhqKgI/f390Gg0TrcBNs4kEkJDQ1FcXIzh4WFMTU253AeHw8HS0hJCQ0N9pgt79OhR3HDDDbjmmmuQn5+Pp59+GmFhYXjhhRecbn/mzBns3bsXl19+OdLS0nDeeefhsssu2zT7GGRrBIPEIOuYnp5edyfH4/EgkUjcDsi0Wi0efPDBDUvU7pKTk4PHH38cN910k8NJMSQkBPn5+ejq6toxJYfc3FxYLJYNS5gMw2BhYQH9/f2ora3FyZMnMTY2BpFIhLKyMvbiHRcXt+UTMtFP3Cn9iRwOB0VFRZidncX4+LhbzyEld5VKhePHj6OjowM2mw0/+QkHG8XMY0hFM0ocHuOtCRKB1SAoISHB4QK/GTO6GZwePw0utXoRtjGfPo8Bg1xpLvJl+W7tay0kCBoZGfG4fcFms0Gr1aK7u5v1Jp+fn0d8fDz27duH3bt3syV3T244FAoFwsPD0draum0ezxshFotRVFSErq4uzM/Pe7WPtUH0yZMnMTIywn4PDxw4gIKCAsTExGwabFEUhcLCQnaan9wAkUCRoijYbDZkZWUhJCRkwxtJ8hnc6DWjoqKQn5+Pzs5Ol33frnoS1xIeHg6lUslm+e2xDzTJTb8vsttmsxlNTU04fPgw+xiHw8Hhw4dRU1Pj9Dl79uxBU1MTGxQODg7ivffew5EjR7a8niCuCU43f4a455578Mgjj2y4TVdX15ZfZ2lpCV/84heRn5+Pn/zkJ1veHwDccMMNePfdd3Hbbbfhd7/7HTuRFxMTA41Gg/b2dpSXlwdcZ44M1tTX10MikSA6OhrA6kmR6BbOzs6yNmWpqamQSqV+ndZMSUnB/Pw8Ojo6fGqT5y1CoRBKpRItLS2IiIhY1wjvyutXJpNBoVA4lNyrq2nU1rq+130AD+JvuJD9N+fUKafbZWVloampCZ2dnSgsLNz0GDVONWLZvOxgwUf+zqW4uLLwyo0PwiaIxWIUFBSwwtbh4eEutyU6j+SzRabcc3Nz3dJ5dAeSuW9oaEB3dzfy8vIC/jmSSqXIycmBWq12WZpdizMBcIlEgvj4eCiVyi1peXK5XJSUlLCT/ESfkMPhQCAQwGw2g6Zp5OXlQa1WuzyO9pnIjZDL5VAoFC4Fst3JJBIkEglyc3PR3t6O0tJS1uPcfrJ5aWnJZ97nWq0WNpuN1SolxMbGoru72+lzLr/8cmi1Wuzbtw8Mw8BqteKmm27Cfffd55M1BXFOMEj8DHH33Xfjm9/85obbZGRkIC4ubl0GgzicxMXFbfj85eVlXHDBBQgPD8dbb73ls9IEh8PBc889h6KiIrz00ku45ppr2J/l5OSgtrYWw8PDPrOA2wrh4eHIyspCa2srEhISMD8/j8XFRYSHh0Mmk6GkpAQRERHb5lZALvC1tbUYGRnZEf2JEomEvcBVV1eDoiiHQAdYDQLS0tI2DKIffNCMz3/e9YX9/3AeTBBA+ImfMzU3B2p4GMyaY0AynHV1dRgdHd1Ur/DZlmc/fS71iTbiJ9kjkUCEfcne+/YSYmNjsbKyArVajerqava7RKZMSaCzsrKCiIgINmjwpG/VE3g8HhsEicViB33AQJGUlAS9Xg+VSoWqqiqn5xtyg0YEwDkcDuRyOXJycnwWRBMEAgFKS0vR0NDADlcAn2YULRYLGIZBYWEhWlpaMDQ05KBjCKwGiRwOx63zQ1JSEoxGI1QqlYNANk3T7MCJuxBXFrVazQadzoLEQN0cHD9+HP/zP/+D3/zmN6iurkZ/fz9uv/12PPjgg/jRj34UkDV9FggGiZ8hSNP1ZuzevRsLCwtoampCeXk5AOCjjz4CTdOorq52+bylpSWcf/75EAqFeOedd3zuRxsTE4Pnn38el156Kfbt28daq/F4PCiVSjQ2NkIqlfrsbtdTLBYLZmdn2QuS1WrF5OQkKyESSPkQ0p/Y2NjI2n0FEiL2PTk5idOnT8NqtToE0ZGRkW5djPbsYRAdzWB+3vm2VvBxFHfgXjy6+gBNg/vWW7Deeee6bYVCIYqKitDU1ITw8HCXVoJzhjnUTNSw1ntrB1dKYkqQJXFu++cpGRkZrHVfUlISm42maRpSqXRbMtH2kB62pqYm1sc60GRlZUGv10OtVqOsrAwURTkIgJPJY7lcjrS0NL8LgItEIpSUlLD6iOScy+Vy2QwYmVRuampCSEiIwzCgs8nmjVAoFDCZTGhtbWXFtknPo6cBcHJyMkwmExt0+ksjUSaTgcvlrpPEmpmZcZmI+NGPfoT//M//xPXXXw8AUCqV0Ol0uPHGG/HDH/4waBHoJ4JHNcg68vLycMEFF+CGG25AfX09Tp8+jdtuuw2XXnopezKbmJhAbm4u2x+ytLSE8847DzqdDs8//zyWlpYwPT3N2lP5iiNHjuCqq67C9ddf79BjFxkZifT0dLS1tW2bhhrDMFheXsbQ0BA7GDA0NASBQICioiLs378fFEWBYZiABoiEQPcn2mw2nD17Fp2dnfj444/R2NiIkJAQUBSF1NRU7Nq1y6t+uW99a2O5mF/hdod/c95/3+W2UVFRyMnJQWtrq8s+19qJWugtegfhbAKP4uGruV91Y9Wbo9frMTo6CqvVivn5eXR1dYHP50OpVOLgwYMoKipCfHz8tgtLk364trY2n8gZbRWSKTeZTKipqXHai7lr1y4oFIpty4RFRUWhoKAAbW1tDj2DPB6PDRZJ28XaXkBPysTAp4L1PB4P7e3toGkaNpuN9ZX2FCLCr1arYbFY/BIkCgQClJeX49ixY+xjNE3j2LFj2L3b+cCXXq9f937IcQqKtPiPYCYxiFNee+013HbbbTj33HPB4XDwta99Db/61a/Yn1ssFvT09LAToc3Nzezk81pZiqGhIZ+VOCmKwqOPPorKyko88sgjuP/++9mTfnp6+ieTr73Iy8vzyeuthZTdSWnUarVu2NNEykpRUVEb9pVtF9vdn6jX6x1cYUhmpaCgANHR0eBwOFheXkZ9fT2kUqlXbiN3323FI4/w4eo6MYN4dCMbuVgVO+c2NwM0Dbi4gCYmJmJxcZHtdVt7YfpN028c/s0Bh9VJFPKE+Hyad5ZlRHaFZMCIe0dMTAzS09PR2toKsVjsMsO5ncTHx2NlZYV1QPFVW4knmM1m9ljNzs6Cy+XCZrMhJiYGeXl52+7lvpbY2Fi2FFxVVcW6n/D5fFakOiIiAnl5eWhvb0dZWRnCw8M9ziQCn07FNzc3o7u7G8nJyeByuV59v4krS2trKyYnJ9m+al8Lad911124+uqrUVFRgaqqKjzxxBPQ6XRsK9FVV12FxMRE/OxnPwMAXHjhhTh69ChKS0vZcvOPfvQjXHjhhQH/Xf87EwwSgzhFIpHg9ddfd/nztLQ0h7u3Q4cObdvdnEgkwiuvvIL9+/fj8OHD7J0nmTCsra1l9d+2CsMwbOlqdnYW8/PzCAsLg1QqdQh0XCGRSJCWloa2tjZUV1cH/GTm7/5E+8EAe5symUyGnJwcp8MF4eHhrFXYrl27PG5TCAsD9u2z4eOPXR/bu/FzvEsGWPR6UI2NYKqqnG5LLpKNjY3o7u5Gfv6nU8pGqxG1k7WO79kuo1idUI20qDS3104CHfL54nA4kMlkyMrKgkQicegpKyoqgkqlgkgk2hGuF5mZmdDpdGyZ09/lPvJd1Gg00Gg0WFpaYlsUiETUysoKGhoaIJPJNu2f3g5SUlJgMBjQ0tKCyspKNpgmv1ebzQaZTIa0tDS2F9CbIJHsk9g7Ap6Xmu0hriw1NTVYXFz0i9vKJZdcAo1GgwceeADT09MoKSnB+++/zw6zjI6OOnymSELg/vvvx8TEBORyOS688EI89NBDPltTkPUExbSD/Mvy8MMP45lnnkFNTY1DH+LU1BR6enqwe/dur8q8NpvNIVtoNpshkUggk8kglUrXTRFuBk3TaGpqgkgkcgg4Asni4iIaGxtRXl6+5f5Ek8nkEOjweDxW/HttoLMRHR0d0Ol0qKio8DjgqKmhcPiw6+CSCysMCAUPq60I1rvvhuW//mvDfRqNRtTW1iIzMxNJSUkAgPf638PFb13sdHsBR4AHDz6I2ypuc7lPIrtCMmBLS0tsv5xMJtu0HDoyMoKRkRFUV1fviBYGq9WKhoYGREVF+SV7T246iKi1yWSCVCplP1/Obig0Gg3a2tpQVlYW8N5bYPV3Tkq35eXl7Gd7rdh2f38/5ufnkZiYCK1Wi9LSUq9eT6fTobGxEVwuF/v2bW2Aqq2tDfPz8+BwOHjxxReRm5uLn/70p1vaZ5B/LYJBYpB/WWw2G8455xykpKTg6aefdri4Evu60tJSt0ou9mXR+fl5CIVC9kIUHR295QygwWBAbW0t8vPz18k+BIqRkRGMjo5i165dHpUL7SVqtFotO11Ljpe3gwE2m40NOHJzcz1+fnJyCObmXL+uvQMLXVgIkxvC8HNzc2hpaUFFRQUiIyNx5I0j+Hj0Y6f9iKG8ULRc14LkiGSHx+1vOshAk0QiYQNDT4I9osOn1+u9Cqb9gcFgYN09yDTvVlhbRiY3HcQZxp3v4ujoKAYHB1FdXc2WeQOJzWZDY2MjQkNDoVQq2e8HTdMwm81gGAZcLpe9USKC2d4yNDSEoaEhKJXKLVVUWltbERISgi9/+csIDQ3FzTffjLvvvtvr/QX51yMYJAb5l2Z4eBilpaX49a9/ja9+9dOBAWJJl5qa6lSqw2azsWXR2dlZh7KoTCZDWFiYz/v1zp49i46ODuzatWtHXLhIhoNhmE37E8nkNgkMGYaBVCqFXC736XStXq9HXV0d8vLyPC4X/vd/8/Czn7kOdjPQj36satdBIIBhchJw4/dAsndVVVVI/t9k6K3OnVnOTT0X73zjHQCrWUiS/Zqbm2NvOuRy+aYtCptBAg6xWIz8/PyA6xUCYNUQSkpKPO4rdZZdJWVkuVzu9U1Hd3c35ubmHMq8gYTYCcbGxrLKDIBjoEhRFOrr60FRFHbv3u3173ZychLj4+MwGAysWoA3NDc3Iz4+HkNDQzhy5Aiuvvpql44oQf49CQaJQf7lef3113Hbbbehrq7Owct0fn4ezc3NqK6uhlgshsFgcBiiIKLDJFu4FftAd+nq6sLy8vKOyQK58ne27//SarVYXFyESCRij1dkZKTf1n/27Fm0t7ejqqrKI6/gpSUgISHU5QALAIwhEYlYtR8z/uUvYD6/+ZAJwzBoa2vDh+Mf4scdP3YQ0CYIOAJ8v+L7uDjxYgcBcJItFIlEPg3mjEYj6urqkJ6eviP0CoHVwKSnpwdVVVWbClvTNO2QXTWbzWwZWS6X+6SUTtM0VCoVGIbZlp5Jd9DpdGhoaHBoYQBWA3+ioTg0NITp6WkkJiZ67U09OjqKxcVFREdHY2hoyKnYtjs0NDQgLS0NcrkcxcXFmJycxNtvv43zzz/fq3UF+dcjGCQG+ZeHYRhceeWVmJqawttvv82Wo2iaRkdHB2ZnZ8Hn82EwGBAVFcUGOr6+cLuDzWZDfX095HK51xcAX0P6E0tLS1lbN/teTJIt3M7sZ19fHzQaDaqqqjwK3vftE6KlxXUwcAOewTO4GQBgvflmWB5/3K392mw2HHr+EFSLKqelZgElwLPKZ5GbkMseL39nr0j2rrS0dEdMPAOrv7ezZ886FbY2m83sTQcpIxPtVl+0dDiD9ExGRkbuCJcY4NOb16KiIodSsNVqhdVqRX9/PxiGwezsLNLT0x2CSXcZGhqC0WhEXl4e+vv7cfbsWVRUVHic8a+pqUFubi6ioqJQXFyMyy67DE8++SQ++ugjVFRUeLyuIP96BIPEIP8WLCwsoKSkBBdffDEiIyNx8uRJ3HrrreyFKjIyEkqlcluyhZuxsrKC+vp6lJSUBPzibjAYoNFoMDY2Br1ez0rU+KoX01tomkZzczOEQqFbNnmE48c5+OIXXWehxFjGIiJBAWAUChhbW91bD0Mj4ZcJWLYsO/353oS9+ODyD7Y9CJmYmEBfX9+O6b1jGAYqlQo0TaOkpAR6vZ4NDEkZmQSG/nKGWQvpmUxLS9vUSWe7mJ6eRmdnJyoqKtihO4ZhMDc3h76+PnZQTqVSIT8/3+O+wr6+PjAMg+zsbDAMg87OTuj1elZs210+/vhjlJSUQCwWIz09HX//+99x+vRpzM3N4cEHH/RoTUH+NQn8FTNIkC1gtVpRU1OD9957D1wuF48//jgyMzNx5MgRKJVKxMbGsn1ui4uLXunw+RqxWIzs7Gy0tbVh9+7d2yqGbK/Fp9VqodfrERUVhYSEBFZrLicnJ+AZF6L7Vltbi/HxcbcHIg4epBESArjQwcYKwvFPHMI5OA5qeBhYXAQ26Nci07WvqV/DimXF6TZ8Dh+HMw4H5JglJiZieXmZ1eILtMQSTdNISEhAV1cXTpw4wfauJiYmBsx1KDQ0FCUlJWhqakJoaChiYmK2fQ1riYuLg9FoREtLCzIzAOE93QAAcXlJREFUM7G4uAiNRgOaphEdHQ25XI6wsDDk5eWhs7PTwU/ZHWw2G3teIWLbarUa7e3tKCoqcqv0TtxhiPj34uIioqKicOeddwbFqz9DBL5JI8i/BXNzc7jiiisQERGBqKgoXHfddVhZcX5RJTz77LM4dOgQK/uxsLDg0Wt2dXVBJpPha1/7GiYnJ/Hf//3f+Pa3vw2hUIgHHngAcXFxoCgKIpEI2dnZ6OjoCIjTiDMSExMRFRWFjo4Ov59wTSYTJicnoVarceLECXbyW6FQ4NChQ6ioqEB6ejqKi4uxsrKCkZERv67HXYhNXm9vr4NrxUZQFPAf/7GxA8tP8JPVv9hs4Jw5s+7nJpMJExMTUKvVOH78ODo6OvDOyDug4DwI5FAcXFF4hVvr8wfZ2dng8/lob28PyMWbHC+VSoUTJ06gt7cXUqkUFEUhMzMTJSUlSExMDKhkT2RkJAoKCtDe3o6lpaWArQP49HjNz8/DbDajq6uL1XglTjoikYi1XszIyIBarWaNC9xhrWsLuekym83o6elx63Ni7/+s0+lgs9lYSaFA30QG2T6C5eYgPuELX/gCpqam8Mwzz8BiseCaa65BZWXlhoLcTzzxBGt9du+992J+ft4jXTOLxcLKk5A7Y7PZjN27d2PPnj14+OGH2ZMZmeSlKApFRUU74iRHhkZSUlJ8WgYjwrckW7i0tMRK1Gw2LepL/URfMTw8jLGxMVRXV7uVdZ2aAjIzXZdeubBhGSKEwAzr1VfD/NRTWF5eZsuiy8vLDscrJCwE6b9Jx7xx3un+KuMrcfzK496+PZ9gNpvZwa2MjAy/vhaZRiai1muPFykjk947byae/cXw8DBGR0dRVVXlc295VzgTAY+IiGDbOvr7+2Gz2VBWVuZUQ5HH42FgYABarRbl5eVufQfUajVkMpnDIB+wGqA2NjYiPj5+08+JyWTC6dOncejQIUxNTSEvLw9Go3FH6HMG2T6CQWKQLdPV1YX8/Hw0NDSwzczvv/8+jhw5gvHxcQfzemccP34cn/vc5zwOEjdaT2VlJX73u9/h3HPPZR83m82oqalBZmbmupNnoCDDB5WVlR6Vk9ZisVgwNzfHasuRLAQZ0vGkpO2tfqK/YBgGra2tsNlsbuteKhQhmJ52vd1TuBk34xmY4uLwzxdegM1mYyV91h6vP3b9Ede9ex1szHpPcC7FxT2778F9e+/z7s35kOXlZTQ0NGxZG88ZRDKKBNIWi8Xh8+UqcJiYmEBvb69bE8/bAcMw6OrqwtLSEioqKvzWo+xKBNyZNqbVamUljQoKClxqKHZ2dsJkMqG0tHTTtoKmpiYkJiY6lZHS6XRoamqCQqHY8DxIJrEPHTqErq4ufO5zn8Py8vKOmBIPsn0Ef9tBtkxNTQ2ioqIcpt0OHz4MDofD+jlvJ3l5eXj44YfxrW99C7Ozs+zjAoEABQUF6OnpgU6n2/Z1OSMqKgrp6eloa2uD1bpxmdQeks0ZHh5GY2MjTpw4gYGBAQiFQiiVSrZslZCQ4HHPY0pKCsLDwwNWvlwLRVHIz8+HwWDA4OCgW8+54YaNj+VR3AUAEM7MoCg1FYcOHUJxcbHT4/VWz1tOZW8AgAKFLyd+2a01+Zvw8HDk5+ejvb1901YPd7AvIx8/fpwti+bl5bHHa7MycmJiIhITE6FSqWCxWLa8pq1CLBf5fD7a2tp8+vm2WCyYmppCa2srTpw4gfb2dtA0jZycHBw6dMhl2Z3H46G0tBTz8/MYGBhgH+dwOBAIBKAoCjabDbm5uaAoCp2dnZuu22azuQyAiVB3f38/tFqtW/tYXFzc1A3IU5566imkpaUhJCQE1dXVqK+vd7ntoUOHQFHUuj9f/OIXfbaeIM4JBolBtsz09PS6ZnAejweJRILp6emArOmWW25BaWkpvv3tb4OmP5UsISUYcgLfCaSnp0MoFKKnp2fD7Ww2GzQaDbq7u3Hq1CnU1dVhfn4esbGx2Lt3L/bs2cN6/m7lbp/4O6+srGB0dNTr/fgSPp+PoqIijIyMbHhhI9x++8ZB4gAyMQM5wDCQdne7PF4WmwWnx0+DZpx/VtIj06EZ0uyYm464uDgkJyezNnCeQNoUBgcHUVdXh48//hgTExOIjIxEVVUV9u3bh9zcXMhkMo8+X1lZWQgLC0NbW9uO+M5xOBwUFRXBYDCgt7d3S/vS6/UYGRlhb9RGRkYQFhaGsrIyHDhwgJ1M3izzJxQKUVpairGxMUxMTDislc/ng6IoMAyDwsJC6HQ69Pf3b7i/tT2JayE2ih0dHS77fa1WKxskkhK5r3jjjTdw11134cc//jGam5tRXFyM888/H2fPnnW6/Z///GdMTU2xf9rb28HlcnHxxc4tMoP4jmCQGMQl99xzj9O7N/s/3d3dgV6mUzgcDp5//nmcOXMGr776qsPPMjMzQdO021kpf0Oa1jUaDaamphx+ZjAYMDY2hpaWFhw/fhzd3d1gGAa5ubk4dOgQSktLkZyc7HP5Ez6fD6VSif7+fo8HivxFeHg4cnNz0d7eDoPB4HQbs9mMqakp9Pe3IT19owEFCr/AnQAA3h//6HKrv/X/zWUvIgccfC3va0hMTIRarfYoE+xPFAoFG5S5k3HSaDTo6urCxx9/jMbGRiwvLyM5ORkHDhxAVVUV0tPTvXY9AVY/30qlEkajcctBma/g8/koKSnB1NQUxsbG3H4ewzBYWFhAX18fzpw5gzNnzmB2dpa9Udu1axcyMzMRGRnp8fESi8UoLi5Gd3e3w40Ql8sFj8djz7lKpRLT09MbrnujTCIhJiYGGRkZaG1tdToUYx9okiDRV5nEo0eP4oYbbsA111yD/Px8PP300wgLC3Pp5iKRSBAXF8f++fDDDxEWFhYMEreBoAROEJfcfffd+OY3v7nhNhkZGYiLi1t3B2i1WjE3N+extZoviYuLw3PPPYcrr7wSe/fuhUKhALB60i0sLER9fT2kUimio6MDtkZCSEgICgoK0NbWBgDsYACRqJHJZMjKytpWAfCoqChkZmaira1tx/QnJiQkYGFhAa2traisrARFUeucYcRiMWQyGe6+m8Ztt7ne1wu4Fg/jPnA+/tjlNu/1v+cy0OJQHNxYeiPkoXIsLy+jo6NjRwxFkZuO+vp69Pf3O1jAAatlZHtRa4FAALlcjoKCgi1bBrqCx+OhpKQE9fX1EIvFXglE+5qwsDCUlJSgubkZoaGhkMlkTrezWq2sJaVGowGwWpFQKBSQSqU+7WuUSCTIz89HW1sbKioqEB4eDmD1+BFJGqFQiOLiYrS0tEAoFDqV9Nksk0hITk6GyWSCSqVaJ7Ztn0kk5WZfYDab0dTUhHvvvZd9jMPh4PDhw6ipqXFrH88//zwuvfTSHdHn+u9OMEgM4hIiersZu3fvZgcwysvLAQAfffQRaJpGdXW1v5e5IRdeeCEuv/xy3HDDDfjggw/YQCc8PByZmZlob28PeABkNpvZSWTiEhMbGwuFQgGJRBLQtaWkpGBubg7t7e2b+jtvF5mZmaivr0ddXR2sVivrDBMfHw+lUslOrWZkALffDtjWz5sAALSIQQ+ykDPRtyqsuGba1WKz4MPhD506rFCgkBCegFhRLABAqVSirq4Ow8PDSE9P9+0b9gKSKSNBmUgkWje9TVx/tuvGIywsDMXFxWhubkZYWFjAheSBT8uua4My4r2t0WgwPz/PiswXFxf71ZISAOLj41kNRfspbD6fD4ZhYLPZEBYWhoKCAnR0dEAgEDgM/NlL17iDQqGAyWSCWq12ENteW272ldqBVquFzWZDbGysw+OxsbFuVabq6+vR3t6O559/3ifrCbIxwXJzkC2Tl5eHCy64ADfccAPq6+tx+vRp3Hbbbbj00kvZyeaJiQnk5uY6NCdPT09DpVKx/TVtbW1QqVSYm5vz2dooisLjjz+O+fl5PPbYYw5ZoZSUFIhEok17AX0N6f0aGBhAXV0dTpw4gbGxMYhEIpSXl0MkEkEoFCI2Njbg2TuSlQp0f6LRaMT4+DhUKhU+/vhj2Gw26HQ6xMbGsmX3pKQkB1kTDgc4cMBFhPgJj+D7q9s6ySb+feDvmDO4/ix+I+8b7N8FAgGKi4sxODjoMCwVKGw2G/R6PSIjI9He3o6GhgasrKysKyNvl+sJITo6Grm5uS5LnIEgPj4eKSkpaG5uRk9PD2pra3Hq1ClMT09DIpFg165d2Lt3L7Kzs/2WaV1LWloaZDIZWlpaHHpLeTweuFwuK7qtUCjQ2trq0BNL2h7cFVYnw0g8Hg8dHR1s3+jaIDFyA9H57eT555+HUqlEVVVVoJfymSAYJAbxCa+99hpyc3Nx7rnn4siRI9i3bx+effZZ9ucWiwU9PT0OF4ann34apaWluOGGGwAABw4cQGlpKd555x2frk0sFuOVV17B0aNH0dDQwD5OBjS0Wu26XkBfY7VaMTMzg46ODpw8eRJNTU1YWVlBUlISDhw4gOrqaigUCkRHR6OoqAjj4+NuDWhsB4HoTyQOD/39/exFe2pqCpGRkaiursaBAwdQXFyM8fFxl/2JAPCDH2w8vPEmvg4A4L722rqfHRs+5nJgBQBuK3esZUdERLBZqY3W5C9IIE36V3t6ehAWFoaEhATw+Xzk5uZ6Ne3uaxITExEfHx/wiWfiU97V1YXx8XFYLBZMTk6ygXRlZSXS0tICUtIkU9hCoRCtra1s4MbhcMDj8cDhcGCz2ZCQkICEhASo1WrWKMD2Serck2CWiG2bTCZWbHvtdLOvgkSZTAYul4uZmRmHx2dmZjZtT9LpdPj973+P6667zidrCbI5QZ3EIJ8ZHnroIbzwwgs4c+YMW1YCgLNnz6KjowO7du3y2QAIwzDQ6/VsGXl+fh5hYWGsrlxUVNSGJ/GJiQn09/dj165dO0a81t/6ifa9X6T0TrTlpFKp0+Cmv78fMzMzqK6udllek0hCYTK5ft16VKI8YQrGvr5P10JbkfW/WTirXz9tSYGCJFSCkVtHnGbhurq6sLi4iMrKSr/a5DEMw4qAazQarKysIDIykhW1JmVkhmHQ1tYGk8mE8vLyHaFzxzAMWlpaAAAlJSXbtibS2kH0RPl8PttWExkZiZaWFggEgh3RWwp8qqFI5I1caSh2d3dDr9ejrKwMBoMBzc3NOHDggMevZy+2bTKZIBQKkZGRgeuvvx55eXn4yU9+4pP3VV1djaqqKvz6179m309KSgpuu+023HPPPS6f9+KLL+Kmm27CxMTEjhFo/3cnGCQG+cxgtVpxzjnnQKFQ4Mknn3S4CHR2dkKn06GiosLriwMRHCZBjslkQnR0NBsYhoWFub0vhmHQ3t4Oi8XitoC0v2EYBiqVCgB81p+o0+mcBtLkor1Z8MAwDJqbm9lsp7M1XX65AG+/7TpY+zr+iD9Ql8KwsAB8Emj+feDvuOTPl8AG5+Xqb5d/Gw+f87DTn9E0jcbGRrZvzJe/O5vNxoqmE69fd0TTbTYbGhoaEBERgfz8fJ+tZytYLBY0NDRAKpUiJyfHL6/hzO0kPDycDQzXltvNZjPq6+sRGxu7buAnUBiNRjQ0NCAhIYEdvgMcA0UOh4PW1lbweDwkJyejs7MTe/fu9er1iNh2SEgI4uLikJKSgksuuQSHDx/GXXfd5ZP39MYbb+Dqq6/GM888g6qqKjzxxBP4wx/+gO7ubsTGxuKqq65CYmIifvaznzk8b//+/UhMTMTvf/97n6wjyOYEB1eCfGbg8Xh46aWXUFpaivPOOw//8R//wf4sJycHtbW1Hg8eGI1GNjMxNzcHgUAAmUyGnJwcSCQSrzNJpNxUV1eHkZERpKWlebUfX0L6E2trazE6OuqVlSBN01hYWGCHKAwGAyQSCeRyOfLy8jwKpMmalEolamtrMTY2hpSUlHXb/OhHlg2DxPfwhdUL7Ycfgv7CFwAAH49+7DJApEDhhtIbXO6P6PDV1dVhfHwcycnJHr2ntaz9jAmFQsjlchQWFrrdI8flclFcXIy6ujqEh4dveU2+wH64RiQS+Wzi2f4zptFoYDKZIJFIkJCQgOLi4g0z8wKBAKWlpaivr0dYWNiOcGYKCQlBaWkpGhoaEBoayvZ5Ew1FYt9XUFAAlUqF0dHRLWWwidh2c3Mza5vq657ESy65BBqNBg888ACmp6dRUlKC999/nx1mGR0dXfe57unpwalTp/B///d/PltHkM0JZhKDfOZ45ZVXcMcdd6C+vh7x8fHs48S3uKKiwuUJkaZpLC4ustkvnU7HlvhkMpnPBwHcWdN2Yz/J7s7Eo/309uzsLDgcDpstlEgkPpEQ2WxNcnkoNpqTOI3dqLwsA5bnnoONtiH76WxM65wLwUcJozBwywBCeBt7/xLvYk99sO29t+3LyMTSbSvTyGRNZWVlO0L6CQDm5ubQ0tKC0tJSryeeLRYLZmdn2ZsP+8+YVCr1OGjyxZp8zezsLFQq1TovbJvNBovFwkrkNDY2gsvlep1JJJw5cwZmsxlFRUW48MIL8cADD+DrX//6Vt9GkH8xgkFikM8cDMPgsssuw+zsLN566y2HO9ahoSFMTk5i165d7IXFbDY79MpRFMUGhVKp1O8TyMPDwxgfH8euXbv85jXrKRv1JxLLQHLBJiU+ctHeijDzRoyOjmJ4eBi7du1aV3a97jo+fv9718fuIryFN1PvgrGzE/8c+Se+/IcvO5W+AYAbS27ELz7/C7fXNDQ0hOrqaofJ67XYbDYHLT53+jG9ZWxsDAMDA6iurva5CLu3jI+Po7+/H1VVVW5nkw0Gg4NMjUgkYsvIvhB+3mm+0wAwOTmJnp4eB7keYDVItlqt4HA47PcgPz9/Szq1tbW1oGkaN9xwA6xWK15++WUcPnzYF28jyL8QwSAxyGeSubk5lJSU4Dvf+Q5uueUW9nGGYdDY2AiBQIDw8HA2yCECzTKZzCs3ha1A+u4EAgEKCwt3VH8iRVEoLi4GTdNsr5xWq4XVanXolduO4RsyoGGxWFBWVuZwnEZHKeTluQ7SQqHDChUJ4/wcHqx7GA/XOO83pEDhn1f8E5UJlW6vqaOjA3q9HhUVFQ43JESLT6vVOpSR5XL5poNNW6WzsxNLS0t+H67xhJ6eHszOzqKystLpjReZeCfHTKfTITo6mj1m/gh4+/r6MDMzg6qqqoBPhRMGBgYwMTHhoKEIrN7M2mw2TE5OYnZ2FsvLyyguLvY6Y3zq1CkUFRXhvvvuwyuvvIJ3330XX/ikHSPIZ4dgkBjkM8tHH32ECy+8ECdOnEBCQgKOHTuGvLw8aDQamM1mREZGIjExEVKpdMMs0HZgMplQW1uLrKwsticp0CwtLaGpqQlCoRAGgwFCoZDNFm6XntxarFYr6urqEBsbi8zMTIefxcaGYGXFdYDdhFLkvvVjZA9+GxPLE063EfPF6Lu5DxFC990nyNBIZGQkEhIS2CDHvowsl8sRFha2bTcANE2zwwk75caDpml2MIoMa5EMKzlmNE07lJH9ncVnGAatra0wm807ajLcPsgn1QWapmG1WjE4OAiLxYKoqCj09/ez2quecvz4cVRWVrJ91gUFBaipqYFYLPb1WwqygwkGiUE+s/T09ODmm29GXV0dzGYz4uLi8Pvf/x4pKSkwmUzo7e3F7t27d4wEjVarRWtrK6qrqwNS/nKWyRGLxVhZWUFhYSFiY2N3RLCxsrKC+vp6KJVKB8egG28U4LXXNp5yvv3W13FQ/leXpebL8i/Dc198zu21EHvKqakpnD17FhwOhw0KZTJZQMXSTSYT6urqkJKSsiMGo4DVsmldXR1CQ0PB4XC2PcPqDJvNxk6r76SAuqWlhc3k6/V6aDQanD17FsvLy1AoFEhOTsbw8DCmpqZQUVHh0XmMpmkcP34ce/fuhclkQlJSEvbt24fw8HC8/fbbARf5D7J9BP62KMhnhqeeegppaWkICQlBdXW1g/uKM/74xz8iNzcXISEhUCqVeO+997a8huHhYdxxxx3IyspCUVERuFwuoqKicMkll6C7uxulpaWQSqVISEiAVCpFR0eHS+/e7UYmkyEpKQltbW2suK6/sVgsmJ6eRnt7O06cOAGVSgWTyYT09HQcPHgQu3btQmZmJvr6+linh0AjFouRl5eH9vZ2B1Hr++7bWLj5PRzBxxOnXQaIFChcnHfxpq9vMBgwNjaG5uZmnDhxAn19fQgJCUFWVhYoikJaWhri4+MDfqEVCoUoKSnB4OBgQIXbid7j4OAgmpubYTAYMD8/Dw6Hw7qdELWAQGTyuFwuSkpKsLCwgMHBwW1/fVekpKRgaWkJJ06cQH19PZaXl5GSkoL9+/cjISEBVqsVqampiI6Ohlqt9uj7Sbbl8XhYWloCAPz5z3/G+Pg4XnnlFb+8nyA7k2AmMci28MYbb+Cqq67C008/jerqajzxxBP44x//iJ6eHqcG9WfOnMGBAwfws5/9DF/60pfw+uuv45FHHkFzczMKCwu9XsfAwAAeffRRfPGLX8S5554LkUiEjo4OVFdX4w9/+AMOHTrEbmuxWFBbW4vU1FSn0iqBgKZpNDQ0ICoqyi/ackRXjgzpLCwsQCQSOWgXrs2krO1P3AmZFsC5qHVsbChWVlw8gaKR8u0QjEqcX0xDuaHovbkXklDHaVcyjUyGKHQ6HaKiohxErQlDQ0MYHx9HdXX1julxm5qaQnd397YOaNA0jfn5efaYWSwWdlBHJpNhZWUFLS0tO2oKe2VlBQ0NDcjNzXVQRdgurFYrO9hEJrglEglmZ2eRnJy8oYZiW1sbKIpCUVGRW4G2Xq9HXV0dDh06hK6uLpx77rlYWlrC4uIioqKidsx3PIj/CQaJQbaF6upqVFZW4sknnwSwehJLTk7Gt7/9bacK+5dccgl0Oh3+9re/sY/t2rULJSUlePrpp32+vl/96ld49NFHUVtb6yB5QSRDqqqqHKYJA4ler0dtbe26cqq32F+wiQi4RCJhh07cGQggAXVKSopX+on+gATUxK0CAP7zP/n4859dTDnLuoFbCgCO81PiV7K/glf/41UAn5aR1/bKkT+usoSkx81qtaK0tHRH9LgBQG9vL7RarcuhEV+w1u2Ex+OxZeTo6Oh1AzRk4nknTWFrtVqo1WqPZY28hQw3EY3MsLAwxMTEOExwLy8vo7GxcV3wai+NAwAqlQrh4eHIzc3dNMhbXl6GSqXC/v37UVNTg29+85uYmJgIBoefQXaGnkaQf2vMZjOamppw7733so9xOBwcPnwYNTU1Tp9TU1OzTt3//PPPx1/+8he/rPG2227De++9h9tvvx0vvfQSe/GOjo5Gamoq2tvbUVVVtSMmQcPCwpCXl8daCXozVGMymRy0C3k83pZEwInjSVNTE6KionaEpqO9qHVUVBQSEhJw551W10Fixv8BFAMwAJxcC89PPR9jY2PsBTs0NBRyuRxKpdLtXjniF15fX4+BgYEd4+qRlZWFlZUVtLe3+8xNB4CD28ni4iLEYjHkcjnS09M3lUJKSkpiM4pVVVU7Qv5JJpMhOzsbKpXKI7kedyHyUWfPnmU1MqOioiCXy5Gbm+v09cLDw1FUVASVSgWhUMje5JLvMAkUlUolmpub3TIMsFqt7PFeWlryiaRQkH9NAv+tC/Jvj1arhc1mY9X0CbGxseju7nb6nOnpaafbT087FzjeKhwOB//v//0/FBUV4Xe/+x2uuOIK9mcZGRmYnZ1Ff3+/3+zDPCU+Ph6zs7Nob29HeXn5pidwe4FmrVaL5eVlREREQCaTISMjwyci4FFRUVAoFGhtbfWbv7OnhIaGorCwEK2trQgPD0dpaThCQoBPjCTsYICqp1zuh0fxIJoWYcY6A7lcjpycHK9LszweD8XFxaivr0dERMS6z3kgIM41dXV1GBgYWDcZ7i5EbJ4EhkajERKJBPHx8VAqlR7f0JCArK2tzafB61ZITk6GXq+HSqXySebVVek9JSVlQ6tFe6RSKXJzc6FWq1FZWclOIHO5XHbqmc/no7i4GM3NzQgJCdmwZO4sSAzy2WRn1DqCBNkBxMfH49lnn8V3v/tdDA0NsY9zOBwUFhZiYmICs7OzAVyhI7m5uTCZTBgeHnb6c6vVirNnz6KjowMnT55Ec3MzdDodkpOTceDAAVRVVSEjI8On4tapqakQi8U7buAnNTUVra2tsNms2Lt37WAKBYTNApJ+l/s4kHAAF557ISoqKpCamrrl3j2RSISCggJ0dHRgxWWT5PZCbPLGxsY8uhmzWq2YmZlBe3s7Tp48CbVaDYvFgqysLBw8eBClpaVISkryKuPN4XCgVCqh1+vR19fn8fP9RXZ2NkJDQ9Ha2urVEBkZCGtra8OJEyfQ3t4OmqaRl5eHgwcPori4GAkJCR71rSYmJiI5ORktLS0wmUzs43w+nw0WieRRT08P5ubmXO7LarWymcjFxUWfVwY8HWJcWFjArbfeivj4eAiFQmRnZ/tkkDHI5gQziUH8jkwmA5fLxczMjMPjMzMzLh0B4uLiPNreV1x00UX4xje+gRtuuAHvv/8+ezctEomQnZ2N9vZ27N69e0cMHfB4PCiVSjQ0NCA6OhpRUVHQ6/VstpCURGUymUcl0a3gC39nf5CRkYHFxUV0dHTg1ltLcOzYmoAl78+rpWYnUKDw5bwv+zwzGhMTg5SUFKjValRVVe2IzKtYLEZhYSHa2togEolc9uGudTsJCwuDXC5HSUmJz8Xm7T2exWLxjtAJJZnXxsZGdHV1IT8/f9P3bDAYoNVqcfbsWQeHmLKyMp+VcxUKBYxGI1paWlBRUcGev8j/bTYbIiMjkZOTg7a2NpSXlzvVPfRnJvGNN97AXXfd5TDEeP7557scYjSbzfj85z+PmJgY/OlPf0JiYiJGRka2pSc0SHBwJcg2UV1djaqqKvz6178GsFpiSUlJwW233eZycEWv1+Ovf/0r+9iePXtQVFTkl8EVe5aXl1FeXo7LLrsMP/jBD9jHGYaBWq1mpwR3QumLpmn09PRgamqKFbWOjo5mBygCZSdGvJR3kue02WxGXV0dkpKSUazMgY2x67u8NR+QdX36b7tfLY/DQ//N/ZCHbX1IaC0Mw7B6dzulnAoAg4ODmJiYYKewXU1w2wuB+xvip7yTJp6NRiPq6+udak0SaR9yzEh/YUxMDGQymd+OGU3TaG5uBpfLRXFxMXtjSNM0LBYLaJoGl8vF2NgYJiYmUF5evi7LOzQ0BIPBgPz8fPz0pz/F/Pw8nn/+eZ+sz9MhxqeffhqPPfYYuru7d8SN1GeNYCYxyLZw11134eqrr0ZFRQWqqqrwxBNPQKfT4ZprrgEAXHXVVUhMTMTPfvYzAMDtt9+OgwcP4uc//zm++MUv4ve//z0aGxvx7LPP+n2t4eHhePnll3HOOefg3HPPRUVFBYDV7EF+fj5qamowMTGBpKQkv6/FGcRLmkyJUhQFHo8HPp+/YzJSO60/0Wq1stmb/v4+ZKTK0TcsA0ABlA2QrumNtRteOZB8wC8BIuDYCzg0NISMjAy/vI6npKens446ERER7AS3VCpFWlpaQITAJRIJsrOzoVard8zEc0hICEpKStDY2MgOMq3tLyTtDtt1zDgcDoqLi9HQ0ICenh52mpnD4YDP58NiscBmsyE5ORlGo5Gd1rYfDLLPJC4sLPjsRs+bIcZ33nkHu3fvxq233oq3334bcrkcl19+OX7wgx/siEHCf3eCQWKQbeGSSy6BRqPBAw88gOnpaZSUlOD9999nm/ZHR0cdSqF79uzB66+/jvvvvx/33XcfsrKy8Je//GVLGomesGvXLtxzzz247rrrcPr0abYkQ/yT1Wo1oqOjtyVTRyYeSRmZTImSi09ERAQsFgtqamowMzMTsOB1LampqZifn0dHR0dA9BNdlURFIhG+9B8T+MUvPwn8Kp7ZsNR8btq5fl0nGSggcj2+kDXyFjL1TqR9CNvVrrAZycnJ0Ol07NDITph4Dg0NRWJiItra2sDhcFhpn7y8vIAJgPP5fJSWlqK+vh6hoaFslpMEisTnOTMzEx0dHWhra3PIOlqtVtahZWlpCcnJyT5ZlzdDjIODg/joo49wxRVX4L333kN/fz9uueUWWCwW/PjHP/bJuoK4JlhuDhLEBVarFQcPHkRubi5+9atfOQQ5PT09WFhYQGVlpV8uAjabDXNzc2xgaDabIZVK2TKysyGA2dlZtr9tp/irbqd+IsMwWFhYYIMcvV6P6OhoVqCZlPdWS7xt2L+/GgAFfKsYiGtdv0NqtdTcd1MfYkTre6V8DRG1rq6u3pbyLeB4A6LRaNj+M1JG5nA4qK+vR1ZWFhITE7dlTZtBLOk4HE7ASvRrb0BEIhEEAgGWl5d3TJYTWA3wGhsbkZ+f79DPvVZDUa1WQyQSIS8vDxRFob29HREREUhJScE3vvENnHfeebjzzju3vJ7JyUkkJibizJkz2L17N/v497//fZw4cQJ1dXXrnpOdnQ2j0YihoSE2c3j06FE89thjmJqa2vKagmxM4G/DggTZofB4PLz88ssoKyvD+eefjy996UvszzIzM1FfX4/BwUGv5ULWYjQa2Yv13NwcBAIBm5FwJja8FqlUiuTkZLS1te0YTUd/6ydaLBbMzs6ywTSwOiilUCggkUiclvdWe0rzkRB2FpPmcEDetW4bAKuqOPFV2xIgAqvT9UtLS2yg76/f31rJFXIDkpiYiJKSknVDWUVFRWhpaYFIJNoRwwJE/7K+vh79/f3bojVp31949uxZ6HQ69gYkPz8foaGhYBgG3d3dOyrLGRERgaKiIqjVagiFQraXc62GYmFhIVpaWtiWB/vp5qWlJZ99b70ZYiQWlvbfh7y8PExPT8NsNu+IIcJ/ZwL/KQ4SZAejUCjwxBNP4NZbb0VFRQV7IuNyuWwvmVQq9aqRnmEYLC4usgHOysoKIiMjIZPJkJWVBZFI5HGWRKFQYH5+Hr29vcjLy/N4Tf7A1/2Jer2eLYd6O1nL4/Hw1c8v4snpNwCuZb14NgOAoXBexnlbWqunZGVlobm5GR0dHVAqlT7LklksFge3Ey6XC5lMhtzc3E3F0yUSCbKystheQG+kbHyN/cSzSCTyy8QzCaaJsLXVaoVMJnPZk0lRFHJycqBSqdDa2oqSkpKAl+cBsCL5RACctMg401BsamqCUChcN93sqyBRIBCgvLwcx44dw0UXXQRg9TgfO3YMt912m9Pn7N27F6+//jpommaPZ29vL+Lj44MB4jYQLDcHCbIJNE3jkksuwdLSEt58802HE//o6ChGRkbcDn4sFouDnRvDMG7ZuXmCwWBAbW0tCgoKnEpKBIKt+DvbCzRrtVqXZWRPGe4xoeDXXwZSTjkPEmkehr/jn6nmjTCZTKirq0NqauqWSvQkmNZoNFhYWGDdTuRyucfamAzDoLOzEysrK6ioqNgRWWpgtcVCpVL5zCbPPpjWarVsf2FMTAyio6PdCvosFgsaGhogkUiQm5u75TX5ir6+PszMzKCyspLtNwTA9idyOBysrKxArVaDx+OxNxBKpRIvvPACzj3XN725b7zxBq6++mo888wz7BDjH/7wB3R3dyM2NnbdEOPY2BgKCgpw9dVX49vf/jb6+vpw7bXX4jvf+Q5++MMf+mRNQVwTzCQGCbIJHA4HTz/9NIqLi/Hb3/4W3/rWt9ifJScnQ6vVoru7G0ql0unzdTodmy20z3wVFxcjMjLS59mG0NBQ1rYvIiJiR2R+iB1dXV2dW/qJG5WRpVKpT0p5aTlCcDkm2Fz8PHQ2Y9sDRAAQCoUoLi5GY2MjwsPDHbzEN4JkpklgqNfrIZFIEBsbi4KCgi31yVEUhby8PFYXsKCgYEfI9UilUmRlZUGlUnndC+isvzAmJgZpaWleCc3bD42EhYUhJSXF4zX5g8zMTBiNRqhUKodA315DkXg7d3R0sILcvtZJ9HSIMTk5GR988AHuvPNOFBUVITExEbfffruDPFkQ/xHMJAYJ4ib/+Mc/cNFFF+HEiRMOpVyTyYSamhrk5OQgPj6eLVORAMdgMEAikUAmk0Eul29bU3tHRwf0ej3Ky8t3RNkL2Fg/cW0ZWSQSscfM1wLNhCPfuhMnMp4DOGtcM2gODo98E2//5tc+f013GR8fR39//4b+3FarlZVDsg+m5XK5z4Jpe3yV5fQlpBeQDJJt9p6daT6SzLQvv58LCwtobm6GUqkM6MS6PURDkVhDku/UWg3FkydPgsfjoaioCGlpaejq6toxPuNBtpdgkBgkiJswDIO7774bH330Ef75z386lGwmJyfR1dWF6OhoLCwsgMvlsuVQiUQSkCZ2m82Guro6xMbGQqFQbPvru2J4eBhjY2OoqqpyKIkGIpieGJ5E4W8ugFk69GmgSHMgmEtH643vIVkRWDmhzs5OLC8vO2R+jEYje8zm5uYQFhbGHrOoqCi/Z/gWFxfR2NiIkpISSKVSv76Wu5CJZyIgvfYY0DTNtnloNBrYbDZIpVL2O+ov/cLp6Wl0dnaisrLSpXvNdmNfDs/JyVkXKNpsNpw+fRparRYPPfQQhoaGoNFoIJPJArzyIIEgGCQGCeIBRqMR1dXVOOecc3DkyBG888472Lt3L8LCwsDj8cDlclFUVOQzm62tsry8jPr6+h3jUkF6vvr6+mA2m8HlclkHCn9kvtxhpG8UNx39GerEq2K+VUu78Mx370NqVuDLhDRNo6GhAUKhEOHh4Q7OHSQwDISrzuTkJHp6erZVrmczLBYLe1OUlZW1rr+Qz+ez2UJ3+wt9wdDQEHtTtBNaP4DVEnt9fT3S0tIcMsI2mw1arZYdMvvyl7+M+vp6LC8v7xhZrSDbSzBIDLKjeeqpp/DYY49henoaxcXF+PWvf42qqiqn23Z0dOCBBx5AU1MTRkZG8Itf/AJ33HGHz9ai1+tx7NgxvPzyy/jTn/4EgUCAPXv24Hvf+x52794NHo+H2tpaJCQkID093Wevu1VGR0cxPDyMXbt2BWQakPRkkgEKkUgEiUSC6enpdRepQDM4OIjJyUlUV1cH1CXGXifz7NmzMJvNCA8PR2pqKqRS6Y6Y6uzp6cHs7Cyqqqp2hNwL8OkgS0hICAwGw5aGdXwFwzDo6OjAysoKKisrd8zQz+LiIpqampCXlweBQMBOcdtsNsjlcmRkZECtVuO8887D17/+dfzud7/bMW0rQbaPnfHNDhLECZ4awev1emRkZODiiy/2ifArYXFxEZdddhk++ugjJCUl4Utf+hJuvPFGvPvuu3j11VcdMnRKpZIt5ewUz+Lk5GTMzc2hs7NzW5xPaJp2ELUmZeS1AxSxsbF+00/0lvT0dCwsLATEJcZsNrNZr9nZWTbzRVyGVCoVwsLCdkSACKzK9aysrKC9vT0gjjqA8/5CsViMlZUVKJXKdc4egYDYeTY3N7POJoGuMlitVhgMBoSHh6O9vR18Ph9xcXEoKChAdHQ0GIaBxWKB2WyGTCZDU1MT7rnnHjz66KMBXXeQ7SeYSQyyY/HUCN6etLQ03HHHHT7JJDIMg9/85jc4fPgwsrOzQVEUaJrGBRdcgOjoaLzwwgsOJ/2hoSE2G7VTMixmsxm1tbVIT0/3mcWWPaS0R/5wOBy2HLpRTybpT9wJ/s4Es9mMuro6JCcns3Zm/oBhGOh0OjbAWVpaYm355HI5xGKxw+dqZGQEIyMjqK6uduiHDSRmsxn19fWIj4/ftr5X0l949uxZ1ubNfliHz+djdHQUQ0NDqKqq2jHuJxaLBfX19ZDL5cjOzt721zeZTKwY+NzcHEQiEeRyOWiaxsTEBBQKhcMktsViwauvvopHHnkEx44dw549e/DBBx+grKxs29f+/9u786im7vR/4O+AbLJDEhRUkEX2fQmoo1gXFGVpZ6basZV21C5WR6szY2v7q/3Wjq3VOm1tp1pnHMdaR2tbt4D7Vhc2QZRdUbGCArLvIXDv7w/PvUMgKIEkBHxe5/ScNgnkk1sCTz6fZyEDh4JEopPa2towfPhw/Pjjj3zTVQBISEhAbW0tDh069NivV2eQ2JPS0lL4+/vj008/xbx58/jbWZbFlStXYGpqCi8vL409v6qqq6tx9epVhIWFqSWJngtwKisr+WNkLsDpbU5mf/onahJXnKHuXE5ul5ULDGUyGWxsbPjr9rjgj2VZZGdnQyaT6VTFemNjI9LS0uDj46OxvpxyuZy/Zp13WXvKL2RZFvn5+airq9OZ6SfAo/dMeno6XF1dtTJjvampiT9G5ppic30fO+eSfv311/j8889x9uxZVFdX48iRI0hMTER2djbGjBmDO3fuoLq6utftmMjQoRvvHEK66MsgeG1zcHDA1q1bsWjRIkRERPC5dQKBAD4+PkhJSYFQKNSZhtY2NjZwcnJCdnY2JBKJyrlRnQOcyspKtLa2wtraul99+Dr3T7x3757O9JSztLTEuHHj+AT+/uzccT0fueump6cHkUgEd3f3J0476Yy7Vmlpabh58ybc3d37vCZ1MjMzg7e3N3JyctRaxdtTM3BnZ+duu6xdCQQCeHh4IDMzc0CPw7syNTWFv78/MjMzYWJiovbq8M69MisqKtDa2vrYkYvAo6Nnb29v6Ovrw8fHB8OGDcOMGTOwfPlyxMTE8GukAPHpREEiIf3w29/+FklJSXyOIrdjwTW0zsvL05mG1sCjnLvq6moUFhb2apez6zg37hjZzc1Nba19DA0N+fnOlpaWOpOfOGrUKNTV1eH69esq79w1Nzfz143r+SgSiRAUFNSvyneuxUtqaiosLCwwcuTIPn0fdbOzs+OndYSFhfUpb7JzfmFFRYVCM3AfHx+V30OdZzzfunVLbTPW+8va2hqenp64fv06QkND+101zBU5cQE1N8XJzc0Ntra2Sj+EcEV4UqkUR48eBQDMnDkTGRkZGDduHH766SedKbAhA4uCRKKT+jIIfiAIBAJ8/vnnCAoKwhdffIFVq1bx940YMQKVlZXIy8tDYGCgTuxk6Onp8buctra23XZqWZZV2MGpq6uDmZkZhEIhHB0dNdbaR93zndWBmzKSmpqKoqKix+aRKZt2wjVo9vLyUmte3PDhw+Hr64vr16/DzMxMZ/rvOTs7o6GhAdnZ2QgMDOxVUN01wGEYBkKhEM7Oznx+YX8YGhoiICAA6enpMDU11Zmg2t7eHs3Nzbh69SokEonKQTX34a2iooI/fheLxfD19YWVlZXS4/eqqiokJSUhMTERZ86cgZ2dHWJjY/Hjjz9i4sSJGDZsGKqqqhAREYG//OUv2Lx5szpfMhmkKCeR6CyJRIKwsDBs2fJo6gXDMBgzZgyWLl2q1cKV3rh06RKmT5+OEydOKCR2y+VypKSkYMyYMTrV6qW8vBx5eXn8UaqyPDmuGEBbu6C6mp/Y1NSE1NTUbjl3HR0dCsfIDMPwzZnVEeA8ia606+msvb0daWlpsLW17fE4vK2tTWF3mssvFIvFSgMcdeB6/wUHB+vMTjWXY9ra2org4OAn7ty1trby+YU1NTX88btYLFZ6/M6yLIqLiyGVSpGYmIjLly/Dz88PsbGxiI+Ph5+fn9JrfevWLURHR+PMmTNwcHBQ62tWpaXZzp078corryjcZmRkhNbWVrWuiTwe7SQSnbVy5UokJCQgJCSEHwTf1NTE/+LoOgi+ra0NeXl5/L+XlpYiKysLZmZmGj9q4volLly4EBcvXuQbHBsYGPBHqTY2Njqz62NtbQ0LCwukpqbyo7i4qsuejqg0jcu5S0lJ0an8RFNTU3h7eyM3NxcGBgZ8wU51dTWMjY0hEong5+enkTncjzN27FjU19fzO3e6EFQPGzYMAQEBSE1Nhbm5Oezt7QH8L7+woqKC350Wi8W9yi9UB27uNzfjWRfSP7if94yMDOTm5sLX11fhOrAsi8bGRv66cU3UxWJxj7vTDMMgOzsbR44cgVQqRX5+Pn7zm9/gueeew65du+Do6PjEa+3i4oK8vDy1/w5QtaUZAFhYWKCwsJD/b134GX/a0E4i0WlfffUV/8kzICAAX375JSQSCQAgMjISTk5O2LlzJ4BH7VSUNbGePHkyzp07p/G1yuVyTJo0Cb6+vvj73/+u8AutqKgIDx8+RFhY2IAEYFy7FW4Hp66uDqamppDJZPyRqK78An7cfGdt4/5QV1RUoKSkBG1tbbC0tIRYLB6waSedcW1V7OzsdCbnDni0c3ft2jXY2dmhvr6ezy/kKpIHIkjjKp7r6+t1qqk110ZoxIgRcHZ2Rl1dHb9jKJPJ+B19kUikdMdYLpfj8uXLfEVyVVUVZsyYgbi4OMyZMwc2NjY68d5WtaXZzp07sWLFCtTW1mp5paQzChIJUaObN28iODgYO3bsQHR0NH87N17NyspKa1WpDMOgpqaGDww7t1sRCoUwNjbm25cEBAToVPXiQPZP7Dznt7KyEnK5HLa2thAKhSgpKYGZmZlOBdXaaEHTG13zC9vb2wEA7u7uGDFihE60oWEYBpmZmTAwMICfn59O/D/s6OhAaWkpbty4AT09Pb76XSwW91j93tTUhFOnTvGFJ8OGDcOcOXMQFxeH6dOn68yoRE5fWprt3LkTixYtgoODAxiGQVBQENavXw9vb28trpwM/LuWkCHEzc0NmzdvxptvvomUlBS+MERPTw++vr58wYhQKNTI83P5XtzUjie1WzEzM8O4ceOQnZ2NiIgInZnm4ejoiJqaGq1NPlGWJycUCuHp6QkbGxv+GNnW1hYpKSkoLS3VSp+73uBa0OTm5sLU1FSru5udr1tlZSUMDQ35AgpLS0vk5+fj/v37/LHzQNOVimfuunGFJ0ZGRhCJRKisrISvr2+31jgsy6KyshJHjx6FVCrFmTNnYG9vj9jYWBw4cAATJkzQiSC8J31paebu7o4dO3bAz88PdXV12LRpE8aPH4/c3Fydee89DWgnkRA1YxgGv/vd7yCTybBv3z6FPLXS0lIUFRWpLSDrPLWjsrKSz/dSZV4ty7K4fv06GIZBQECATuyuAP+bEuPk5KSR/MTO007q6upgbm7O97V8XJ4c15Q8NDQUFhYWal9XX928eZNPadBkwKDsuvU0JaajowNXrlzRyd3X9PR0eHp6aq1bQte+j+bm5gppCwKBAAUFBXjhhRewa9cu+Pj44Pbt23zhSUpKCgICAhAbG4tnn30W3t7eOtNQ/Unu378PBwcHXL58GREREfztf/3rX3H+/HmkpqY+8XvI5XJ4enrihRdewLp16zS5XNKJ7n70IGSQ0tPTw7Zt2+Dv748dO3Zg0aJF/H329vZ8W5y+7pBxx8hcYMgdI48cORK+vr4q53txs2V1rWDE0NAQfn5+auuf2HWmdGtra5+um42NDZydnXH9+nWdqix2cXFBfX09cnNz1XqUqqy9j42NDUaMGPHE69a5r6Mu/WyZmZnBx8cH2dnZMDEx0UjuK8uyaGho4PMLm5qantj3cdy4cXBzc8P06dNhb2+PW7duYdKkSXj++efx/fffY8yYMToTaKtCHS3NDAwMEBgYiKKiIk0skfSAdhIJ0ZBjx47h97//PX755ReFPERuh8zZ2bnXxyZdj0OHDRumMBtZHUn4XMGIru2Q9Sc/sb29nT9+f/jwocJM6f5UcXPtegDo3O5ramoqRo0apbSIq7eU9S/kdgttbW1V3qnkfrYCAwN1Kvf17t27KC4uVlvFc+cPcA8fPoRcLud3p3tqiySXy3Hp0iW+8KS6uhrm5uawsrLC2bNnYWdnpzM/X/3Rn5ZmwKOfSW9vb0RHR1MPRy2iIJEQDWFZFsuXL8elS5dw+vRphePlqqoqXLt2DRKJRGkOWedjZG7uKncc2ttj5L64ffs2Hjx4AIlEojM5TlxAxuWTPel1t7S08NetpqYGw4cP5wMcS0tLtV03rgdmfwMydauvr8eVK1fg7++v0ti3trY2hfnIXJ6cSCRSS//C0tJS3Lx5ExKJRK3NxfuDZVnk5eWhoaGhzxXP7e3tqKqqQkVFBT92kTtG7pzP2lljYyNOnjwJqVSKY8eOwdDQEDExMYiLi8O0adPAMAwmT54MHx8f/Pvf/x4SQeK+ffuQkJCAbdu28S3NfvjhBxQUFMDOzq5bS7MPP/wQ4eHhcHV1RW1tLTZu3IiDBw8iIyOjV9OiiHpQkEiIBrW0tCA0NBTR0dFYu3atwi/7wsJC1NTUICwsDHp6et12Idra2vgiF64aWdNYlkVGRgZMTEx0qorwcfmJnce5ccd63LQToVCo0UrP+vp6pKen69wO2f3793Hjxo0nBmTK8gu75smpU0FBAf8zrystaBiGQUZGBoyMjLr1KuyJTCbjr1t1dTVMTEz4imRlU4lYlsXDhw+RlJQEqVSKs2fPYvTo0YiJiUF8fDzGjx/f7XpwjdLXr1+Pl156Sa2veaCo0tLsrbfews8//4yysjJYW1sjODgYH330EQIDAwfwFTx9KEgkRMOysrIwYcIEHDhwABMnTuRvZxgGKSkpMDExgZ6eHn+MzAU36jpGVlVraytSUlLg7u6uM2PMAMX+iWZmZkrHuXHHodrMEywpKcGtW7d0pkkzJz8/H3V1dQo7ZJ3zCysqKvi8zM5tkTRJF1vQAP87pre3t4eLi4vSx3ABdUVFBerr62FhYfHYfpksy+LWrVtITEyEVCpFamoqgoKCEBcXh/j4+F4V8ty+fRujRo3Sma4D5OlDQSIhWrBp0yZs2bIFly9fxo0bN5CXlwdvb2/U1dUBeFTQMnr0aI0dI6vq4cOHyMnJgUQi0ZmeazKZDAUFBaisrATLsvy0E3Udh/YVy7LIzc1FS0sLgoODdabilGEYXLlyBSYmJhCLxXxuJsuyCgG1ttMKuIDMwcEBzs7OWn3ux+la8cztUHOFJy0tLQoNwY2MjLp9D4ZhcPXqVT6/8ObNm5g8eTLi4uIQFxeHUaNG6cT7m5DeoiCRDDmqzAfdvn07du3ahZycHABAcHAw1q9f3+Pj+0Imk+HUqVN47bXXUFVVBZZlMX36dGzevBlCoRDl5eW4e/fugDSOfpyCggJ+J2ogAp/OY8kePnyIhoYGmJubo729HcbGxggMDNSZgKyjowNpaWmwsbHRWrP0x+HyC8vKylBdXQ0DAwOMHDlywANqTkNDA9LT0+Hr6wuRSDSga+msoqIC2dnZEAqFqK2t7VXBTltbGy5evMgHhvX19YiKikJcXBxmz54NKysrCgzJoEVBIhlS9u3bhwULFijMB92/f3+P80Hnz5+PCRMmYPz48TA2NsaGDRtw4MAB5Obm9nu4/bFjx/Dtt9/ixIkTsLGxQWRkJA4cOIDPPvsML774Iv84lmVx9epVfs6zruACH1tbW4wbN04rz6ksL5PLyRSJRDA0NNR4/8S+ampqQlpaGry8vLo1DdbW83c9DuV2vPLz8xEUFARra2utr6snZWVlyM/PR2hoKMzMzAZsHXK5XKHwRCAQgGVZeHp6ws7OrltAzX14OXHiBKRSKY4fPw4TExO+8OSZZ57RmcIcQvqLgkQypKg6H7Srjo4OWFtb46uvvsKCBQv6tZb//ve/uH37NubMmcPnX+3btw+vv/46UlJSMHr0aP6xMpkMycnJOpcH2NTUhNTUVJUrZVUhl8sV2vvo6+s/MS9Tl+Y7d1ZeXo68vDyEhYVpfPIJy7Kora3lA+rO+YVdj0Pv3buH27dv61zeZFFREcrLyxEWFqbVXfTW1laFwhNTU1O+8MTMzAw5OTnYtWsX1q5dC3Nzc7Asi/Lycr7w5Ny5c3B0dERsbCzi4+MRHh6uM4U4hKgTBYlkyOjLfNCuGhoaIBaLsX//fsyZM0fta2RZFi+//DKKi4shlUoV/rBweYDh4eE6tRPBTYkJDw9XmofVF01NTXxgWFtbq/KUGGBg5zs/zo0bN1BVVaWRCt6Ojg5UVVXxAQ4Avg+fjY1Nj/mFXN5kc3MzQkJCBvy4mcO1N2JZFoGBgRo7lu3cUqqiogINDQ2wsrLif+a65t22tLRgypQpMDMzw6xZs5CUlIT09HSEhITwgaGnpycdI5Mhj4JEMmSoY/TTkiVLcPz4ceTm5mpsx6Wurg6BgYFYtGgRVqxYoXBffn4+GhsbERISojN/gFiWRXZ2Ntrb2/v8h5zb9eICQ25qB/dHui/XWtX+idrCtVTh2gj1d10ymYyf81tdXQ0jIyO+qtbS0rLXAV9HRwfS09NhaWkJT0/Pfq1JneRyOdLS0iASidSa1sBVcldUVKCiogIymQy2trYQi8UQCoVKK4Y7OjqQmZkJqVSKAwcO4NatW3BxccHKlSsRGxsLBwcHnfk5I0QbdKNbLiE64JNPPsHevXtx7tw5jR7JWVpa4j//+Q9mzpyJKVOmwN/fn79v3LhxSElJwZ07d3Sm8lMgEMDT0xOpqam4e/cunJycevV1XJNhbnwg8GjXy8XFRS1VtQKBAN7e3jo3TpALWlNSUlBaWtrrqTocZY3UufxCNze3Pvcv7Dwiz8LCot85t+piYGCAgIAApKWlwdzcvF/pFtykGC6/kGVZPvjsacKOTCbDhQsXcOTIESQlJaGxsREzZ87Ehx9+CEdHR8yaNQsikUjl/4+EDAUUJJIhoz/zQTdt2oRPPvkEp06dgp+fnyaXCQCYOHEi3nrrLSxcuBC//PILf9ylr68PX19fpKenw9bWVmfy7biimitXrsDa2rrHdXXN9eKmnQQEBKh12glH3fOd1YVrzHz16lWYm5s/cV095Rfa29vD399fbcf8JiYm8PX1RVZWFszNzXVm/KKpqSl8fX1x/fp1mJqaqrQuuVyuMCnG0NAQIpEIfn5+SndauZnKXOHJiRMnMHz4cMTGxuKf//wnpkyZovAh8fvvv8cLL7wAZ2dnBAcHq+01EzIY0HEzGVL6Mh/0008/xd/+9jccP34c4eHhWlurXC7HhAkTEBwcjE2bNikEUHfu3EFpaSnCw8N1Zjwe0H1d3B9c7o90Y2Mjn+slFAo1XrzBKS4uRklJCSQSiU7lJ965cwclJSVK8ya5/EJu1wuAQrsVTRZCcOuSSCQ61aj5zp07uHfvHiQSyWMDY270YkVFBZ/Tyh3Bm5mZKZ14UlZWxje2Pn/+PJydnfn8wiflj3LdEmjaB3naUJBIhhRV54Nu2LAB77//Pvbs2YMJEybw38fMzEwrbTkKCwsREhKCXbt2ISoqir9dV8fjcesCHu1KVVVVoaOjA7a2tnxgOBBBmq7mJ7Isi2vXroFhGAQGBirMR66uru7WEFxb62ZZFtevX+fzTHWpkCU7OxsymUyhMTnXdoZrbN3Y2MiPXhSJREoLvViWxY0bNyCVSiGVSpGRkYHQ0FA+MPTw8NCZnxNCdBUFiWTIUWU+qJOTE+7evdvte6xduxYffPCBVta7bds2rF27FqmpqQqNhVtbW5GcnAxvb2+lPR61qXNww+V62djYwMnJCdbW1joRZOhi/0SueIILYNva2p44zk1b2tvbkZaWBqFQqLU+mL3BFdhYWFhgxIgR/I6hXC5XKDxR9mGko6MDV65cgVQqRWJiIoqLizFlyhTExcUhNjYWI0eOpMCQEBVQkEjIAGMYBs8++ywYhsF///tfhYCrrKwMBQUFCA8P12p/u8cVTwiFQrS2tiI7OxsSiWRAA52udKF/IsMwfFXtw4cPIZPJYGlpidraWvj4+DwxP1abBroBeFfcEfyDBw9QUVEBfX19jBgxAiKRqMeemTKZDOfPn+cLT1paWjBr1izExcVh1qxZsLCwoMBQBapMrAIevefeffdd/Pzzz6iuroajoyM+//xzREdHa3HVRFMoSCREB1RUVMDf3x/vvfceXnnlFYX7cnJyIJPJEBQUpNE/dgzDKBRPcC1DuMCwa47YjRs3UF1djbCwMJ3YSeRweZPazE9UVsndNb+wtLQUN2/e1HrA/yQVFRXIyclBWFjYgEw+6bxLXVVVBWNjY4jFYhgbG+PGjRtwdnbG2LFj+cdzM5WPHz8OqVSKkydPwtzcHDExMYiPj0dkZKTaCn2eNqpOrGpra8OECRMgFouxZs0aODg44O7du7CyslLo2kAGLwoSCdERiYmJmDdvHi5evAg3Nzf+9vb2dn5Ci6Ojo1qfs+u0Ez09PT646WnnhsMwDNLS0mBtba0T84o53JhDfX19jeYnymSybvmFnfsXKnve3NxcNDU16VRDa0D7k0+am5v5nda6ujp+l1osFivsTCclJWHx4sU4d+4chg8fjsTERCQmJuL8+fNwc3Pj8wsHar74UKPqxKqtW7di48aNKCgo0KmCMaI+FCQSnXLu3DlMmTKlx/sjIyNx9uxZLa5Ie1iWxdKlS5GWloaTJ08qVJ1yx6hhYWEwNzfv1/M0NzfzwU1tbS0/kkwkEql8NNfc3IyUlBT4+voq5FMONE3kJyqb2mFpaclfu94cu3P5dlZWVvDw8FDLutSBC6wFAgECAgLUHlhzu3/cz11TUxNsbGz4/EJlO6ssy6KgoAAJCQm4desW2traEB4ezgeG48aNo2NkNerLxKro6GjY2Nhg+PDhOHToEEQiEf7whz9g9erVNKZwiNCd3hqEABg/fjwePHjQ7fbDhw/j9ddfx5IlSwZgVdohEAjw6aefIjQ0FBs2bMB7773H/xG0srKCk5MTnweoyi9grniC+wPNTTsRi8Xw9vbu1wjA4cOHw9PTE7m5uTp1jGpoaAhfX19kZmb2q39iT0fwo0aNgkgkUrl9DLe7mZqaCisrK53JTxQIBPD19UVqaipu374NFxeXfn9PhmFQU1PDB9UdHR0QCoUYO3YshEKh0tZOXBB95MgRJCYm4tdff0VkZCRkMhl8fHzw008/0Y6hhlRWVqKjo6NbbqqdnR0KCgqUfs3t27dx5swZzJ8/H0lJSSgqKsKSJUsgl8uxdu1abSybaBjtJBKdl5+fD4lEgj/96U/46KOPBno5GpeRkYFJkybh8OHDCuMFGYbBlStXYGFh8cRdqJ5m/HI5curuvaitvElV9SU/sWt+oUAgUJiPrI4dEi4PUNcKfxoaGpCent7nnWHu2nG9H/X19flj5J6q4FtbW3Hu3DkcOXIER48eRVtbG194MnPmTFhYWKC8vBwhISFYtmwZ/vrXv6rjpZIu+jLWdNy4cWhtbcWdO3f498XmzZuxceNGpR/2yeBDQSLRabW1tQgLC4OHhwcOHTqkUwGIJm3YsAFbt25FcnKywvQJ7njXz88PQqFQ4WtaW1v5/MKuPfhUmfHbF1zepIODg0KRwUDrbX4id+24+cjcpJjH5Rf2182bN/Hw4UOEhYXpVMP0Bw8eoKCgABKJhJ8E9Dhcbmbna8flZipLX+B2to8dOwapVIpTp07B0tISMTExePbZZzF58mSlO7QZGRmYMWMGcnJy+jW6jyjXl+PmyZMnw8DAAKdOneJvO3r0KKKjoyGTyXSqUTvpGwoSic5iGAZz5sxBcXExUlNT+52LN5h0dHRg6tSpGD16NLZu3arwh7a0tBRFRUUIDw9XKJ5obGxUOUdOnerr65Geno7g4GBYWVlp9bkfR1l+Itecmbt2fckv7C+GYZCZmQkjIyP4+Pjo1AegwsJCvnJd2c5pU1MTX3hSX1/PXzuxWKw0sGRZFqWlpfzEkwsXLsDd3Z3PL+zcOPtx6urqdGb04lCk6sSqNWvWYM+ePbh9+zb//++LL77Ahg0bcP/+fa2unWgGBYlEZ7399tvYtm0b0tLSFKp9nxZ3795FQEAAtmzZgueeew7Ao1/aVVVVKCwshEwmA/C/Y2ShUDjgn9zv3r2LX3/9VekYuoFUU1ODzMxMjBs3ji/c4fILueKJgbh2MpkMKSkpcHZ2xujRo7X+/D3hAlgutxMAn9daUVHBz5bmdgyVXTuGYVBQUIAjR45AKpXi2rVriIiI4ANDV1dXnQqMieoTq+7duwdvb28kJCRg2bJluHnzJv74xz/iT3/6E959990BfjVEHXTnjIOQTvbu3YtNmzYhMTHxqQwQAcDR0RFff/01lixZgry8PCQnJ0MoFGLRokWwsbHBw4cP4ezsrDPTRQBgzJgxqKqqQn5+Pnx9fQc8COicIwcABQUFGDlyJNzd3dWWX9gfRkZG8PPzQ2ZmJiwsLHRml0xPTw8+Pj5ISUlBWloaWltbwTAMRCIRXF1de8xr5aa4cIUnpaWlmDZtGt544w3MmTMHdnZ2A/4zQXo2d+5cPHz4EO+//z4/serYsWN8Mcuvv/6qsOM7evRoHD9+HG+99Rb8/Pzg4OCA5cuXY/Xq1QP1Eoia0U4i0TlZWVmYMGEC/u///g9//vOftfKcqkwZ+Pnnn7F+/XoUFRVBLpfDzc0Nq1atwksvvaSWtbAsi8LCQhw+fBiHDx/G5cuXYWJigpdffhnPP/88QkJCIBAIUFVVhWvXrulc8UNbWxuSk5Ph4uKCUaNGaf35W1tbFfoXcvmFQqGQT7DXpfnOAFBcXIx79+5BIpEM6G5w576ZXOEJ9zM+evRopUfCLS0tOHv2LKRSKY4ePQq5XI7Zs2cjLi4OUVFRT1WaiLqp8ntp586d3RrxGxkZobW1VRtLJUMU7SQSnVJZWclPTXjxxRdRVlamcD9XLalO+/btw8qVKxWmDERFRfU4ZcDGxgbvvvsuPDw8YGhoCKlUildeeQVisRhRUVH9Xk9UVBQuXLiAqVOnYsGCBdi+fTtmzZqF0aNHIzQ0lH8c14olOztbp6aeGBoawsfHB9euXYOVlZXGp3h0zi+sqKhQyM10d3dXCKBNTU2RkpKCe/fu6dQOrKOjI+rq6pCTk4PAwECtBrBcUF1RUYGamhqYmZlBJBJh7NixMDMzQ0lJCT7//HO88cYbcHV1BcuyqKmpUSg8sbW1RUxMDPbs2YNJkybpVKrBYKXq7yUAsLCwQGFhIf/fuvRBiAxOtJNIdMp//vMfvPzyyz3e7+joiOLiYrU+p6pTBpQJCgrC7NmzsW7dun6vJycnB2PHjlUIbs6dO4fZs2fjzJkzfI4Yt9a0tDTY2trq3LH8zZs3UVlZ2WPxQ39w/Qu54gm5XK4wQvBxu3FcfuJAzndWRi6XIzU1FSNHjlRLn8KecE3BuWvX0NAAKysrPr9QWd/M+fPn4/r161i4cCFOnjyJixcvwsvLC7GxsYiLi0NQUJDOfEgZKlT9vbRz506sWLECtbW1Wl4pGcooSCRPtb60feiMZVmcOXMGsbGxOHjwIKZPn66RdbIsi3feeQdSqRTnz59X+EPe2NiItLQ0BAQEwMbGRiPP3xeq9HXsjfb2doWjUFVGCHY1EPOde4PrU6isxVF/sCyrEFTLZLInFjwxDIO8vDwcOXIER44cwbVr12BnZ4c///nPePbZZ+Hs7Ew7VRrSl99LO3fuxKJFi+Dg4ACGYRAUFIT169fD29tbiysnQw199CNPtcdNGeh61N1ZXV0dzMzMYGhoiNmzZ2PLli0aCxCBR8dGH374IYyMjPDBBx+g82c7MzMzuLm5ITc3F3K5XGNrUJWenh58fX3x4MEDvnBEVa2trbh37x4yMzNx7tw53L59G8bGxggKCsKkSZPg5eUFkUik8k6lk5MThg8fjry8POjS52Rzc3N4eHggJycHLS0t/fpeHR0dqKioQG5uLs6fP49r166hvb0d7u7uiIyMhL+/P+zt7RUCxPb2dly8eBGrV6+Gn58fIiMjce3aNSxbtgxXr14FwzAwNzeHi4sLBYga1JffS+7u7tixYwcOHTqE3bt3g2EYjB8/HiUlJdpYMhmiKCeRkD4wNzdHVlYWGhsbcfr0aaxcuRLOzs6IjIzU2HMaGhpi9+7dCAsLw4wZMzB16lT+vlGjRqGyslJnqoo5JiYm8PT0RF5eHiwsLJ44to/LL+R2vBobG2FlZQWRSAQPD49eNXfuDYFAwFfv6lp+or29PWpra3H9+nWEhoaqdIzb1tamsNtqZGQEsVgMf39/WFlZKf25aG5uxpkzZ5CYmIikpCS+P+mmTZswY8YMhZzS/fv3Izo6Gv7+/ggPD1fL6yXqERERoTApZfz48fD09MS2bdvUkgZDnk4UJJKnmlAohL6+PsrLyxVuLy8vf+xcXT09Pbi6ugIAAgICkJ+fj48//lijQSIAeHp6YsOGDXjttdeQmpoKW1tbAI+CHi8vLyQnJ+PBgwewt7fX6DpUMWLECFRVVSE7O5uvzO6s84zfzvmFY8aM0Wj/QnXNd9YEd3d3pKen48aNG088qm9paeGD6traWpibm0MkEsHFxQWmpqZKJ55UV1fj6NGjkEqlOHPmDEQiEWJiYvDDDz9g4sSJPR7BT548GZs3b0ZTU5PaXivprq+/lzozMDBAYGAgioqKNLFE8pSg42byVDM0NERwcDBOnz7N38YwDE6fPq3wqfxJGIbhm1tr2uuvv46goCAsW7YMDMPwtxsZGcHb2xuFhYX9PqpUNw8PD8jlcty+fRvAoyKNsrIyZGdn4/z588jJyQHDMPD09MTkyZOVHoVqgrW1NZydnZGdna1TR/X6+vrw9/fHgwcPus3AZVkW9fX1uHXrFpKTk3Hp0iVUVlbCzs4OEydOhEQigbOzM8zMzPgAkWVZ3L17F19//TWio6Ph7OyMb775BgEBAfjll19w69YtfPnll5gyZcoTczRfe+01hV1son7q+L3U0dGB7OxsGmFI+oV2EslTb+XKlUhISEBISAg/ZaCpqYnvOdZ1ysDHH3+MkJAQuLi4QCaTISkpCd999x2++eYbraxXT08P//rXv+Dn54fdu3djwYIF/H0ikQgjRoxATk5Or0edaYO+vj7c3Nxw7do1/hjZ1NQUIpEIQUFBSmf8aouTkxNqamqQl5enU/0TTUxM4OPjg+zsbJiamqK9vV2hmlsoFMLJyQlCoVBpYMcwDHJzc/mJJ7m5uZgwYQLi4+Px73//G2PHjtWZ10q6U/X30ocffojw8HC4urqitrYWGzduxN27d7Fo0aKBfBlkkKMgkTz1VJ0y0NTUhCVLlqCkpAQmJibw8PDA7t27MXfuXK2t2c7ODtu3b8eLL76ICRMmKLRMGTduHFJTU1FcXAxnZ2etrakrlmXR0NCgMFva2NgYLS0tCA0N1ZnjXV3NT2xvbwfDMDA2NkZqaioMDAwgFovh6ekJGxsbpR8A2tvbcfnyZUilUiQmJqKiogLTp0/H8uXLERMTA1tbWwoM+0CVptad7d27Fy+88ALi4uJw8OBBlZ5T1d9LNTU1WLx4McrKymBtbY3g4GBcvnwZXl5eKj0vIZ1RCxxCBimWZfHGG28gKysLx48fV9hNqq+vR3p6utZ7AfaUX8jNRx42bBiuXbsGAPD399epgIXrnxgaGgoLC4sBWUNbWxvf2Lq6uhomJiYQCoWoqanhR/h1DQ6bm5tx+vRpfuKJQCDAnDlzEBcXh+nTp+vUNJ7BaN++fViwYIFCU+v9+/c/tqk18GiKzsSJE+Hs7AwbGxuVg0RCdAEFiYQMYo2NjQgODsbvf/97vPPOOwpBV3FxMUpKShAeHq50zq66dB7lVlVVxU/F4foXdg1q2trakJKSgrFjx2L06NEaW1dfDET/xKamJj6orqurg4WFBUQiEcRiMR/gtbW14fnnn0doaCjWrFmDqqoqJCUlITExEWfOnIGdnR1iY2MRHx+PiRMnavT/99OmL832Ozo6MGnSJPzxj3/EhQsXUFtbS0EiGZQoSCRkkEtPT0dkZCQSExMVjsBYlkVGRgZMTEzU3lC3paWFD2xqamr4/EKRSNSr/MLq6mpcvXoVYWFhOjXbl2VZXL16VaPznbnCE27HsLm5mZ8WIxKJYGRkpPRrdu/ejaVLl8LT05NvdcQFhsp2GEn/9bXZ/tq1a3H9+nUcOHAAL7/8MgWJZNCij5uEDHKhoaF49913sXDhQly+fJkPurhcu+TkZAiFwm6NeVXROb+woqICTU1NsLa2hkgkgpeXl9JRbo9jY2MDR0dHZGdnQyKRqH1sX191zk8sKSlR204ndwzPFZ50dHRAKBTCxcUFtra2Snf+GIZBdnY2X3iSn58PR0dH3Lt3DykpKQgKCtKp4/qh6HFNrQsKCpR+zcWLF/Gvf/0LWVlZWlghIZpFQSIhQ8Bf//pXHDt2DG+//Ta++uorPngwNjaGl5cX8vPzYWlp+cRm1p11DWza29ufWFGrCmdnZ9TU1KCwsFCnkuu79k/sa34iN0awoqKCP4YXi8Xw9vaGtbW10p0/uVyOy5cv48iRI0hKSkJlZSVmzJiBVatWYc6cObC2tsa8efPw9ttv49ixYzoTXJNHGhoa8NJLL2H79u1qHatIyECh42ZChog7d+4gMDAQ33zzDeLi4hTuy8nJgUwme+LuU+f8wsrKSgwbNuyx+YX91dLSgpSUFHh5efVrp1MT+pKf2Nrayh/DV1dX88fwYrEY5ubmSq99U1MTTp06xReeDBs2TKHwpOuUmfr6eoSFheHll1/uMSeOqIeqx81ZWVkIDAxUCN65XqZ6enooLCxU6ERAiK6jIJGQIeS7777DihUrkJaWptBEt729HSkpKRg1ahScnJwUvqan/MLHBTbqVF5ejry8PISHh6t8bK1JvclPZFmWLzypqKhAQ0MDLC0tIRaLIRKJlI4RZFkWlZWVChNP7O3t+fzC8ePHP7Hw5MaNG7CwsOj19A3SdxKJBGFhYdiyZQuAR0HfmDFjsHTp0m5Bemtra7cJJ++99x4aGhrwxRdfYNy4cRpvEE+IOlGQSMgQwrIs/vCHP6CyshIHDhxQ2Pmrra1FRkYGQkNDwbIsHxh2zi8UiUQDEqjl5+ejoaEBISEhOlWAoawSm2VZ1NXV8cfwra2tCoUnyoIAlmVx584dHDlyBImJiUhJSUFAQABiY2Px7LPPwtvbW6deN/mfffv2ISEhAdu2beObWv/www8oKCiAnZ1dt6bWXVHhChnMKCeRkCFEIBDg66+/RkBAALZu3YolS5YAeLT70d7eDlNTU6SlpUFPT0+t+YX9xTUAv337Nj8TWxd0zk9kGIbfNWRZFkKhEG5ubrC1tVWaG8gwDK5du8YHhoWFhZg0aRLmzp2LPXv2YPTo0VR4Mgio2tSakKGEdhIJ6YeBmMTQG2fPnsWcOXPw5ptvIjMzEx0dHVi9ejVEIhFqampgbW0NT09PtT9vfzQ2NiItLQ0BAQGwsbEZ6OXw+ZncjiEAODg4wM7ODlZWVj0Wnly6dIkPDGtqahAVFYW4uDjMnj0b1tbWFBj2kSrvtZ9//hnr169HUVER5HI53NzcsGrVKrz00ktaXjUhgxsFiYT0kS5OYiguLsahQ4dw6NAhnD9/HsOGDcOCBQswd+5cREREQCAQoLm5GSkpKfD19YVIJFLbc6tDSUkJbt26hYiIiAHJ3eqan2lmZsYfIxcVFaGsrAwzZ85UCBAbGxtx8uRJSKVSHDt2DIaGhoiJiUFcXBymTZumU3mWg5Wq77Vz586hpqYGHh4eMDQ0hFQqxapVq5CYmIioqKgBeAWEDE4UJBLSR7o2iWHevHn46aefEBkZidjYWERFRWHu3LmYNGkS1q9fr7CDdf/+fdy8eXPAgrGesCyL69evg2EYBAQEaHzXjWVZNDY28ruFjY2NPeZnNjc3w8/PDwsXLsTChQuRlJQEqVSKs2fPYvTo0XzhSUREBLWmUbO+vNe6CgoKwuzZs7Fu3TpNLpWQIYWCREL6QBcnMWRnZ2P06NGwsrLib8vNzYVEIsEPP/yAyMhI/naWZZGdnY2Ojg6tBGOqkMvlSElJgaOjI8aMGaP2788wDGpra/kdw7a2NoX50sryM1mWxa1bt7B582bs2rULAoEAwcHBiIuLQ3x8PLy8vHTqGg4lfX2vcViWxZkzZxAbG4uDBw9i+vTpGl4xIUMHFa4Q0ge6OInB19e3223e3t74+OOP8eqrryIlJYXP9RMIBPD09ERycrJaJ4uog4GBAXx9fZGRkQErK6s+N7PurKOjA1VVVXxgKBAIIBKJ4O7uDhsbmx4LT65evcrnF968eRORkZGYM2cOrl+/jhMnTigE5EQz+vJeA4C6ujo4ODhAJpNBX18f//jHPyhAJERFFCQSogUDOYnhzTffRFJSEpYvX47//Oc/fD6dgYEBfHx8kJWVBRsbG5iammp1XY9jZWWFsWPH8mP7ntQ3UJm2tjY+KKyqqoKRkRHEYjECAgJgaWmpdOevra0NFy9e5Cee1NXVYebMmVizZg2io6NhZWUFlmURHR2NV199Ffv27aMdRB1lbm6OrKwsNDY24vTp01i5ciWcnZ0VdtQJIY9HQSIhfSAUCqGvr4/y8nKF28vLy5U2OL516xaKi4sRExPD38ZNYhg2bJhGJzHo6elhx44d8PPzw3//+1/Mnz+fv8/GxgajRo1CdnY2wsLCdKqVx9ixY1FdXY3CwkJ4e3v36muam5v5xtZ1dXUwNzeHWCyGq6srTE1NuwV0XE7iiRMnIJVKcfz4cZiYmCAmJgZbt27FM888063wRCAQ4LvvvkNgYCAuXLiASZMmqe01k+5Ufa9x9PT0+HZKAQEByM/Px8cff0xBIiEqoCCRkD4wNDREcHAwTp8+zedJMQyD06dPY+nSpd0e7+HhgezsbIXbOk9i0PRx78iRI7F9+3YkJCRg/PjxGDt2LH+fq6sr0tLScOvWLbi5uWl0HaoQCATw8fFBSkoKHjx4oDBBhsOyLBoaGvjCk6amJtjY2GDEiBHw9fVVOquaZVmUl5fzhSfnzp2Dk5MTYmNjkZSUBIlE8sTCE5FIhOvXr+tEq56hTtX3Wk8YhoFMJtPQKgkZmihIJKSPVq5ciYSEBISEhPCTGJqamvDKK68AgMIkBmNjY/j4+Ch8PZfP1vV2TYmLi8PcuXOxePFiHDt2jD/C1dPTg4+PD9LS0mBra6tTgY+xsTG8vb2Rk5MDS0tLDB8+HAzDoKamhj9KlsvlEAqFGDt2LGxtbXssPLl58yYSExMhlUqRnp6OkJAQxMbGYvPmzfD09FT52FiXrtNQp8p7DQA+/vhjhISEwMXFBTKZDElJSfjuu+/wzTffDOTLIGTQoSCRkD4abJMYBAIBPvvsMwQHB+Ozzz7D6tWr+fvMzMzg5uaGnJwcREREDPgEls5EIhHs7OyQmZkJCwsLVFVVQV9fHyKRCJ6enrCxsVF6nRmGQUZGBqRSKaRSKW7fvo3IyEi89NJL2L9/PxwcHCifsA9UaWq9fft27Nq1Czk5OQCA4OBgrF+/vlcN5ztT9b3W1NSEJUuWoKSkBCYmJvDw8MDu3bsxd+7cPr5qQp5O1AKHkKdMSkoKnnnmGRw7dgwhISH87SzLIisrC/r6+vD19R3wAEomkykUnggEApiZmcHDwwMWFhZK1yeTyXDhwgW+8KSpqQkzZ85EXFwcoqOje/w60juqNrWeP38+JkyYgPHjx8PY2BgbNmzAgQMHkJubCwcHhwF4BYQQVVCQSMhT6MMPP8R3332HS5cuwczMjL+9ra0NycnJcHNzg729vdbXxc1GrqioQH19PSwtLfnG1gBw4sQJWFhYYOrUqQD+l5PIFZ6cOHECpqamiImJQXx8PCIjI5XmJZK+6W9T646ODlhbW+Orr77CggULNL1cQkg/0XEzIU+hNWvW4Pjx43jnnXfw5Zdf8rtrhoaG8PLyQnZ2NqysrDB8+HCNroNlWdTX1/OFJy0tLbCxsYG9vT38/f1hZGSk8PjS0lIsW7YMBw8eRFZWFqRSKc6fPw8XFxfExMTg6NGjCAsLo4knGtDW1oaMjAy88847/G16enqYNm0akpOTe/U9mpubIZfLKZ+TkEGCgkRCnkLDhg3Drl27EBQUhKioKMyZM4e/TyQSwd7eHjk5OQgJCVF7XiXDMKiuruYDQ4ZhIBKJ4OLiAltbW6U9EVmWxY0bN9DS0gKGYTB58mSEh4cjLi4OX375Jdzd3ekYWcP62tS6s9WrV8Pe3h7Tpk3TxBIJIWpGQSIhTykXFxd88cUXePPNNxESEqLQc87NzQ2pqam4c+eOWvo3yuVyVFZW4uHDh6isrISBgQFEIhF8fX1hZWWlNBDt6OjAlStXIJVKkZiYiOLiYkyZMgVr167F559/jueeew5/+ctf+r02oh2ffPIJ9u7di3PnzlEKACGDBAWJhDzFFixYgMTERLzxxhv46aef+GCNK17h2uL0Zfxca2srX3hSXV0NU1NTiMViODk5wdzcvMfCk/Pnz/OFJ62trZg1axY++OADzJo1iy88GT9+PKZMmYLIyEiEhob29zKQXuhrU2sA2LRpEz755BOcOnUKfn5+mlwmIUSNqHCFkKdcVVUV/P39sWrVKrz22msK9xUXF6OkpATh4eFPHI3Hsiyampr4Y+SGhgZYWVlBJBJBLBZ3m1zCfU19fT2OHz8OqVSKkydPwtzcHDExMXj22WcRGRkJQ0NDpc/3ySef4MaNG9ixY0ffXzxRiUQiQVhYGLZs2QLgUerAmDFjsHTp0h4LVz799FP87W9/w/HjxxEeHq7N5RJC+omCREIITp06hfj4eJw/fx6enp787SzLIjMzk29q3RXLsqitreUrkmUyGWxtbSEWiyEUCpUGeCzL4sGDB3xj619++QWurq6IjY1FfHw8QkNDe5UHyTAMWJalIhUt2rdvHxISErBt2za+qfUPP/yAgoIC2NnZdWtqvWHDBrz//vvYs2cPJkyYwH8fMzMzhap6QohuoiCREAKWZbFq1SqcOXMGZ8+eVagqbm1tRXJyMry8vGBnZ4eOjg6FwhMAfJsaW1tbpUEby7IoKCjgG1tfvXoV4eHhfGDo5uZGhSeDxFdffcU30w4ICMCXX34JiUQCAIiMjISTkxN27twJAHBycsLdu3e7fY+1a9figw8+0OKqCSF9QUEiIQTAo2BQIpFg6tSpWLdunULQVlpaisLCQlhZWaGmpgZGRkb8MbKVlZXSAK+jowPp6ek4cuQIEhMT8euvv2Lq1KmIi4tDTEwMRowYQYFhH6ky9SQ3Nxfvv/8+MjIycPfuXfz973/HihUrtLtgQsigRIUrhBAAj+Yk7969G+Hh4ZgxYwbs7Ozw448/IjIyEi0tLdDX10dzczPCwsJgZmamNMBrbW3FuXPnIJVKkZSUhLa2NsyaNQsfffQRZs6cCQsLiwF4ZUPLvn37sHLlSoWpJ1FRUT1OPWluboazszN+//vf46233hqAFRNCBivdGSxLyFPk66+/hpOTE4yNjSGRSJCWltbjY3fu3AmBQKDwjyZaiLAsi46ODkycOBExMTEIDQ3F8ePHoa+vj4kTJ+I3v/kN6uvr8eOPP/IBIpeTuHfvXrz44otwcnLCihUrYGJigt27d6OsrAzff/89nn/+eQoQ1WTz5s1YvHgxXnnlFXh5eWHr1q0YPnx4jwU8oaGh2LhxI+bNm9etOTkhhDwO7SQSomWq7gQBgIWFBQoLC/n/VucxbX5+PrZt24aDBw+isrISM2fOhLu7O1xcXLBnzx6F5zIxMcGqVatgbW2N8vJySKVSXLhwAe7u7oiNjcU777yD4OBgtTfgJo+oY+oJIYT0FgWJhGhZ550gANi6dSsSExOxY8eOHtuICASCJ/ai66vy8nI0NzfjH//4B5555hkYGxvj/v378PPzw759+zBv3jwwDIOCggKkpaXB0tIS8+fPx/jx4xEfH4+tW7fC1dWV8gu1QB1TTwghpLcoSCREi/q6E9TY2AhHR0cwDIOgoCCsX79eaUuavoiMjERkZKTCbfb29ti2bRsSEhJw8eJF/PLLLygtLcW0adOwbt06/POf/0RAQABNPCGEkCGMzoQI0aLH7QSVlZUp/Rp3d3fs2LEDhw4dwu7du8EwDMaPH4+SkhKNrvW5556Di4sLbty4gU8++QQVFRU4cuQIXn31Vezduxe7d+9GYmKiRtdAFPVn6gkhhKiKgkRCdFxERAQWLFiAgIAATJ48GT///DNEIhG2bdum0ecVCAS4evUqLl68iN/97ncwNzfn73N2dsaWLVuwfft2ja6BKDI0NERwcDBOnz7N38YwDE6fPo2IiIgBXBkhZCii42ZCtEgdO0EGBgYIDAxEUVGRJpao4HEFKC+99BLmz5+v8TUQRStXrkRCQgJCQkL4qSdNTU18jmvXqSdtbW3Iy8vj/720tBRZWVkwMzODq6vrgL0OQojuo51EQrRIHTtBHR0dyM7OxsiRIzW1zF4RCAQ0Em8AzJ07F5s2bcL777+PgIAAZGVl4dixY3wKw6+//ooHDx7wj79//z4CAwMRGBiIBw8eYNOmTQgMDMSiRYsG6iUQQgYJmrhCiJapOv/2ww8/RHh4OFxdXVFbW4uNGzfi4MGDyMjIgJeX1wC/mqeTKhNPAGD//v34f//v/6G4uBhubm7YsGEDoqOjtbhiQghRHe0kEqJlqu4E1dTUYPHixfD09ER0dDTq6+tx+fJlChAHCNfncu3atcjMzIS/vz+ioqJQUVGh9PGXL1/GCy+8gIULF+Lq1auIj49HfHw8cnJytLxyQghRDe0kEkKICiQSCUJDQ/HVV18BeJQuMHr0aCxbtkxpn8u5c+eiqakJUqmUvy08PBwBAQHYunWr1tZNCCGqop1EQgjpJa7P5bRp0/jbntTnMjk5WeHxABAVFUUTUgghOo+CREII6aW+9LksKytT6fGEEKIrKEgkhBBCCCHdUJBICCG91Jc+lyNGjKAJKYSQQYmCREII6aW+9LmMiIhQeDwAnDx5kiakEEJ0Hk1cIYQQFag68WT58uWYPHkyPvvsM8yePRt79+7FlStX8O233w7kyyCEkCeiIJEQQlQwd+5cPHz4EO+//z7KysoQEBDQrc9l53GG48ePx549e/Dee+9hzZo1cHNzw8GDB+Hj4zNQL4EQQnqF+iQSQoaE6upqLFu2DEeOHIGenh5++9vf4osvvoCZmVmPX/Ptt99iz549yMzMRENDA2pqamBlZaW9RRNCiA6jnERCyJAwf/585Obm4uTJk5BKpfjll1/w6quvPvZrmpubMXPmTKxZs0ZLqySEkMGDgkRCBpGvv/4aTk5OMDY2hkQiQVpa2mMfX1tbizfffBMjR46EkZERxo0bh6SkJC2tVnvy8/Nx7Ngx/POf/4REIsHEiROxZcsW7N27F/fv3+/x61asWIG3334b4eHhWlwtIYQMDhQkEjJIqDozuK2tDdOnT0dxcTF+/PFHFBYWYvv27XBwcNDyyjUvOTkZVlZWCAkJ4W+bNm0a9PT0kJqaOoArI4SQwYsKVwgZJDZv3ozFixfzVbRbt25FYmIiduzYoXRm8I4dO1BdXY3Lly/DwMAAAODk5KTNJWtNWVkZxGKxwm3Dhg2DjY0NTTYhhJA+op1EQgaBvswMPnz4MCIiIvDmm2/Czs4OPj4+WL9+PTo6OrS17H57++23IRAIHvtPQUHBQC+TEEKGJNpJJGQQeNzM4J6CpNu3b+PMmTOYP38+kpKSUFRUhCVLlkAul2Pt2rXaWHa/rVq1Ci+//PJjH+Ps7IwRI0Z0O3Zvb29HdXU1TTYhhJA+oiCRkCGKYRiIxWJ8++230NfXR3BwMEpLS7Fx48ZBEySKRCKIRKInPi4iIgK1tbXIyMhAcHAwAODMmTNgGAYSiUTTyySEkCGJjpsJGQT6MjN45MiRGDduHPT19fnbPD09UVZWhra2No2uV9s8PT0xc+ZMLF68GGlpabh06RKWLl2KefPmwd7eHgBQWloKDw8PhYrwsrIyZGVloaioCACQnZ2NrKwsVFdXD8jrIIQQXUJBIiGDQF9mBk+YMAFFRUVgGIa/7caNGxg5ciQMDQ01vmZt+/777+Hh4YGpU6ciOjoaEydOVBh9J5fLUVhYiObmZv62rVu3IjAwEIsXLwYATJo0CYGBgTh8+LDW108IIbqGJq4QMkjs27cPCQkJ2LZtGz8z+IcffkBBQQHs7Oy6zQy+d+8evL29kZCQgGXLluHmzZv44x//iD/96U9499131b4+VSeeVFdXY+3atThx4gR+/fVXiEQixMfHY926dbC0tFT7+gghhKiGchIJGSRUnRk8evRoHD9+HG+99Rb8/Pzg4OCA5cuXY/Xq1RpZ3/z58/HgwQOcPHkScrkcr7zyCl599VXs2bNH6ePv37+P+/fvY9OmTfDy8sLdu3fx+uuv4/79+/jxxx81skZCCCG9RzuJhJB+y8/Ph5eXF9LT0/mG1seOHUN0dDRKSkr4vMAn2b9/P1588UU0NTVh2DD6DEsIIQOJchIJIf2mrokndXV1sLCwoACREEJ0AAWJhJB+U8fEk8rKSqxbtw6vvvqqJpZICCFERRQkEkJ6pK2JJ/X19Zg9eza8vLzwwQcf9H/hhBBC+o3OdAghPdLGxJOGhgbMnDkT5ubmOHDgAD9nmhBCyMCiIJEQ0iNNTzypr69HVFQUjIyMcPjwYRgbG6tt7YQQQvqHqpsJIWoxa9YslJeXY+vWrXwLnJCQEL4FTmlpKaZOnYpdu3YhLCwM9fX1mDFjBpqbm3HgwAGYmpry30skEilMiiGEEKJ9tJNICFGL77//HkuXLsXUqVP5Ztpffvklf3/XiSeZmZl85bOrq6vC97pz5w6cnJy0tnZCCCHd0U4iIYQQQgjphqqbCSGEEEJINxQkEkIIIYSQbihIJIQQQggh3VCQSAghhBBCuqEgkRBCCCGEdENBIiGEEEII6YaCREIIIYQQ0g0FiYQQQgghpBsKEgkhhBBCSDcUJBJCCCGEkG4oSCSEEEIIId1QkEgIIYQQQrqhIJEQQgghhHRDQSIhhBBCCOmGgkRCCCGEENINBYmEEEIIIaQbChIJIYQQQkg3FCQSQgghhJBu/j9kjvsJjQZodAAAAABJRU5ErkJggg==;" vertex="1" parent="1">
          <mxGeometry x="231.5" y="470" width="638.5" height="487.98" as="geometry" />
        </mxCell>
      </root>
    </mxGraphModel>
  </diagram>
</mxfile>
